<svg width="375" height="812" viewBox="0 0 375 812" fill="none" xmlns="http://www.w3.org/2000/svg">
<g clip-path="url(#clip0_13763_34283)">
<rect width="375" height="1000" fill="url(#paint0_linear_13763_34283)"/>
<g style="mix-blend-mode:overlay" opacity="0.3" clip-path="url(#clip1_13763_34283)">
<path d="M62.1719 553.933C62.1719 553.303 62.4218 552.7 62.8667 552.254C63.3116 551.809 63.9149 551.559 64.5441 551.559C66.9109 551.56 69.233 552.205 71.2614 553.425C73.2898 554.645 74.9481 556.395 76.0585 558.486C77.1689 560.578 77.6896 562.932 77.5647 565.297C77.4398 567.662 76.674 569.949 75.3495 571.911C74.9868 572.407 74.4464 572.742 73.8419 572.847C73.2373 572.952 72.6157 572.818 72.1075 572.474C71.5992 572.13 71.2439 571.603 71.1162 571.002C70.9884 570.402 71.0982 569.775 71.4223 569.254C72.2649 568.005 72.7519 566.55 72.8311 565.045C72.9103 563.54 72.5786 562.042 71.8718 560.712C71.1649 559.381 70.1095 558.268 68.8186 557.492C67.5277 556.716 66.05 556.306 64.5441 556.306C63.9149 556.306 63.3116 556.056 62.8667 555.611C62.4218 555.166 62.1719 554.562 62.1719 553.933Z" fill="white"/>
<path d="M28.0869 564.609C28.1038 558.242 29.778 551.989 32.9445 546.467C36.111 540.944 40.6607 536.343 46.1452 533.115C46.6886 532.796 47.3365 532.705 47.9463 532.864C48.5561 533.023 49.078 533.417 49.3971 533.961C49.7162 534.505 49.8063 535.153 49.6478 535.763C49.4892 536.373 49.0949 536.896 48.5515 537.215C43.7779 540.02 39.8174 544.022 37.0607 548.826C34.304 553.63 32.8463 559.069 32.8314 564.609C32.8331 566.997 33.0996 569.378 33.6259 571.707C33.7128 572.017 33.736 572.341 33.6941 572.659C33.6521 572.978 33.5458 573.285 33.3817 573.562C33.2175 573.838 32.9989 574.078 32.7392 574.268C32.4794 574.457 32.1839 574.592 31.8706 574.663C31.5573 574.735 31.2327 574.742 30.9165 574.685C30.6004 574.627 30.2992 574.505 30.0314 574.328C29.7635 574.15 29.5345 573.92 29.3583 573.651C29.1821 573.382 29.0624 573.08 29.0063 572.763C28.3987 570.088 28.0904 567.353 28.0869 564.609Z" fill="white"/>
<path d="M85.8939 540.122C85.8919 539.507 86.1325 538.915 86.5636 538.476C87.0006 538.025 87.5984 537.766 88.226 537.755C88.8536 537.744 89.4598 537.983 89.9119 538.419C96.001 544.328 99.8419 552.175 100.774 560.611C100.824 560.928 100.81 561.252 100.731 561.563C100.653 561.875 100.512 562.167 100.317 562.422C100.123 562.677 99.8784 562.891 99.5991 563.049C99.3199 563.207 99.0114 563.307 98.6925 563.342C98.3736 563.377 98.0508 563.348 97.7437 563.254C97.4366 563.161 97.1515 563.007 96.9058 562.8C96.6601 562.594 96.4587 562.34 96.314 562.053C96.1693 561.767 96.0841 561.454 96.0637 561.133C95.2536 553.793 91.9099 546.965 86.609 541.826C86.3815 541.605 86.2009 541.34 86.0781 541.047C85.9552 540.754 85.8926 540.44 85.8939 540.122Z" fill="white"/>
<path d="M92.4544 580.259C92.4447 579.863 92.5386 579.472 92.7268 579.123C93.9881 576.677 94.9267 574.077 95.519 571.389C95.5734 571.073 95.6912 570.772 95.8652 570.502C96.0392 570.233 96.266 570.002 96.5316 569.823C96.7973 569.644 97.0965 569.521 97.4111 569.461C97.7257 569.401 98.0493 569.405 98.3622 569.473C98.6752 569.541 98.9711 569.672 99.2321 569.858C99.4931 570.044 99.7137 570.281 99.8808 570.554C100.048 570.828 100.158 571.132 100.204 571.45C100.25 571.767 100.232 572.09 100.15 572.4C99.4704 575.495 98.3906 578.488 96.9377 581.304C96.693 581.782 96.2933 582.164 95.8039 582.385C95.3145 582.607 94.7645 582.656 94.2437 582.524C93.723 582.392 93.2625 582.087 92.9374 581.659C92.6123 581.231 92.4421 580.705 92.4544 580.168L92.4544 580.259Z" fill="white"/>
<path d="M44.386 593.706C44.3815 593.268 44.5037 592.838 44.7378 592.468C44.8984 592.201 45.1107 591.968 45.3621 591.783C45.6136 591.599 45.8992 591.466 46.2025 591.393C46.5057 591.32 46.8203 591.308 47.1282 591.358C47.436 591.408 47.7308 591.519 47.9953 591.685C54.1923 595.474 61.5015 597.021 68.7013 596.066C75.901 595.111 82.555 591.712 87.5511 586.437C87.9991 586.067 88.5676 585.873 89.1487 585.894C89.7298 585.915 90.2829 586.149 90.7031 586.551C91.1232 586.953 91.3811 587.496 91.4278 588.076C91.4744 588.656 91.3066 589.233 90.9561 589.697C85.2098 595.759 77.5593 599.664 69.2819 600.762C61.0046 601.859 52.6014 600.082 45.4756 595.728C45.1363 595.512 44.858 595.213 44.6672 594.859C44.4765 594.505 44.3796 594.108 44.386 593.706Z" fill="white"/>
<path d="M6.31708 543.2C6.3203 542.909 6.37409 542.621 6.476 542.348C10.8636 530.897 18.5363 520.999 28.5296 513.898C28.7837 513.717 29.071 513.588 29.3751 513.518C29.6792 513.448 29.9942 513.438 30.3019 513.49C30.6097 513.541 30.9042 513.653 31.1688 513.819C31.4334 513.984 31.6628 514.201 31.8439 514.455C32.025 514.709 32.1543 514.997 32.2243 515.301C32.2944 515.605 32.3038 515.92 32.2522 516.228C32.2006 516.536 32.0888 516.831 31.9233 517.096C31.7578 517.36 31.5418 517.59 31.2877 517.771C22.0484 524.323 14.9583 533.468 10.914 544.052C10.7095 544.564 10.3339 544.99 9.85119 545.256C9.36846 545.522 8.80844 545.613 8.26642 545.512C7.72441 545.412 7.23392 545.127 6.8785 544.705C6.52308 544.284 6.32468 543.752 6.31708 543.2Z" fill="white"/>
<path d="M101.955 609.266C101.956 608.931 102.028 608.601 102.164 608.296C102.301 607.99 102.5 607.717 102.749 607.494C112.511 598.785 119.011 587.003 121.174 574.096C123.337 561.189 121.034 547.93 114.644 536.511C114.451 536.238 114.318 535.927 114.253 535.599C114.189 535.271 114.194 534.933 114.269 534.607C114.344 534.282 114.487 533.975 114.689 533.709C114.89 533.442 115.146 533.221 115.439 533.06C115.731 532.899 116.055 532.802 116.388 532.774C116.721 532.747 117.056 532.791 117.371 532.902C117.686 533.013 117.974 533.19 118.216 533.421C118.458 533.651 118.649 533.93 118.776 534.239C125.678 546.6 128.16 560.947 125.811 574.911C123.463 588.874 116.425 601.618 105.859 611.037C105.389 611.456 104.773 611.671 104.145 611.634C103.517 611.598 102.929 611.314 102.511 610.844C102.137 610.405 101.939 609.842 101.955 609.266Z" fill="white"/>
<path d="M40.9128 620.543C40.9121 620.257 40.962 619.972 41.0603 619.703C41.1711 619.411 41.3383 619.144 41.5524 618.917C41.7664 618.69 42.0231 618.507 42.3078 618.38C42.5924 618.252 42.8994 618.182 43.2113 618.173C43.5231 618.164 43.8335 618.217 44.1249 618.329C57.1457 623.26 71.5095 623.312 84.566 618.476C84.8581 618.367 85.1688 618.317 85.4804 618.328C85.7919 618.34 86.0982 618.412 86.3817 618.542C86.6652 618.672 86.9204 618.856 87.1328 619.084C87.3451 619.313 87.5104 619.581 87.6192 619.873C87.728 620.166 87.7782 620.476 87.7669 620.788C87.7556 621.1 87.6831 621.406 87.5535 621.69C87.4239 621.974 87.2396 622.229 87.0114 622.442C86.7831 622.654 86.5153 622.82 86.2231 622.928C72.0852 628.162 56.5333 628.105 42.4337 622.769C41.9854 622.595 41.6001 622.289 41.3287 621.892C41.0572 621.495 40.9123 621.025 40.9128 620.543Z" fill="white"/>
<path d="M23.91 610.583C23.9109 610.132 24.0401 609.691 24.2826 609.31C24.5252 608.93 24.8709 608.627 25.2794 608.436C25.6879 608.246 26.1422 608.175 26.5892 608.234C27.0362 608.292 27.4573 608.477 27.8032 608.766C30.5198 611.03 33.4376 613.041 36.5202 614.774C36.8293 614.901 37.1082 615.092 37.3385 615.334C37.5688 615.576 37.7454 615.864 37.8567 616.179C37.968 616.495 38.0115 616.83 37.9843 617.163C37.9571 617.496 37.8599 617.82 37.699 618.113C37.5381 618.406 37.3171 618.662 37.0506 618.863C36.7841 619.065 36.478 619.208 36.1524 619.283C35.8268 619.358 35.4891 619.363 35.1612 619.299C34.8334 619.234 34.5229 619.101 34.2502 618.908C30.9101 617.036 27.749 614.862 24.8067 612.412C24.5316 612.192 24.3085 611.914 24.1535 611.598C23.9985 611.282 23.9153 610.935 23.91 610.583Z" fill="white"/>
<path d="M23.91 640.282C23.9084 639.91 23.9981 639.544 24.1711 639.215C24.3107 638.935 24.5043 638.687 24.7406 638.483C24.977 638.279 25.2514 638.124 25.548 638.027C25.8446 637.929 26.1575 637.892 26.4686 637.917C26.7797 637.941 27.0829 638.027 27.3605 638.17C38.8787 644.029 51.6232 647.065 64.5441 647.029C70.1448 647.031 75.7314 646.464 81.2176 645.336C81.5286 645.257 81.8524 645.242 82.1695 645.291C82.4866 645.341 82.7903 645.454 83.0623 645.624C83.3344 645.795 83.569 646.019 83.7521 646.282C83.9351 646.546 84.0628 646.844 84.1274 647.159C84.1919 647.473 84.192 647.798 84.1277 648.112C84.0633 648.427 83.9359 648.725 83.753 648.989C83.5701 649.253 83.3356 649.477 83.0637 649.648C82.7918 649.818 82.4881 649.932 82.171 649.981C76.3703 651.168 70.4647 651.765 64.5441 651.765C50.877 651.81 37.3957 648.598 25.2153 642.395C24.8232 642.199 24.4934 641.897 24.2629 641.524C24.0323 641.151 23.9101 640.721 23.91 640.282Z" fill="white"/>
<path d="M-8.1999 611.855C-8.19925 611.347 -8.036 610.853 -7.73408 610.445C-7.43216 610.037 -7.00747 609.737 -6.5224 609.588C-6.03733 609.44 -5.51743 609.451 -5.03898 609.619C-4.56053 609.788 -4.14877 610.106 -3.86412 610.526C-0.173604 616.026 4.16716 621.06 9.06387 625.518C9.52896 625.943 9.80639 626.535 9.83512 627.164C9.86386 627.794 9.64156 628.409 9.21711 628.874C8.79266 629.339 8.20082 629.617 7.57182 629.646C6.94282 629.674 6.32817 629.452 5.86308 629.027C0.706003 624.289 -3.86655 618.951 -7.75725 613.127C-8.02388 612.754 -8.17755 612.313 -8.1999 611.855Z" fill="white"/>
<path d="M118.753 659.965C118.751 659.555 118.854 659.152 119.053 658.794C119.252 658.436 119.539 658.135 119.888 657.92C141.057 645.313 157.315 625.88 165.991 602.809C174.668 579.738 175.249 554.401 167.639 530.957C167.542 530.659 167.504 530.344 167.529 530.032C167.554 529.719 167.64 529.414 167.782 529.135C167.924 528.855 168.12 528.607 168.358 528.403C168.597 528.199 168.873 528.044 169.171 527.947C169.469 527.85 169.783 527.813 170.096 527.838C170.408 527.862 170.713 527.948 170.992 528.091C171.271 528.233 171.52 528.429 171.724 528.668C171.927 528.906 172.082 529.182 172.179 529.481C180.126 553.949 179.524 580.394 170.469 604.475C161.415 628.555 144.447 648.84 122.351 661.997C122.084 662.157 121.787 662.263 121.479 662.308C121.171 662.353 120.857 662.336 120.555 662.259C120.254 662.182 119.97 662.046 119.721 661.859C119.472 661.672 119.263 661.437 119.105 661.168C118.88 660.807 118.758 660.391 118.753 659.965Z" fill="white"/>
<path d="M55.3844 675.286L55.3844 675.138C55.3974 674.823 55.4729 674.514 55.6066 674.229C55.7402 673.943 55.9293 673.687 56.1628 673.476C56.3963 673.265 56.6695 673.102 56.9665 672.997C57.2635 672.893 57.5784 672.848 57.8928 672.866C60.0947 673.003 62.3307 673.071 64.5441 673.071C71.4728 673.073 78.386 672.415 85.1902 671.106C85.5021 671.031 85.826 671.019 86.1424 671.073C86.4588 671.126 86.7611 671.243 87.031 671.417C87.3008 671.591 87.5327 671.817 87.7125 672.083C87.8923 672.349 88.0163 672.649 88.077 672.964C88.1377 673.279 88.1338 673.604 88.0657 673.917C87.9975 674.231 87.8664 674.528 87.6804 674.789C87.4944 675.051 87.2572 675.272 86.9833 675.439C86.7094 675.607 86.4044 675.717 86.0869 675.762C78.9799 677.131 71.7588 677.82 64.5213 677.818C62.2513 677.818 59.8904 677.739 57.5863 677.602C56.9959 677.563 56.4419 677.302 56.0341 676.873C55.6263 676.444 55.3944 675.878 55.3844 675.286Z" fill="white"/>
<path d="M-48.6409 564.609C-48.6409 563.708 -48.6409 562.81 -48.6409 561.917C-48.6143 561.295 -48.3449 560.709 -47.8906 560.284C-47.4363 559.859 -46.8335 559.63 -46.2119 559.646C-45.5947 559.683 -45.0154 559.956 -44.5931 560.408C-44.1709 560.86 -43.9378 561.457 -43.9419 562.076C-43.9419 562.928 -43.9419 563.791 -43.9419 564.654C-43.8974 588.429 -36.064 611.535 -21.6418 630.429C-7.21961 649.324 12.9959 662.966 35.9073 669.266C36.4424 669.487 36.8783 669.896 37.133 670.416C37.3877 670.936 37.4435 671.531 37.29 672.09C37.1366 672.648 36.7844 673.131 36.2997 673.448C35.8151 673.765 35.2315 673.893 34.6588 673.809C10.7532 667.222 -10.3361 652.976 -25.3805 633.254C-40.4249 613.532 -48.5953 589.419 -48.6409 564.609Z" fill="white"/>
<path d="M152.043 662.747C152.044 662.418 152.114 662.093 152.246 661.792C152.379 661.491 152.573 661.22 152.815 660.998C175.074 640.58 189.587 613.085 193.892 583.178C193.936 582.869 194.04 582.572 194.199 582.304C194.357 582.035 194.567 581.801 194.817 581.614C195.066 581.426 195.35 581.29 195.652 581.213C195.953 581.135 196.268 581.118 196.576 581.162C196.885 581.206 197.182 581.31 197.45 581.469C197.718 581.628 197.952 581.838 198.139 582.087C198.327 582.337 198.463 582.621 198.54 582.923C198.618 583.225 198.635 583.539 198.591 583.848C194.129 614.839 179.086 643.331 156.016 664.485C155.678 664.8 155.256 665.01 154.8 665.087C154.344 665.165 153.876 665.107 153.453 664.921C153.03 664.735 152.671 664.428 152.421 664.04C152.17 663.651 152.039 663.198 152.043 662.736L152.043 662.747Z" fill="white"/>
<path d="M104.259 690.925C104.253 690.422 104.407 689.932 104.699 689.523C104.991 689.115 105.405 688.81 105.882 688.653C115.568 685.416 124.84 681.052 133.508 675.649C134.043 675.316 134.687 675.209 135.3 675.352C135.913 675.495 136.445 675.875 136.777 676.41C137.11 676.945 137.217 677.59 137.074 678.203C136.931 678.816 136.551 679.348 136.017 679.681C127.032 685.278 117.42 689.799 107.38 693.151C106.782 693.349 106.131 693.302 105.567 693.022C105.004 692.741 104.574 692.248 104.372 691.651C104.298 691.416 104.26 691.171 104.259 690.925Z" fill="white"/>
<path d="M-8.86954 677.216C-8.86836 676.769 -8.73833 676.331 -8.495 675.956C-8.32961 675.691 -8.11361 675.463 -7.85945 675.282C-7.6053 675.102 -7.318 674.974 -7.01414 674.905C-6.71028 674.837 -6.39586 674.829 -6.08898 674.883C-5.78211 674.936 -5.48885 675.05 -5.22611 675.217C19.8645 691.024 49.5687 697.854 79.0383 694.593C79.3484 694.559 79.6621 694.586 79.9617 694.673C80.2612 694.76 80.5407 694.905 80.7842 695.1C81.2759 695.494 81.591 696.068 81.6603 696.694C81.7295 697.321 81.5472 697.949 81.1534 698.441C80.7596 698.933 80.1866 699.248 79.5604 699.318C74.5735 699.863 69.5607 700.136 64.544 700.135C38.9495 700.169 13.8734 692.917 -7.75723 679.227C-8.09682 679.012 -8.37682 678.716 -8.57127 678.364C-8.76572 678.013 -8.86832 677.618 -8.86954 677.216Z" fill="white"/>
<path d="M17.2702 719.636C17.2668 719.413 17.2974 719.191 17.361 718.977C17.4472 718.677 17.5916 718.397 17.7861 718.153C17.9805 717.909 18.2212 717.706 18.4942 717.555C18.7673 717.404 19.0674 717.309 19.3774 717.274C19.6873 717.239 20.0011 717.266 20.3007 717.353C32.761 720.952 45.6138 723.015 58.5738 723.497C58.8849 723.506 59.1911 723.577 59.4745 723.705C59.7579 723.834 60.0127 724.018 60.2242 724.246C60.4356 724.475 60.5993 724.743 60.7057 725.036C60.8122 725.328 60.8591 725.639 60.8439 725.95C60.8173 726.576 60.5447 727.166 60.0855 727.591C59.6263 728.017 59.0177 728.243 58.3922 728.222C45.0405 727.733 31.7986 725.613 18.9614 721.907C18.4729 721.761 18.0447 721.461 17.7401 721.052C17.4354 720.642 17.2707 720.146 17.2702 719.636Z" fill="white"/>
<path d="M-99.0929 564.609C-99.0671 532.961 -89.8911 501.996 -72.6717 475.45C-55.4523 448.904 -30.925 427.909 -2.04807 414.999C-1.4731 414.743 -0.820026 414.726 -0.232535 414.952C0.354956 415.178 0.828747 415.628 1.08462 416.203C1.34049 416.778 1.3575 417.432 1.13187 418.02C0.906237 418.607 0.456457 419.082 -0.118506 419.338C-28.1547 431.875 -51.9669 452.262 -68.6828 478.039C-85.3988 503.815 -94.3045 533.881 -94.3258 564.609C-94.3245 572.757 -93.706 580.893 -92.4757 588.947C-92.4175 589.26 -92.4228 589.582 -92.4912 589.892C-92.5597 590.203 -92.6899 590.497 -92.8741 590.756C-93.0583 591.016 -93.2927 591.236 -93.5635 591.403C-93.8342 591.57 -94.1358 591.68 -94.4502 591.728C-94.7646 591.776 -95.0854 591.76 -95.3936 591.682C-95.7018 591.603 -95.991 591.464 -96.2442 591.271C-96.4973 591.078 -96.7091 590.837 -96.867 590.56C-97.0249 590.284 -97.1257 589.979 -97.1634 589.663C-98.4433 581.373 -99.0884 572.997 -99.0929 564.609Z" fill="white"/>
<path d="M55.2936 777.444L55.2936 777.365C55.3202 776.741 55.5912 776.153 56.0479 775.728C56.5046 775.303 57.1103 775.075 57.7339 775.093C60.0039 775.162 62.274 775.207 64.544 775.207C110.055 775.342 154.362 760.585 190.714 733.185C191.218 732.83 191.84 732.685 192.449 732.781C193.058 732.877 193.606 733.207 193.976 733.7C194.346 734.193 194.51 734.811 194.433 735.423C194.356 736.035 194.044 736.593 193.563 736.978C156.388 764.99 111.081 780.074 64.544 779.932C62.274 779.932 59.8904 779.932 57.5863 779.818C56.971 779.797 56.3879 779.538 55.9601 779.095C55.5322 778.652 55.2932 778.06 55.2936 777.444Z" fill="white"/>
<path d="M218.374 745.042C218.372 744.701 218.444 744.364 218.585 744.055C218.726 743.745 218.933 743.469 219.192 743.248C244.785 721.06 265.312 693.625 279.381 662.803C293.45 631.981 300.731 598.493 300.732 564.609C300.845 527.453 292.106 490.805 275.239 457.703C274.953 457.141 274.902 456.488 275.097 455.889C275.292 455.289 275.716 454.792 276.278 454.505C276.839 454.219 277.491 454.168 278.09 454.363C278.69 454.558 279.187 454.983 279.473 455.545C296.671 489.306 305.585 526.681 305.476 564.575C305.48 599.138 298.054 633.299 283.703 664.738C269.352 696.178 248.411 724.162 222.302 746.791C221.959 747.089 221.537 747.282 221.088 747.347C220.639 747.413 220.18 747.348 219.766 747.16C219.353 746.972 219.002 746.67 218.755 746.288C218.508 745.907 218.376 745.462 218.374 745.008L218.374 745.042Z" fill="white"/>
<path d="M23.91 800.273C23.899 800.144 23.899 800.015 23.91 799.886C23.9583 799.579 24.0669 799.284 24.2296 799.018C24.3923 798.753 24.6058 798.522 24.8579 798.339C25.1101 798.157 25.3958 798.026 25.6987 797.954C26.0015 797.882 26.3156 797.871 26.6227 797.922C79.9098 806.512 134.531 796.656 181.463 769.983C181.734 769.819 182.035 769.711 182.348 769.666C182.661 769.62 182.98 769.638 183.287 769.718C183.593 769.798 183.88 769.938 184.131 770.131C184.383 770.323 184.593 770.564 184.749 770.839C184.906 771.114 185.006 771.418 185.044 771.732C185.082 772.047 185.056 772.365 184.969 772.67C184.882 772.974 184.734 773.258 184.536 773.504C184.337 773.751 184.091 773.955 183.813 774.105C147.469 794.811 106.366 805.696 64.544 805.69C51.6191 805.69 38.7148 804.661 25.9531 802.612C25.3893 802.531 24.8734 802.25 24.4986 801.821C24.1238 801.392 23.915 800.842 23.91 800.273Z" fill="white"/>
<path d="M274.694 456.056C274.65 455.496 274.805 454.938 275.133 454.481C275.46 454.025 275.939 453.7 276.484 453.564C277.029 453.427 277.604 453.489 278.108 453.737C278.611 453.986 279.011 454.405 279.235 454.92L279.53 455.511C279.684 455.79 279.78 456.098 279.813 456.415C279.846 456.733 279.814 457.054 279.72 457.359C279.626 457.664 279.471 457.947 279.265 458.191C279.059 458.435 278.806 458.634 278.521 458.778C278.236 458.922 277.925 459.007 277.607 459.027C277.288 459.048 276.969 459.004 276.668 458.898C276.367 458.793 276.09 458.627 275.854 458.412C275.619 458.197 275.429 457.936 275.296 457.646L275.012 457.089C274.825 456.775 274.716 456.421 274.694 456.056Z" fill="white"/>
<path d="M308.552 710.152C308.552 709.729 308.665 709.313 308.881 708.949C334.695 665.218 348.298 615.353 348.267 564.563C348.251 551 347.276 537.455 345.35 524.029C345.261 523.406 345.423 522.772 345.801 522.269C346.179 521.765 346.741 521.432 347.365 521.343C347.988 521.254 348.621 521.417 349.124 521.795C349.627 522.173 349.96 522.736 350.049 523.359C351.994 537.023 352.968 550.807 352.966 564.609C353.01 616.244 339.197 666.945 312.968 711.413C312.644 711.954 312.12 712.345 311.51 712.5C310.899 712.655 310.252 712.563 309.71 712.242C309.348 712.029 309.05 711.723 308.846 711.355C308.642 710.988 308.541 710.572 308.552 710.152Z" fill="white"/>
<path d="M228.521 797.536C228.523 797.158 228.615 796.785 228.788 796.45C228.962 796.114 229.213 795.824 229.52 795.605C247.645 782.615 264.189 767.547 278.815 750.709C279.013 750.457 279.261 750.247 279.543 750.093C279.826 749.939 280.136 749.844 280.456 749.814C280.776 749.784 281.099 749.819 281.405 749.917C281.71 750.016 281.993 750.175 282.236 750.386C282.478 750.597 282.675 750.855 282.815 751.145C282.955 751.435 283.034 751.749 283.049 752.071C283.063 752.392 283.012 752.713 282.899 753.014C282.786 753.315 282.612 753.589 282.39 753.821C267.523 770.94 250.705 786.26 232.278 799.466C231.766 799.832 231.13 799.979 230.509 799.877C229.888 799.775 229.333 799.431 228.964 798.921C228.678 798.516 228.523 798.032 228.521 797.536Z" fill="white"/>
<path d="M174.086 828.143C174.088 827.679 174.225 827.225 174.481 826.838C174.737 826.45 175.101 826.146 175.527 825.963C194.577 817.843 212.682 807.663 229.52 795.605C230.033 795.254 230.662 795.118 231.273 795.227C231.884 795.335 232.428 795.679 232.789 796.184C233.15 796.689 233.299 797.316 233.203 797.929C233.108 798.543 232.776 799.095 232.278 799.466C215.158 811.732 196.743 822.079 177.366 830.324C177.08 830.447 176.772 830.513 176.461 830.517C176.149 830.521 175.84 830.463 175.551 830.347C175.262 830.231 174.998 830.059 174.776 829.84C174.554 829.622 174.377 829.362 174.256 829.075C174.139 828.778 174.081 828.462 174.086 828.143Z" fill="white"/>
<path d="M-131.952 813.629C-131.956 813.183 -131.834 812.746 -131.6 812.366C-131.366 811.987 -131.029 811.682 -130.629 811.486C-130.229 811.29 -129.782 811.211 -129.339 811.259C-128.897 811.306 -128.476 811.478 -128.127 811.755C-90.3283 841.254 -46.2789 861.698 0.641966 871.517C0.955973 871.571 1.25594 871.687 1.52396 871.86C1.79198 872.032 2.02257 872.256 2.20197 872.52C2.38137 872.783 2.5059 873.08 2.56813 873.393C2.63037 873.705 2.62904 874.027 2.56422 874.34C2.4994 874.652 2.37242 874.947 2.19085 875.209C2.00928 875.471 1.77684 875.694 1.5074 875.864C1.23797 876.034 0.937044 876.148 0.622603 876.199C0.308162 876.251 -0.0133526 876.238 -0.32278 876.162C-47.9546 866.191 -92.6715 845.437 -131.044 815.491C-131.328 815.271 -131.558 814.989 -131.715 814.666C-131.873 814.343 -131.954 813.988 -131.952 813.629Z" fill="white"/>
<path d="M190.986 857.229L190.986 856.627C211.093 847.89 230.241 837.092 248.123 824.407C249.403 825.348 250.951 825.853 252.539 825.849C254.034 825.849 255.495 825.405 256.738 824.574C257.982 823.743 258.95 822.562 259.523 821.18C260.095 819.798 260.244 818.277 259.953 816.81C259.661 815.342 258.941 813.994 257.884 812.937C256.827 811.879 255.48 811.158 254.013 810.867C252.547 810.575 251.027 810.724 249.646 811.297C248.265 811.869 247.084 812.839 246.253 814.083C245.423 815.327 244.979 816.789 244.979 818.285C244.982 819.056 245.101 819.821 245.331 820.557C227.746 833.031 208.914 843.643 189.136 852.221C187.977 850.886 186.388 850.001 184.644 849.719C182.9 849.436 181.112 849.775 179.592 850.676C178.072 851.577 176.916 852.982 176.325 854.648C175.734 856.314 175.746 858.135 176.359 859.793C176.971 861.451 178.145 862.841 179.677 863.722C181.209 864.603 183 864.919 184.741 864.614C186.481 864.309 188.059 863.403 189.2 862.053C190.341 860.704 190.973 858.997 190.986 857.229ZM252.516 821.159C251.754 821.159 251.024 820.856 250.485 820.317C249.947 819.778 249.644 819.047 249.644 818.285C249.643 817.959 249.7 817.636 249.815 817.331C249.99 816.842 250.296 816.41 250.698 816.081C251.101 815.752 251.585 815.539 252.099 815.465C252.613 815.391 253.138 815.459 253.617 815.661C254.096 815.862 254.511 816.191 254.817 816.611C255.123 817.031 255.309 817.526 255.356 818.044C255.402 818.562 255.306 819.082 255.079 819.55C254.852 820.017 254.502 820.414 254.066 820.698C253.63 820.981 253.126 821.14 252.607 821.159L252.516 821.159ZM180.555 857.229C180.555 856.467 180.858 855.736 181.396 855.197C181.935 854.659 182.665 854.356 183.427 854.356C183.619 854.339 183.813 854.339 184.006 854.356C184.648 854.496 185.224 854.851 185.637 855.364C186.05 855.876 186.275 856.514 186.276 857.173C186.277 857.729 186.115 858.274 185.81 858.74C185.473 859.259 184.976 859.655 184.396 859.868C183.815 860.082 183.18 860.103 182.587 859.926C181.994 859.75 181.473 859.387 181.103 858.891C180.733 858.394 180.533 857.792 180.533 857.173L180.555 857.229Z" fill="white"/>
<path d="M278.678 413.829C278.855 413.479 279.116 413.178 279.439 412.955C279.687 412.78 279.969 412.66 280.267 412.603C279.61 412.812 279.048 413.247 278.678 413.829Z" fill="white"/>
<path d="M86.8814 726.836C95.7707 725.617 104.544 723.664 113.112 720.999C114.217 722.398 115.781 723.36 117.528 723.714C119.275 724.069 121.09 723.792 122.653 722.934C124.215 722.075 125.423 720.691 126.061 719.026C126.7 717.361 126.728 715.524 126.142 713.84C125.555 712.156 124.39 710.735 122.855 709.829C121.32 708.922 119.514 708.59 117.757 708.89C116.001 709.19 114.407 710.103 113.259 711.467C112.112 712.832 111.484 714.559 111.489 716.342L111.489 716.547C103.262 719.082 94.8425 720.943 86.3139 722.112C85.5539 720.487 84.2406 719.185 82.6091 718.441C80.9776 717.696 79.1345 717.557 77.4099 718.049C75.6853 718.54 74.192 719.63 73.1972 721.123C72.2025 722.616 71.7714 724.414 71.9812 726.196C72.191 727.978 73.0279 729.627 74.342 730.848C75.6562 732.068 77.3617 732.781 79.1532 732.858C80.9447 732.935 82.7051 732.371 84.1191 731.268C85.533 730.165 86.5082 728.594 86.87 726.836L86.8814 726.836ZM116.176 716.342C116.176 715.826 116.317 715.319 116.585 714.877C116.84 714.442 117.205 714.082 117.643 713.833C118.081 713.584 118.576 713.454 119.08 713.457C119.584 713.461 120.078 713.596 120.513 713.851C120.948 714.106 121.308 714.471 121.557 714.909C121.807 715.347 121.936 715.843 121.934 716.347C121.931 716.851 121.795 717.346 121.541 717.781C121.287 718.216 120.923 718.577 120.485 718.827C120.047 719.076 119.552 719.207 119.048 719.204C118.912 719.204 118.776 719.204 118.651 719.204C117.962 719.108 117.331 718.765 116.876 718.238C116.421 717.712 116.172 717.038 116.176 716.342ZM76.6207 725.303C76.6207 724.544 76.9221 723.816 77.4585 723.279C77.9949 722.743 78.7224 722.441 79.481 722.441C79.948 722.437 80.4086 722.55 80.8203 722.77C81.2358 722.989 81.5912 723.306 81.8552 723.694C82.1192 724.082 82.2837 724.53 82.3342 724.996C82.3847 725.463 82.3196 725.935 82.1446 726.371C81.9697 726.807 81.6903 727.193 81.3311 727.495C80.8167 727.938 80.1596 728.18 79.481 728.176C79.1044 728.176 78.7316 728.102 78.3838 727.957C78.036 727.813 77.7202 727.601 77.4545 727.334C77.1887 727.067 76.9783 726.75 76.8352 726.402C76.6921 726.053 76.6192 725.68 76.6207 725.303Z" fill="white"/>
<path d="M205.741 654.377C205.745 652.765 205.227 651.195 204.266 649.902C208.268 643.325 211.796 636.471 214.822 629.391C214.871 629.396 214.92 629.396 214.969 629.391C216.762 629.397 218.498 628.766 219.87 627.61C221.241 626.455 222.158 624.85 222.458 623.082C222.757 621.313 222.42 619.496 221.506 617.953C220.592 616.41 219.161 615.242 217.466 614.656C215.772 614.07 213.925 614.104 212.254 614.754C210.583 615.403 209.196 616.624 208.341 618.2C207.485 619.776 207.216 621.605 207.582 623.361C207.948 625.117 208.925 626.686 210.338 627.789C207.446 634.451 204.094 640.902 200.305 647.097C199.595 646.877 198.857 646.766 198.114 646.767C196.619 646.767 195.157 647.211 193.913 648.043C192.67 648.875 191.701 650.057 191.129 651.439C190.557 652.822 190.408 654.344 190.701 655.811C190.993 657.279 191.715 658.626 192.773 659.684C193.831 660.741 195.179 661.461 196.646 661.751C198.113 662.042 199.634 661.891 201.015 661.316C202.396 660.742 203.576 659.771 204.405 658.525C205.234 657.28 205.676 655.817 205.673 654.32L205.741 654.377ZM212.166 621.838C212.166 621.373 212.278 620.916 212.494 620.504C212.709 620.092 213.021 619.739 213.403 619.475C213.785 619.21 214.226 619.042 214.687 618.986C215.148 618.929 215.616 618.985 216.05 619.149C216.485 619.313 216.873 619.58 217.182 619.927C217.491 620.274 217.711 620.691 217.824 621.142C217.936 621.593 217.937 622.064 217.828 622.516C217.718 622.967 217.501 623.386 217.194 623.735C216.926 624.043 216.594 624.29 216.222 624.459C215.85 624.628 215.446 624.714 215.037 624.712C214.477 624.709 213.93 624.544 213.462 624.235C212.994 623.926 212.627 623.488 212.404 622.974C212.235 622.619 212.146 622.231 212.143 621.838L212.166 621.838ZM195.311 654.377C195.311 653.719 195.536 653.08 195.949 652.568C196.362 652.056 196.938 651.7 197.581 651.56C197.773 651.542 197.967 651.542 198.159 651.56C198.921 651.56 199.651 651.863 200.19 652.402C200.729 652.941 201.031 653.671 201.031 654.434C201.028 655.195 200.725 655.924 200.187 656.462C199.649 657 198.92 657.304 198.159 657.307C197.778 657.307 197.399 657.231 197.047 657.083C196.695 656.935 196.376 656.718 196.109 656.445C195.841 656.172 195.631 655.849 195.49 655.494C195.349 655.139 195.28 654.759 195.288 654.377L195.311 654.377Z" fill="white"/>
<path d="M256.682 597.931C256.679 596.541 256.294 595.178 255.57 593.992C254.845 592.807 253.808 591.843 252.573 591.208C254.005 580.915 254.604 570.523 254.366 560.134C256.027 559.457 257.393 558.21 258.219 556.617C259.045 555.024 259.277 553.189 258.874 551.44C258.471 549.691 257.458 548.144 256.018 547.074C254.577 546.004 252.803 545.483 251.014 545.603C249.224 545.724 247.536 546.478 246.251 547.73C244.967 548.983 244.17 550.652 244.004 552.439C243.838 554.226 244.313 556.014 245.345 557.482C246.376 558.951 247.896 560.003 249.633 560.452C249.852 570.492 249.268 580.534 247.885 590.481C246.462 590.717 245.136 591.356 244.064 592.322C242.992 593.288 242.218 594.541 241.835 595.932C241.451 597.324 241.474 598.796 241.9 600.176C242.326 601.555 243.137 602.783 244.238 603.716C245.34 604.649 246.684 605.247 248.114 605.439C249.544 605.631 250.999 605.411 252.307 604.802C253.616 604.194 254.723 603.224 255.498 602.006C256.273 600.789 256.684 599.375 256.682 597.931ZM248.657 553.138C248.657 552.569 248.826 552.013 249.142 551.54C249.458 551.068 249.907 550.699 250.432 550.482C250.958 550.265 251.536 550.209 252.093 550.32C252.65 550.432 253.162 550.707 253.563 551.11C253.964 551.513 254.237 552.026 254.346 552.584C254.456 553.142 254.397 553.721 254.178 554.245C253.959 554.77 253.589 555.218 253.116 555.532C252.642 555.847 252.086 556.014 251.517 556.011C250.758 556.008 250.03 555.704 249.494 555.166C248.958 554.627 248.657 553.898 248.657 553.138ZM246.262 597.931C246.262 597.363 246.43 596.807 246.746 596.335C247.061 595.862 247.51 595.494 248.035 595.276C248.559 595.059 249.137 595.002 249.694 595.113C250.251 595.224 250.763 595.497 251.164 595.899C251.566 596.301 251.839 596.813 251.95 597.37C252.061 597.928 252.004 598.506 251.787 599.031C251.569 599.556 251.201 600.004 250.729 600.32C250.257 600.636 249.702 600.804 249.134 600.804C248.372 600.804 247.642 600.502 247.103 599.963C246.565 599.424 246.262 598.693 246.262 597.931Z" fill="white"/>
<path d="M267.033 741.169C267.037 739.83 266.676 738.514 265.989 737.365C303.272 693.834 325.473 639.397 329.272 582.194C333.072 524.99 318.265 468.092 287.066 420.008C288.119 418.663 288.685 417 288.671 415.292C288.658 413.583 288.066 411.93 286.992 410.602C285.919 409.273 284.427 408.349 282.76 407.978C281.093 407.608 279.35 407.814 277.816 408.562C276.281 409.311 275.045 410.558 274.311 412.1C273.576 413.643 273.385 415.388 273.77 417.053C274.154 418.717 275.092 420.202 276.428 421.265C277.765 422.327 279.423 422.905 281.13 422.904C281.798 422.906 282.463 422.814 283.105 422.631C313.729 469.842 328.265 525.701 324.542 581.861C320.819 638.021 299.036 691.469 262.447 734.219C260.956 733.568 259.295 733.417 257.71 733.787C256.126 734.157 254.703 735.029 253.653 736.272C252.604 737.516 251.983 739.065 251.883 740.69C251.784 742.315 252.211 743.929 253.101 745.291C253.991 746.654 255.296 747.693 256.824 748.254C258.351 748.815 260.018 748.868 261.578 748.405C263.138 747.942 264.507 746.988 265.481 745.684C266.456 744.38 266.984 742.797 266.988 741.169L267.033 741.169ZM280.018 417.997C279.498 417.777 279.054 417.409 278.741 416.939C278.428 416.468 278.26 415.916 278.258 415.351C278.253 414.822 278.399 414.302 278.678 413.852C279.048 413.269 279.61 412.835 280.267 412.625C280.267 412.625 280.392 412.625 280.449 412.625C280.668 412.57 280.893 412.544 281.119 412.546C281.88 412.546 282.611 412.849 283.149 413.388C283.688 413.926 283.99 414.657 283.99 415.419L283.99 415.476C283.973 416.227 283.663 416.942 283.126 417.468C282.59 417.994 281.87 418.29 281.119 418.293C280.735 418.272 280.36 418.171 280.018 417.997ZM256.602 741.169C256.602 740.407 256.905 739.676 257.443 739.137C257.982 738.599 258.712 738.296 259.474 738.296C260.235 738.296 260.966 738.599 261.504 739.137C262.043 739.676 262.345 740.407 262.345 741.169L262.345 741.533C262.205 742.211 261.825 742.815 261.274 743.235C260.724 743.655 260.041 743.862 259.35 743.817C258.659 743.773 258.008 743.481 257.516 742.994C257.023 742.508 256.723 741.86 256.67 741.169L256.602 741.169Z" fill="white"/>
<path d="M77.4266 827.7C77.459 825.882 76.8348 824.113 75.6685 822.719C74.5022 821.324 72.8723 820.398 71.078 820.109C69.2837 819.82 67.4456 820.189 65.9012 821.148C64.3569 822.106 63.21 823.59 62.6713 825.327C6.12274 825.105 -48.7882 806.307 -93.6221 771.823C-136.101 739.221 -167.606 694.406 -183.914 643.383C-182.447 642.35 -181.396 640.828 -180.949 639.09C-180.502 637.352 -180.688 635.511 -181.474 633.898C-182.26 632.284 -183.594 631.004 -185.238 630.286C-186.881 629.567 -188.727 629.458 -190.444 629.978C-192.161 630.498 -193.636 631.612 -194.607 633.122C-195.577 634.631 -195.978 636.437 -195.739 638.216C-195.499 639.994 -194.634 641.629 -193.3 642.828C-191.965 644.027 -190.247 644.711 -188.454 644.757C-171.859 696.73 -139.779 742.383 -96.5164 775.593C-50.8507 810.732 5.08742 829.886 62.694 830.108C63.2325 831.844 64.3785 833.327 65.9216 834.285C67.4647 835.244 69.3015 835.613 71.0949 835.326C72.8883 835.039 74.5181 834.115 75.6853 832.722C76.8525 831.33 77.4788 829.563 77.4493 827.746L77.4266 827.7ZM-191.121 637.216C-191.185 636.806 -191.159 636.388 -191.045 635.989C-190.932 635.59 -190.734 635.22 -190.464 634.905C-190.195 634.59 -189.86 634.338 -189.484 634.164C-189.107 633.991 -188.698 633.901 -188.283 633.901C-187.869 633.901 -187.46 633.991 -187.083 634.164C-186.707 634.338 -186.372 634.59 -186.103 634.905C-185.833 635.22 -185.635 635.59 -185.521 635.989C-185.408 636.388 -185.382 636.806 -185.446 637.216C-185.444 637.517 -185.49 637.816 -185.582 638.102C-185.771 638.678 -186.138 639.179 -186.629 639.534C-187.12 639.889 -187.711 640.079 -188.317 640.078C-188.99 640.08 -189.642 639.842 -190.156 639.408C-190.465 639.133 -190.711 638.796 -190.878 638.417C-191.044 638.039 -191.127 637.629 -191.121 637.216ZM68.2329 830.051C67.6747 829.658 67.2756 829.077 67.1078 828.415C66.94 827.753 67.0146 827.052 67.3181 826.44C67.6215 825.828 68.1339 825.344 68.7624 825.077C69.391 824.81 70.0944 824.777 70.7453 824.984C71.3962 825.19 71.9518 825.623 72.3115 826.204C72.6713 826.785 72.8115 827.475 72.7068 828.151C72.6021 828.826 72.2595 829.441 71.7408 829.886C71.2221 830.33 70.5616 830.574 69.8787 830.574C69.2891 830.575 68.7139 830.392 68.2329 830.051Z" fill="white"/>
<path d="M22.8545 598.556C22.8515 596.55 22.0541 594.628 20.6371 593.21C19.2202 591.793 17.2992 590.995 15.2952 590.992C14.741 590.992 14.1888 591.057 13.6495 591.185C9.51136 583.305 7.27248 574.565 7.11169 565.665C8.85784 565.264 10.4046 564.255 11.4753 562.817C12.5459 561.38 13.0708 559.609 12.956 557.82C12.8412 556.031 12.0942 554.341 10.8486 553.052C9.603 551.764 7.93998 550.961 6.15692 550.787C4.37386 550.613 2.58703 551.079 1.11591 552.102C-0.355215 553.125 -1.41471 554.638 -1.8731 556.371C-2.3315 558.104 -2.15892 559.944 -1.38623 561.561C-0.613537 563.178 0.708864 564.468 2.34456 565.199C2.42919 575.102 4.88931 584.839 9.51794 593.592C8.72911 594.518 8.1754 595.621 7.9039 596.806C7.6324 597.992 7.65115 599.226 7.95856 600.403C8.26597 601.58 8.85292 602.665 9.66952 603.566C10.4861 604.467 11.5082 605.158 12.6488 605.579C13.7893 606 15.0146 606.139 16.2205 605.984C17.4263 605.83 18.5771 605.386 19.5747 604.691C20.5723 603.996 21.3874 603.07 21.9505 601.992C22.5136 600.914 22.8082 599.715 22.8091 598.499L22.8545 598.556ZM2.57158 558.294C2.57158 557.725 2.7403 557.169 3.05634 556.696C3.37238 556.224 3.82155 555.855 4.34693 555.638C4.87231 555.421 5.45028 555.365 6.00763 555.477C6.56498 555.588 7.0766 555.863 7.47775 556.266C7.8789 556.669 8.15151 557.182 8.26103 557.74C8.37054 558.299 8.31205 558.877 8.09296 559.401C7.87387 559.926 7.50405 560.374 7.03033 560.689C6.5566 561.003 6.00027 561.17 5.43184 561.167C5.05526 561.167 4.6824 561.093 4.33463 560.948C3.98687 560.804 3.67107 560.592 3.40532 560.325C3.13957 560.058 2.9291 559.741 2.78603 559.393C2.64295 559.044 2.57009 558.671 2.57158 558.294ZM12.4009 598.556C12.4009 597.987 12.5696 597.431 12.8857 596.958C13.2017 596.485 13.6509 596.117 14.1762 595.9C14.7016 595.683 15.2796 595.627 15.8369 595.738C16.3943 595.85 16.9059 596.125 17.3071 596.528C17.7082 596.931 17.9809 597.444 18.0904 598.002C18.1999 598.56 18.1414 599.138 17.9223 599.663C17.7032 600.188 17.3334 600.636 16.8597 600.95C16.3859 601.265 15.8296 601.431 15.2612 601.429C14.5075 601.417 13.7887 601.109 13.2599 600.572C12.7312 600.034 12.4349 599.31 12.435 598.556L12.4009 598.556Z" fill="white"/>
<path d="M106.688 642.156C106.688 641.749 106.654 641.343 106.585 640.941C120.226 633.405 131.6 622.351 139.524 608.927C147.448 595.503 151.634 580.2 151.646 564.609C151.646 561.838 151.51 559.07 151.237 556.307C152.887 555.594 154.229 554.316 155.023 552.703C155.816 551.09 156.01 549.247 155.568 547.504C155.127 545.762 154.08 544.233 152.614 543.193C151.149 542.153 149.361 541.669 147.571 541.828C145.781 541.987 144.107 542.779 142.848 544.062C141.589 545.345 140.827 547.034 140.7 548.828C140.573 550.621 141.089 552.401 142.154 553.849C143.22 555.296 144.766 556.316 146.516 556.727C146.781 559.354 146.909 561.981 146.902 564.609C146.892 579.334 142.944 593.789 135.467 606.472C127.991 619.156 117.258 629.606 104.383 636.739C103.138 635.52 101.51 634.77 99.775 634.615C98.04 634.461 96.3049 634.911 94.8641 635.891C93.4232 636.87 92.3653 638.318 91.8697 639.989C91.374 641.66 91.4712 643.451 92.1448 645.059C92.8183 646.666 94.0268 647.991 95.5651 648.808C97.1035 649.626 98.8771 649.886 100.585 649.544C102.293 649.203 103.831 648.28 104.937 646.934C106.043 645.587 106.649 643.899 106.654 642.156L106.688 642.156ZM145.369 549.379C145.367 548.81 145.534 548.253 145.848 547.779C146.162 547.305 146.61 546.935 147.134 546.716C147.659 546.497 148.236 546.438 148.794 546.548C149.352 546.657 149.865 546.93 150.267 547.331C150.67 547.733 150.945 548.245 151.057 548.802C151.168 549.36 151.112 549.939 150.895 550.464C150.678 550.99 150.31 551.439 149.838 551.756C149.365 552.072 148.809 552.241 148.241 552.241C147.481 552.241 146.753 551.939 146.214 551.403C145.676 550.867 145.372 550.139 145.369 549.379ZM96.268 642.156C96.268 641.588 96.4364 641.033 96.752 640.56C97.0675 640.087 97.516 639.719 98.0407 639.502C98.5655 639.284 99.1428 639.227 99.6999 639.338C100.257 639.449 100.769 639.723 101.17 640.125C101.572 640.526 101.845 641.038 101.956 641.596C102.067 642.153 102.01 642.731 101.793 643.256C101.575 643.781 101.207 644.23 100.735 644.545C100.263 644.861 99.7076 645.03 99.1396 645.03C98.7625 645.03 98.3891 644.955 98.0407 644.811C97.6923 644.667 97.3758 644.455 97.1091 644.188C96.8424 643.921 96.6309 643.605 96.4866 643.256C96.3423 642.907 96.268 642.534 96.268 642.156Z" fill="white"/>
<path d="M135.79 820.386C152.714 815.677 169.125 809.285 184.778 801.306C186.01 802.544 187.634 803.315 189.372 803.489C191.11 803.663 192.854 803.229 194.308 802.26C195.761 801.291 196.834 799.848 197.343 798.176C197.853 796.505 197.767 794.708 197.1 793.093C196.434 791.477 195.228 790.143 193.689 789.318C192.15 788.492 190.372 788.226 188.659 788.565C186.945 788.904 185.403 789.828 184.293 791.178C183.184 792.527 182.577 794.22 182.576 795.968C182.568 796.349 182.598 796.729 182.666 797.104C167.298 804.916 151.187 811.171 134.575 815.775C133.594 814.27 132.109 813.165 130.387 812.657C128.664 812.149 126.818 812.272 125.178 813.004C123.538 813.736 122.213 815.029 121.44 816.651C120.667 818.273 120.498 820.117 120.962 821.853C121.426 823.589 122.493 825.102 123.972 826.121C125.45 827.14 127.244 827.599 129.03 827.414C130.816 827.229 132.478 826.413 133.717 825.113C134.956 823.812 135.691 822.112 135.79 820.318L135.79 820.386ZM187.263 795.968C187.261 795.411 187.423 794.866 187.729 794.401C188 793.983 188.376 793.643 188.818 793.415C189.261 793.186 189.756 793.077 190.253 793.097C190.751 793.118 191.235 793.267 191.657 793.531C192.079 793.795 192.426 794.165 192.663 794.604C192.899 795.042 193.018 795.535 193.006 796.033C192.995 796.531 192.854 797.018 192.598 797.446C192.342 797.873 191.979 798.226 191.546 798.471C191.112 798.716 190.622 798.844 190.123 798.841C189.946 798.853 189.768 798.853 189.59 798.841C188.928 798.709 188.333 798.349 187.909 797.825C187.484 797.3 187.255 796.643 187.263 795.968ZM125.393 819.932C125.391 819.555 125.464 819.182 125.607 818.833C125.75 818.485 125.961 818.168 126.227 817.901C126.492 817.634 126.808 817.422 127.156 817.277C127.504 817.133 127.877 817.059 128.253 817.059C128.586 817.057 128.917 817.115 129.229 817.229C129.786 817.428 130.266 817.795 130.606 818.279C130.945 818.763 131.127 819.341 131.125 819.932C131.116 820.69 130.81 821.415 130.273 821.95C129.736 822.485 129.011 822.788 128.253 822.794C127.495 822.794 126.767 822.492 126.231 821.956C125.694 821.419 125.393 820.691 125.393 819.932Z" fill="white"/>
<path d="M254.888 673.707C254.885 671.846 254.198 670.051 252.959 668.664C275.491 627.78 284.139 580.677 277.598 534.45C271.058 488.222 249.683 445.372 216.694 412.353C216.471 412.129 216.205 411.952 215.913 411.831C215.621 411.71 215.308 411.647 214.992 411.647C214.676 411.647 214.363 411.71 214.071 411.831C213.778 411.952 213.513 412.129 213.289 412.353C213.066 412.577 212.888 412.842 212.767 413.134C212.646 413.427 212.584 413.74 212.584 414.056C212.584 414.373 212.646 414.686 212.767 414.978C212.888 415.271 213.066 415.536 213.289 415.76C245.54 448.03 266.446 489.907 272.863 535.09C279.28 580.273 270.861 626.319 248.873 666.302C248.372 666.197 247.863 666.143 247.352 666.143C245.857 666.143 244.395 666.587 243.152 667.418C241.909 668.249 240.94 669.43 240.368 670.812C239.796 672.194 239.646 673.715 239.938 675.183C240.229 676.65 240.949 677.998 242.006 679.055C243.064 680.113 244.41 680.834 245.877 681.126C247.343 681.417 248.863 681.268 250.244 680.695C251.626 680.123 252.806 679.153 253.637 677.909C254.468 676.665 254.911 675.203 254.911 673.707L254.888 673.707ZM244.469 673.707C244.468 673.163 244.622 672.631 244.911 672.171C245.2 671.711 245.613 671.341 246.103 671.106C246.487 670.928 246.905 670.835 247.329 670.834C248.057 670.832 248.758 671.109 249.29 671.607C249.821 672.105 250.143 672.787 250.189 673.514L250.189 673.707C250.084 674.384 249.74 675.002 249.22 675.448C248.699 675.894 248.037 676.139 247.352 676.139C246.666 676.139 246.004 675.894 245.483 675.448C244.963 675.002 244.619 674.384 244.514 673.707L244.469 673.707Z" fill="white"/>
<path d="M245.944 495.772C245.941 493.782 245.154 491.873 243.754 490.459C242.354 489.045 240.453 488.24 238.464 488.22C222.662 452.342 196.201 422.204 162.679 401.904C162.76 401.462 162.802 401.014 162.803 400.564C162.806 399.067 162.364 397.603 161.534 396.357C160.704 395.112 159.524 394.14 158.142 393.567C156.76 392.993 155.24 392.842 153.772 393.133C152.305 393.425 150.957 394.146 149.899 395.204C148.841 396.263 148.121 397.611 147.83 399.08C147.538 400.548 147.689 402.07 148.262 403.452C148.836 404.835 149.807 406.016 151.051 406.847C152.296 407.677 153.759 408.119 155.255 408.117C157.172 408.123 159.017 407.391 160.409 406.072C192.872 425.776 218.528 454.955 233.924 489.685C232.885 490.449 232.06 491.467 231.526 492.641C230.992 493.816 230.768 495.108 230.874 496.393C230.981 497.679 231.415 498.916 232.135 499.987C232.855 501.057 233.837 501.925 234.988 502.508C236.138 503.09 237.419 503.368 238.707 503.315C239.995 503.262 241.249 502.879 242.347 502.204C243.446 501.529 244.353 500.583 244.983 499.457C245.613 498.331 245.944 497.062 245.944 495.772ZM152.395 400.564C152.398 399.954 152.596 399.361 152.96 398.871C153.324 398.381 153.834 398.021 154.417 397.842C155 397.663 155.625 397.675 156.201 397.877C156.776 398.079 157.272 398.459 157.616 398.963C157.945 399.436 158.119 399.999 158.116 400.575C158.117 401.233 157.892 401.87 157.478 402.381C157.065 402.892 156.488 403.245 155.846 403.381C155.662 403.417 155.476 403.436 155.29 403.437C154.91 403.442 154.534 403.371 154.182 403.228C153.83 403.086 153.51 402.875 153.241 402.607C152.972 402.34 152.758 402.021 152.613 401.671C152.468 401.32 152.394 400.944 152.395 400.564ZM235.536 495.772C235.472 495.362 235.498 494.944 235.611 494.545C235.725 494.146 235.923 493.777 236.193 493.462C236.462 493.147 236.797 492.894 237.173 492.721C237.55 492.547 237.959 492.458 238.374 492.458C238.788 492.458 239.197 492.547 239.574 492.721C239.95 492.894 240.285 493.147 240.554 493.462C240.824 493.777 241.022 494.146 241.136 494.545C241.249 494.944 241.275 495.362 241.211 495.772C241.216 496.401 241.008 497.014 240.621 497.51C240.259 497.989 239.755 498.342 239.182 498.519C238.608 498.696 237.993 498.687 237.424 498.495C236.855 498.303 236.362 497.937 236.012 497.448C235.663 496.959 235.477 496.373 235.479 495.772L235.536 495.772Z" fill="white"/>
<path d="M26.7816 772.72C26.787 771.07 26.2525 769.464 25.2597 768.147C24.267 766.83 22.8706 765.874 21.284 765.426C19.6973 764.978 18.0077 765.062 16.4733 765.666C14.9389 766.269 13.6441 767.358 12.7867 768.767C0.44152 765.645 -11.5911 761.394 -23.1596 756.07C-23.0997 755.694 -23.0693 755.315 -23.0688 754.934C-23.0588 753.186 -23.6544 751.488 -24.7543 750.129C-25.8542 748.771 -27.3906 747.835 -29.102 747.483C-30.8133 747.13 -32.5941 747.381 -34.1412 748.193C-35.6884 749.006 -36.9065 750.33 -37.5882 751.94C-38.2699 753.55 -38.3732 755.346 -37.8805 757.024C-37.3878 758.701 -36.3296 760.156 -34.8858 761.141C-33.4419 762.126 -31.7017 762.579 -29.9612 762.425C-28.2206 762.271 -26.5873 761.518 -25.3388 760.295C-13.4383 765.788 -1.05535 770.168 11.6517 773.378C11.8349 775.309 12.7521 777.095 14.214 778.369C15.6758 779.642 17.5705 780.305 19.5067 780.22C21.443 780.136 23.2728 779.31 24.6182 777.914C25.9636 776.519 26.7218 774.659 26.7362 772.72L26.7816 772.72ZM-30.6167 757.853C-31.1343 757.854 -31.6425 757.715 -32.0877 757.451C-32.5328 757.187 -32.8983 756.807 -33.1456 756.352C-33.3928 755.897 -33.5125 755.384 -33.4921 754.866C-33.4717 754.349 -33.3119 753.847 -33.0296 753.413C-32.7473 752.978 -32.3531 752.629 -31.8885 752.4C-31.424 752.172 -30.9064 752.074 -30.3905 752.116C-29.8747 752.158 -29.3797 752.338 -28.958 752.638C-28.5362 752.939 -28.2035 753.347 -27.9948 753.821C-27.8342 754.179 -27.7491 754.565 -27.7451 754.957C-27.7478 755.705 -28.0423 756.423 -28.5659 756.958C-29.0895 757.492 -29.8008 757.801 -30.5486 757.819L-30.6167 757.853ZM17.1339 774.719C16.6293 774.194 16.3485 773.493 16.3507 772.765C16.3516 772.187 16.5262 771.622 16.8521 771.144C17.178 770.666 17.64 770.297 18.1781 770.085C18.5116 769.958 18.8654 769.892 19.2224 769.892C19.6999 769.889 20.1706 770.005 20.5919 770.23C21.0133 770.455 21.3718 770.782 21.6352 771.18C21.8986 771.579 22.0585 772.037 22.1003 772.513C22.1422 772.989 22.0648 773.468 21.875 773.907C21.6853 774.345 21.3892 774.73 21.0137 775.025C20.6381 775.32 20.1949 775.517 19.7242 775.597C19.2534 775.678 18.7701 775.64 18.3178 775.486C17.8655 775.333 17.4586 775.069 17.1339 774.719Z" fill="white"/>
<path d="M165.459 725.61C192.567 708.569 214.946 684.969 230.53 656.989C230.723 656.989 230.928 656.989 231.132 656.989C232.907 656.994 234.628 656.375 235.995 655.241C237.361 654.106 238.286 652.528 238.609 650.781C238.931 649.034 238.631 647.229 237.76 645.681C236.889 644.133 235.503 642.94 233.843 642.309C232.184 641.679 230.355 641.651 228.677 642.232C226.999 642.812 225.578 643.963 224.661 645.484C223.744 647.005 223.389 648.8 223.659 650.556C223.929 652.312 224.806 653.917 226.138 655.092C206.518 690.101 176.083 717.8 139.398 734.034C102.714 750.269 61.7569 754.163 22.6728 745.133C22.0603 744.99 21.416 745.096 20.8818 745.428C20.3475 745.761 19.967 746.292 19.8239 746.905C19.7831 747.083 19.764 747.266 19.7672 747.45C19.7744 747.98 19.9598 748.492 20.2933 748.904C20.6268 749.316 21.0891 749.604 21.6059 749.721C45.9931 755.356 71.2512 756.123 95.9351 751.98C120.619 747.837 144.244 738.864 165.459 725.576L165.459 725.61ZM228.26 649.448C228.262 649.018 228.36 648.595 228.547 648.208C228.733 647.821 229.005 647.481 229.34 647.213C229.675 646.945 230.066 646.756 230.485 646.659C230.903 646.562 231.337 646.56 231.756 646.654C232.284 646.774 232.767 647.04 233.15 647.423C233.533 647.805 233.8 648.288 233.92 648.816C234.041 649.344 234.01 649.895 233.831 650.406C233.652 650.917 233.333 651.367 232.909 651.704C232.486 652.041 231.976 652.252 231.438 652.312C230.901 652.372 230.357 652.278 229.87 652.042C229.383 651.807 228.972 651.438 228.686 650.979C228.399 650.52 228.248 649.989 228.249 649.448L228.26 649.448Z" fill="white"/>
</g>
<g style="mix-blend-mode:overlay" opacity="0.6" clip-path="url(#clip2_13763_34283)">
<path d="M388.828 51.1591C388.828 51.7883 388.578 52.3917 388.133 52.8366C387.688 53.2815 387.085 53.5314 386.456 53.5314C384.089 53.5309 381.767 52.8863 379.739 51.6667C377.71 50.4471 376.052 48.6984 374.941 46.6081C373.831 44.5178 373.31 42.1647 373.435 39.8011C373.56 37.4374 374.326 35.1523 375.651 33.1907C376.013 32.6959 376.554 32.3609 377.158 32.256C377.763 32.1511 378.384 32.2846 378.893 32.6283C379.401 32.9721 379.756 33.4993 379.884 34.0995C380.012 34.6996 379.902 35.3259 379.578 35.8469C378.735 37.0951 378.248 38.5492 378.169 40.0531C378.09 41.5571 378.421 43.0542 379.128 44.384C379.835 45.7138 380.891 46.8262 382.181 47.6018C383.472 48.3774 384.95 48.7871 386.456 48.7868C387.085 48.7868 387.688 49.0367 388.133 49.4816C388.578 49.9265 388.828 50.5299 388.828 51.1591Z" fill="white"/>
<path d="M365.106 64.9617C365.108 65.577 364.868 66.1684 364.436 66.6075C363.999 67.058 363.402 67.317 362.774 67.3276C362.146 67.3383 361.54 67.0998 361.088 66.6643C354.999 60.7588 351.158 52.916 350.226 44.4848C350.176 44.1678 350.19 43.844 350.269 43.5329C350.347 43.2217 350.488 42.9298 350.683 42.6746C350.877 42.4195 351.122 42.2065 351.401 42.0485C351.68 41.8905 351.989 41.7908 352.308 41.7554C352.626 41.7201 352.949 41.7498 353.256 41.8428C353.563 41.9358 353.848 42.0902 354.094 42.2965C354.34 42.5028 354.541 42.7569 354.686 43.0433C354.831 43.3296 354.916 43.6424 354.936 43.9627C355.746 51.2991 359.09 58.1232 364.391 63.259C364.619 63.4802 364.799 63.745 364.922 64.0375C365.045 64.3301 365.107 64.6444 365.106 64.9617Z" fill="white"/>
<path d="M358.546 24.8479C358.555 25.2436 358.461 25.6349 358.273 25.983C357.012 28.4279 356.073 31.0263 355.481 33.7129C355.427 34.0286 355.309 34.33 355.135 34.5989C354.961 34.8679 354.734 35.0987 354.468 35.2777C354.203 35.4566 353.904 35.5798 353.589 35.64C353.274 35.7002 352.951 35.696 352.638 35.6277C352.325 35.5595 352.029 35.4285 351.768 35.2428C351.507 35.057 351.286 34.8204 351.119 34.547C350.952 34.2737 350.842 33.9694 350.796 33.6524C350.75 33.3355 350.768 33.0123 350.85 32.7027C351.53 29.6093 352.609 26.6178 354.062 23.8037C354.307 23.3255 354.707 22.9444 355.196 22.723C355.685 22.5015 356.236 22.4527 356.756 22.5846C357.277 22.7164 357.738 23.0211 358.063 23.4488C358.388 23.8764 358.558 24.4017 358.546 24.9388L358.546 24.8479Z" fill="white"/>
<path d="M406.614 11.4086C406.618 11.8463 406.496 12.2759 406.262 12.6458C406.102 12.9131 405.889 13.1457 405.638 13.3302C405.386 13.5146 405.101 13.6471 404.798 13.72C404.494 13.7929 404.18 13.8048 403.872 13.7548C403.564 13.7048 403.269 13.594 403.005 13.429C396.808 9.64122 389.498 8.09541 382.299 9.04992C375.099 10.0044 368.445 13.4014 363.449 18.673C363.001 19.0437 362.432 19.2369 361.851 19.216C361.27 19.195 360.717 18.9614 360.297 18.5594C359.877 18.1574 359.619 17.6151 359.572 17.0355C359.526 16.4559 359.693 15.8794 360.044 15.4153C365.79 9.35724 373.441 5.45385 381.718 4.3569C389.995 3.25995 398.399 5.03584 405.524 9.38807C405.864 9.60354 406.142 9.90241 406.333 10.2562C406.524 10.6099 406.62 11.0067 406.614 11.4086Z" fill="white"/>
<path d="M349.045 -4.1421C349.044 -3.80784 348.972 -3.47763 348.836 -3.17266C348.699 -2.8677 348.5 -2.59474 348.251 -2.37137C338.489 6.33285 331.989 18.108 329.826 31.0075C327.663 43.907 329.966 57.1585 336.356 68.5712C336.549 68.844 336.682 69.1544 336.747 69.4823C336.811 69.8101 336.806 70.1479 336.731 70.4735C336.656 70.7992 336.513 71.1052 336.311 71.3717C336.11 71.6383 335.854 71.8593 335.561 72.0202C335.269 72.1811 334.945 72.2783 334.612 72.3055C334.279 72.3327 333.944 72.2892 333.629 72.1779C333.314 72.0666 333.026 71.89 332.784 71.6597C332.542 71.4293 332.351 71.1505 332.224 70.8413C325.322 58.4874 322.84 44.1485 325.189 30.1932C327.537 16.2379 334.575 3.50129 345.141 -5.91282C345.611 -6.33111 346.227 -6.54578 346.855 -6.5096C347.483 -6.47341 348.071 -6.18935 348.489 -5.71988C348.863 -5.28054 349.061 -4.71861 349.045 -4.1421Z" fill="white"/>
<path d="M332.247 -54.8121C332.249 -54.4027 332.146 -53.9997 331.947 -53.6419C331.748 -53.284 331.461 -52.9834 331.112 -52.769C309.943 -40.1692 293.685 -20.7466 285.009 2.31086C276.332 25.3683 275.751 50.6907 283.361 74.1218C283.458 74.4199 283.496 74.7341 283.471 75.0466C283.446 75.3592 283.36 75.6637 283.218 75.9431C283.076 76.2224 282.88 76.4709 282.642 76.6745C282.403 76.8781 282.127 77.0328 281.829 77.1297C281.531 77.2266 281.217 77.2638 280.904 77.2392C280.592 77.2146 280.287 77.1288 280.008 76.9865C279.729 76.8442 279.48 76.6483 279.276 76.4099C279.073 76.1716 278.918 75.8955 278.821 75.5974C270.874 51.1428 271.476 24.7125 280.531 0.645851C289.585 -23.4208 306.553 -43.6935 328.649 -56.8439C328.916 -57.0037 329.213 -57.1091 329.521 -57.154C329.829 -57.1988 330.143 -57.1822 330.445 -57.1052C330.746 -57.0282 331.03 -56.8922 331.279 -56.7052C331.528 -56.5181 331.737 -56.2837 331.895 -56.0153C332.12 -55.654 332.242 -55.2378 332.247 -54.8121Z" fill="white"/>
<path d="M298.957 -57.593C298.956 -57.2642 298.886 -56.9391 298.754 -56.6383C298.621 -56.3374 298.427 -56.0673 298.185 -55.8449C275.926 -35.4386 261.413 -7.95899 257.108 21.9307C257.064 22.2393 256.96 22.5362 256.801 22.8044C256.643 23.0727 256.433 23.307 256.183 23.4941C255.934 23.6812 255.65 23.8174 255.348 23.8948C255.047 23.9723 254.732 23.9895 254.424 23.9455C254.115 23.9016 253.818 23.7973 253.55 23.6386C253.282 23.4799 253.048 23.2699 252.861 23.0206C252.673 22.7713 252.537 22.4876 252.46 22.1857C252.382 21.8838 252.365 21.5696 252.409 21.2611C256.871 -9.71262 271.914 -38.1877 294.984 -59.3296C295.322 -59.6451 295.744 -59.8546 296.2 -59.9321C296.656 -60.0096 297.124 -59.9517 297.547 -59.7656C297.97 -59.5795 298.329 -59.2734 298.579 -58.8851C298.83 -58.4969 298.961 -58.0437 298.957 -57.5816L298.957 -57.593Z" fill="white"/>
<path d="M232.626 -139.841C232.628 -139.501 232.556 -139.164 232.415 -138.854C232.274 -138.544 232.067 -138.269 231.808 -138.048C206.215 -115.872 185.688 -88.4531 171.619 -57.6489C157.55 -26.8448 150.269 6.62427 150.268 40.4893C150.155 77.6242 158.894 114.251 175.761 147.334C176.047 147.896 176.098 148.548 175.903 149.147C175.708 149.746 175.284 150.244 174.722 150.53C174.161 150.816 173.509 150.867 172.91 150.672C172.31 150.477 171.813 150.053 171.527 149.491C154.329 115.749 145.415 78.3957 145.524 40.5233C145.52 5.97927 152.946 -28.1615 167.297 -59.5832C181.648 -91.0048 202.589 -118.973 228.698 -141.589C229.041 -141.887 229.463 -142.08 229.912 -142.145C230.361 -142.21 230.82 -142.145 231.234 -141.958C231.647 -141.77 231.998 -141.468 232.245 -141.086C232.492 -140.705 232.624 -140.261 232.626 -139.807L232.626 -139.841Z" fill="white"/>
<path d="M176.306 148.98C176.35 149.54 176.195 150.098 175.867 150.554C175.54 151.01 175.061 151.335 174.516 151.471C173.971 151.607 173.396 151.546 172.892 151.297C172.389 151.049 171.989 150.63 171.765 150.115L171.47 149.525C171.316 149.246 171.22 148.938 171.187 148.621C171.154 148.303 171.186 147.983 171.28 147.678C171.374 147.373 171.529 147.09 171.735 146.846C171.941 146.603 172.194 146.403 172.479 146.259C172.764 146.116 173.075 146.031 173.393 146.011C173.712 145.99 174.031 146.034 174.332 146.139C174.633 146.245 174.91 146.41 175.146 146.625C175.381 146.841 175.571 147.101 175.704 147.391L175.988 147.947C176.175 148.261 176.284 148.615 176.306 148.98Z" fill="white"/>
<path d="M142.448 -104.971C142.448 -104.548 142.335 -104.132 142.119 -103.768C116.305 -60.0624 102.702 -10.2255 102.733 40.5347C102.749 54.0903 103.724 67.6277 105.65 81.0457C105.739 81.6689 105.577 82.3018 105.199 82.8052C104.821 83.3087 104.259 83.6414 103.635 83.7302C103.012 83.819 102.379 83.6567 101.876 83.2788C101.373 82.901 101.04 82.3386 100.951 81.7154C99.0063 68.0595 98.0315 54.283 98.034 40.4893C97.9896 -11.1169 111.803 -61.7882 138.032 -106.231C138.356 -106.772 138.88 -107.162 139.49 -107.317C140.101 -107.473 140.748 -107.38 141.29 -107.06C141.652 -106.847 141.95 -106.541 142.154 -106.174C142.358 -105.806 142.459 -105.391 142.448 -104.971Z" fill="white"/>
<path d="M172.322 191.183C172.145 191.533 171.884 191.834 171.561 192.057C171.313 192.232 171.031 192.351 170.733 192.408C171.39 192.199 171.952 191.765 172.322 191.183Z" fill="white"/>
<path d="M194.318 7.18604C194.321 8.57529 194.706 9.9371 195.43 11.1223C196.155 12.3075 197.192 13.2704 198.427 13.9057C196.995 24.1926 196.396 34.5782 196.634 44.9616C194.973 45.638 193.607 46.884 192.781 48.4761C191.955 50.0683 191.723 51.9026 192.126 53.6503C192.529 55.398 193.542 56.945 194.982 58.0139C196.423 59.0829 198.197 59.604 199.986 59.4838C201.776 59.3636 203.464 58.6101 204.749 57.3581C206.033 56.1062 206.83 54.4377 206.996 52.6518C207.162 50.8658 206.687 49.079 205.655 47.6116C204.624 46.1442 203.104 45.092 201.367 44.6437C201.148 34.6092 201.732 24.5733 203.115 14.6322C204.538 14.396 205.864 13.7576 206.936 12.7921C208.008 11.8266 208.782 10.5745 209.165 9.18366C209.549 7.79279 209.526 6.32122 209.1 4.94277C208.674 3.5643 207.863 2.3365 206.762 1.40437C205.66 0.472233 204.316 -0.12527 202.886 -0.317653C201.456 -0.510036 200.001 -0.289245 198.693 0.31868C197.384 0.926609 196.277 1.89628 195.502 3.11315C194.727 4.33002 194.316 5.74328 194.318 7.18604ZM202.343 51.9536C202.343 52.5221 202.174 53.0777 201.858 53.5502C201.542 54.0227 201.093 54.3909 200.568 54.6079C200.042 54.8249 199.464 54.8811 198.907 54.7694C198.35 54.6576 197.838 54.383 197.437 53.9802C197.036 53.5774 196.763 53.0647 196.654 52.5069C196.544 51.9491 196.603 51.3713 196.822 50.8467C197.041 50.3222 197.411 49.8745 197.884 49.5604C198.358 49.2462 198.914 49.0796 199.483 49.0818C200.242 49.0848 200.97 49.3887 201.506 49.927C202.042 50.4652 202.343 51.194 202.343 51.9536ZM204.738 7.18604C204.738 7.75402 204.57 8.30923 204.254 8.78149C203.939 9.25375 203.49 9.62183 202.965 9.83918C202.441 10.0565 201.863 10.1134 201.306 10.0026C200.749 9.89181 200.237 9.61832 199.836 9.21671C199.434 8.81508 199.161 8.30338 199.05 7.74631C198.939 7.18924 198.996 6.6118 199.213 6.08706C199.431 5.56231 199.799 5.1138 200.271 4.79824C200.743 4.48269 201.298 4.31433 201.866 4.31433C202.628 4.31433 203.358 4.61683 203.897 5.15538C204.435 5.69394 204.738 6.42441 204.738 7.18604Z" fill="white"/>
<path d="M183.967 -135.97C183.963 -134.631 184.324 -133.317 185.011 -132.168C147.728 -88.6619 125.527 -34.2564 121.728 22.9145C117.928 80.0855 132.735 136.951 163.934 185.008C162.881 186.352 162.315 188.014 162.329 189.721C162.342 191.428 162.934 193.081 164.008 194.408C165.081 195.736 166.573 196.66 168.24 197.03C169.907 197.401 171.65 197.195 173.184 196.446C174.719 195.698 175.955 194.452 176.689 192.91C177.424 191.369 177.615 189.624 177.23 187.961C176.846 186.297 175.908 184.813 174.572 183.751C173.235 182.689 171.577 182.112 169.87 182.113C169.202 182.111 168.537 182.203 167.895 182.386C137.271 135.202 122.735 79.3751 126.458 23.2468C130.181 -32.8815 151.964 -86.2986 188.553 -129.024C190.044 -128.374 191.705 -128.223 193.29 -128.592C194.874 -128.962 196.297 -129.833 197.347 -131.076C198.396 -132.319 199.017 -133.868 199.117 -135.492C199.216 -137.115 198.789 -138.728 197.899 -140.09C197.009 -141.452 195.704 -142.49 194.176 -143.051C192.649 -143.611 190.982 -143.664 189.422 -143.202C187.862 -142.739 186.493 -141.785 185.519 -140.483C184.544 -139.18 184.016 -137.597 184.012 -135.97L183.967 -135.97ZM170.982 187.017C171.502 187.237 171.946 187.605 172.259 188.075C172.572 188.545 172.74 189.097 172.742 189.662C172.747 190.191 172.601 190.711 172.322 191.16C171.952 191.742 171.39 192.176 170.733 192.386C170.733 192.386 170.608 192.386 170.551 192.386C170.332 192.441 170.107 192.468 169.881 192.465C169.12 192.465 168.389 192.163 167.851 191.624C167.312 191.086 167.01 190.355 167.01 189.594L167.01 189.537C167.027 188.786 167.337 188.072 167.874 187.546C168.41 187.02 169.13 186.725 169.881 186.722C170.265 186.743 170.64 186.843 170.982 187.017ZM194.398 -135.97C194.398 -135.209 194.095 -134.478 193.557 -133.94C193.018 -133.401 192.288 -133.099 191.526 -133.099C190.765 -133.099 190.034 -133.401 189.496 -133.94C188.957 -134.478 188.655 -135.209 188.655 -135.97L188.655 -136.334C188.795 -137.011 189.175 -137.615 189.726 -138.035C190.276 -138.454 190.959 -138.661 191.65 -138.617C192.341 -138.573 192.992 -138.281 193.484 -137.794C193.977 -137.308 194.277 -136.66 194.33 -135.97L194.398 -135.97Z" fill="white"/>
<path d="M344.312 -37.014C344.312 -36.607 344.346 -36.2007 344.415 -35.7995C330.774 -28.268 319.4 -17.2197 311.476 -3.80341C303.552 9.61289 299.366 24.9073 299.354 40.4893C299.354 43.2589 299.49 46.0247 299.763 48.7868C298.113 49.4991 296.771 50.7758 295.977 52.3879C295.184 53.9999 294.99 55.842 295.432 57.5838C295.873 59.3257 296.92 60.8533 298.386 61.8929C299.851 62.9325 301.639 63.4161 303.429 63.2569C305.219 63.0977 306.893 62.3062 308.152 61.0242C309.411 59.7423 310.173 58.0537 310.3 56.2614C310.427 54.469 309.911 52.69 308.846 51.2433C307.78 49.7966 306.234 48.7768 304.484 48.3668C304.219 45.741 304.091 43.1151 304.098 40.4893C304.108 25.7723 308.056 11.326 315.533 -1.35036C323.009 -14.0267 333.742 -24.4711 346.617 -31.5997C347.862 -30.3816 349.49 -29.6318 351.225 -29.4773C352.96 -29.3228 354.695 -29.7732 356.136 -30.7521C357.577 -31.731 358.635 -33.1781 359.13 -34.8481C359.626 -36.518 359.529 -38.3081 358.855 -39.9146C358.182 -41.521 356.973 -42.8451 355.435 -43.6622C353.897 -44.4793 352.123 -44.7391 350.415 -44.3977C348.707 -44.0562 347.169 -43.1344 346.063 -41.7886C344.957 -40.4429 344.351 -38.756 344.346 -37.014L344.312 -37.014ZM305.631 55.7107C305.633 56.2792 305.466 56.8355 305.152 57.3093C304.838 57.783 304.39 58.1529 303.866 58.372C303.341 58.5911 302.764 58.6496 302.206 58.54C301.648 58.4305 301.135 58.1579 300.733 57.7568C300.33 57.3556 300.055 56.8439 299.943 56.2865C299.832 55.7291 299.888 55.1511 300.105 54.6257C300.322 54.1003 300.69 53.6512 301.162 53.3351C301.635 53.0191 302.191 52.8503 302.759 52.8503C303.519 52.8503 304.247 53.1513 304.786 53.6874C305.324 54.2235 305.628 54.9511 305.631 55.7107ZM354.732 -37.014C354.732 -36.446 354.564 -35.8908 354.248 -35.4186C353.932 -34.9463 353.484 -34.5782 352.959 -34.3609C352.435 -34.1435 351.857 -34.0866 351.3 -34.1974C350.743 -34.3083 350.231 -34.5817 349.83 -34.9834C349.428 -35.385 349.155 -35.8967 349.044 -36.4538C348.933 -37.0108 348.99 -37.5883 349.207 -38.113C349.425 -38.6377 349.793 -39.0863 350.265 -39.4018C350.737 -39.7174 351.292 -39.8857 351.86 -39.8857C352.237 -39.8857 352.611 -39.8115 352.959 -39.6672C353.308 -39.5228 353.624 -39.3113 353.891 -39.0447C354.158 -38.778 354.369 -38.4614 354.513 -38.113C354.658 -37.7646 354.732 -37.3911 354.732 -37.014Z" fill="white"/>
<path d="M196.112 -68.5465C196.115 -66.6868 196.802 -64.8932 198.041 -63.5068C175.509 -22.6462 166.861 24.4297 173.402 70.6312C179.942 116.833 201.317 159.658 234.306 192.658C234.529 192.882 234.795 193.059 235.087 193.18C235.379 193.301 235.692 193.363 236.008 193.363C236.324 193.363 236.637 193.301 236.929 193.18C237.222 193.059 237.487 192.882 237.711 192.658C237.934 192.435 238.112 192.169 238.233 191.877C238.354 191.585 238.416 191.272 238.416 190.956C238.416 190.639 238.354 190.326 238.233 190.034C238.112 189.742 237.934 189.477 237.711 189.253C205.46 157.001 184.554 115.149 178.137 69.9916C171.72 24.8344 180.139 -21.1857 202.127 -61.1459C202.628 -61.0407 203.137 -60.9875 203.648 -60.9869C205.143 -60.9869 206.605 -61.4303 207.848 -62.261C209.091 -63.0917 210.06 -64.2723 210.632 -65.6536C211.204 -67.035 211.354 -68.5549 211.062 -70.0214C210.771 -71.4878 210.051 -72.8348 208.994 -73.892C207.936 -74.9493 206.59 -75.6693 205.123 -75.9609C203.657 -76.2526 202.137 -76.1029 200.756 -75.5308C199.374 -74.9586 198.194 -73.9897 197.363 -72.7465C196.532 -71.5033 196.089 -70.0417 196.089 -68.5465L196.112 -68.5465ZM206.531 -68.5465C206.532 -68.0033 206.378 -67.4711 206.089 -67.0112C205.8 -66.5513 205.387 -66.1825 204.897 -65.9472C204.513 -65.7692 204.095 -65.6763 203.671 -65.6748C202.943 -65.6733 202.242 -65.9497 201.71 -66.4474C201.179 -66.9452 200.857 -67.6269 200.811 -68.3536L200.811 -68.5465C200.916 -69.2236 201.26 -69.8408 201.78 -70.2866C202.301 -70.7323 202.963 -70.9774 203.648 -70.9774C204.334 -70.9774 204.996 -70.7323 205.517 -70.2866C206.037 -69.8408 206.381 -69.2236 206.486 -68.5465L206.531 -68.5465Z" fill="white"/>
<path d="M205.056 109.287C205.059 111.276 205.846 113.184 207.246 114.597C208.646 116.01 210.547 116.814 212.536 116.835C228.338 152.692 254.799 182.812 288.321 203.101C288.24 203.543 288.198 203.991 288.197 204.44C288.194 205.937 288.636 207.4 289.466 208.645C290.296 209.889 291.476 210.86 292.858 211.434C294.24 212.007 295.76 212.158 297.228 211.867C298.695 211.575 300.043 210.855 301.101 209.797C302.159 208.739 302.879 207.391 303.17 205.924C303.462 204.456 303.311 202.935 302.738 201.554C302.164 200.172 301.193 198.991 299.949 198.161C298.704 197.332 297.241 196.89 295.745 196.892C293.828 196.886 291.983 197.617 290.591 198.935C258.128 179.242 232.472 150.08 217.076 115.371C218.115 114.607 218.94 113.589 219.474 112.415C220.008 111.242 220.232 109.951 220.126 108.666C220.019 107.38 219.585 106.144 218.865 105.074C218.145 104.005 217.163 103.137 216.012 102.555C214.862 101.973 213.581 101.695 212.293 101.748C211.005 101.801 209.751 102.183 208.653 102.858C207.554 103.533 206.647 104.479 206.017 105.604C205.387 106.729 205.056 107.997 205.056 109.287ZM298.605 204.44C298.602 205.05 298.404 205.643 298.04 206.132C297.676 206.622 297.166 206.982 296.583 207.161C296 207.34 295.375 207.327 294.799 207.126C294.224 206.924 293.728 206.544 293.384 206.041C293.055 205.568 292.881 205.005 292.884 204.429C292.883 203.772 293.108 203.135 293.522 202.624C293.935 202.114 294.512 201.761 295.154 201.625C295.338 201.589 295.524 201.57 295.71 201.569C296.09 201.564 296.466 201.635 296.818 201.778C297.17 201.92 297.49 202.131 297.759 202.398C298.028 202.666 298.242 202.984 298.387 203.334C298.532 203.685 298.606 204.061 298.605 204.44ZM215.464 109.287C215.528 109.696 215.502 110.114 215.389 110.513C215.275 110.912 215.077 111.281 214.807 111.596C214.538 111.91 214.203 112.163 213.827 112.336C213.45 112.51 213.041 112.599 212.626 112.599C212.212 112.599 211.803 112.51 211.426 112.336C211.05 112.163 210.715 111.91 210.446 111.596C210.176 111.281 209.978 110.912 209.864 110.513C209.751 110.114 209.725 109.696 209.789 109.287C209.784 108.658 209.992 108.046 210.379 107.55C210.741 107.071 211.245 106.718 211.818 106.541C212.392 106.365 213.007 106.373 213.576 106.565C214.145 106.757 214.638 107.123 214.988 107.612C215.337 108.1 215.523 108.686 215.521 109.287L215.464 109.287Z" fill="white"/>
</g>
</g>
<defs>
<linearGradient id="paint0_linear_13763_34283" x1="375" y1="0" x2="-189.465" y2="166.089" gradientUnits="userSpaceOnUse">
<stop stop-color="white"/>
<stop offset="1" stop-color="#E7E8EB"/>
</linearGradient>
<clipPath id="clip0_13763_34283">
<rect width="375" height="812" fill="white" transform="matrix(-1 0 0 -1 375 812)"/>
</clipPath>
<clipPath id="clip1_13763_34283">
<rect width="489.783" height="560" fill="white" transform="translate(353 393) rotate(90)"/>
</clipPath>
<clipPath id="clip2_13763_34283">
<rect width="489.504" height="560" fill="white" transform="translate(98 212) rotate(-90)"/>
</clipPath>
</defs>
</svg>
