<svg width="81" height="81" viewBox="0 0 81 81" fill="none" xmlns="http://www.w3.org/2000/svg">
<path d="M40.5123 68.7458C56.3232 68.7458 69.1405 55.9285 69.1405 40.1175C69.1405 24.3066 56.3232 11.4893 40.5123 11.4893C24.7013 11.4893 11.884 24.3066 11.884 40.1175C11.884 55.9285 24.7013 68.7458 40.5123 68.7458Z" fill="#00A534"/>
<path d="M4.59609 36.0272C4.29084 36.0265 3.98651 35.9936 3.68816 35.9291C3.16287 35.8104 2.6662 35.5891 2.22666 35.2779C1.78712 34.9667 1.41336 34.5718 1.12684 34.1158C0.840327 33.6598 0.646692 33.1517 0.557052 32.6207C0.467412 32.0897 0.483535 31.5462 0.604492 31.0214C2.33459 23.5183 6.13954 16.6529 11.585 11.2089C17.0304 5.76497 23.8968 1.96184 31.4003 0.233734C32.4536 0.00446378 33.5547 0.20027 34.4644 0.778576C35.374 1.35688 36.0186 2.27093 36.2579 3.32194C36.4972 4.37295 36.3119 5.47593 35.7423 6.39105C35.1727 7.30617 34.2648 7.95943 33.2162 8.20875C27.2142 9.59068 21.722 12.633 17.3669 16.988C13.0119 21.3431 9.96962 26.8353 8.58768 32.8372C8.38337 33.7431 7.87684 34.5525 7.15138 35.1323C6.42593 35.7121 5.52475 36.0277 4.59609 36.0272Z" fill="#00A534"/>
<path d="M76.4039 36.0276C75.4778 36.0266 74.5794 35.7113 73.8557 35.1333C73.1321 34.5553 72.6261 33.7488 72.4205 32.8457C71.0377 26.8442 67.9951 21.3525 63.6402 16.9976C59.2853 12.6427 53.7935 9.6001 47.792 8.21727C47.264 8.10234 46.764 7.8839 46.321 7.57461C45.8779 7.26531 45.5005 6.87128 45.2106 6.41528C44.9207 5.95927 44.724 5.45035 44.6319 4.91789C44.5399 4.38543 44.5542 3.84001 44.6742 3.31314C44.7942 2.78627 45.0174 2.28839 45.3309 1.84828C45.6444 1.40817 46.042 1.03455 46.5007 0.749011C46.9595 0.463469 47.4703 0.271652 48.0036 0.184674C48.5369 0.0976948 49.0822 0.117275 49.6079 0.242261C57.1105 1.97325 63.9754 5.77849 69.4193 11.2238C74.8631 16.669 78.6665 23.535 80.3955 31.0381C80.5165 31.5629 80.5326 32.1064 80.4429 32.6374C80.3533 33.1684 80.1597 33.6765 79.8731 34.1325C79.5866 34.5885 79.2129 34.9834 78.7733 35.2946C78.3338 35.6058 77.8371 35.8271 77.3118 35.9458C77.0129 36.0048 76.7086 36.0322 76.4039 36.0276Z" fill="#00A534"/>
<path d="M32.3327 80.197C32.0269 80.198 31.7221 80.1623 31.4248 80.0907C23.9205 78.3644 17.0531 74.5618 11.6074 69.1175C6.16168 63.6733 2.35732 56.8069 0.628998 49.303C0.496264 48.7744 0.470524 48.2246 0.553301 47.6859C0.636078 47.1472 0.825701 46.6305 1.11102 46.1661C1.39633 45.7017 1.77159 45.299 2.21474 44.9818C2.65789 44.6645 3.15999 44.439 3.69154 44.3185C4.22308 44.198 4.77335 44.185 5.30999 44.2802C5.84664 44.3754 6.35885 44.5769 6.81651 44.8728C7.27417 45.1688 7.66806 45.5533 7.97503 46.0036C8.28199 46.454 8.49584 46.9612 8.60401 47.4954C9.98845 53.4939 13.0307 58.9827 17.3838 63.3359C21.7369 67.689 27.2257 70.7312 33.2243 72.1157C34.208 72.3351 35.076 72.9101 35.6618 73.7303C36.2476 74.5505 36.5099 75.5581 36.3984 76.5598C36.2868 77.5615 35.8093 78.4867 35.0575 79.158C34.3057 79.8293 33.3325 80.1993 32.3246 80.197H32.3327Z" fill="#00A534"/>
<path d="M48.6918 80.1971C47.6901 80.1906 46.7257 79.8168 45.9813 79.1465C45.237 78.4761 44.7645 77.556 44.6536 76.5605C44.5426 75.5649 44.8009 74.5633 45.3794 73.7456C45.9579 72.9278 46.8164 72.3508 47.792 72.124C53.7916 70.7389 59.2812 67.6954 63.6344 63.3407C67.9876 58.9861 71.0292 53.4955 72.4123 47.4955C72.652 46.4368 73.3025 45.5168 74.2205 44.9377C75.1386 44.3586 76.2491 44.168 77.3078 44.4077C78.3664 44.6474 79.2864 45.2978 79.8655 46.2159C80.4446 47.134 80.6352 48.2445 80.3955 49.3031C78.6646 56.8094 74.8575 63.6775 69.4091 69.1231C63.9606 74.5686 57.0905 78.3721 49.5833 80.099C49.2902 80.1619 48.9915 80.1947 48.6918 80.1971Z" fill="#00A534"/>
</svg>
