<svg width="16" height="16" viewBox="0 0 16 16" fill="none" xmlns="http://www.w3.org/2000/svg">
<g clip-path="url(#clip0_14743_9033)">
<path d="M5.66672 8.51845C5.20523 8.51845 4.7541 8.3816 4.37039 8.12521C3.98668 7.86882 3.68761 7.50441 3.511 7.07805C3.3344 6.65169 3.28819 6.18253 3.37822 5.72991C3.46825 5.27729 3.69048 4.86153 4.0168 4.5352C4.34313 4.20888 4.75889 3.98665 5.21151 3.89662C5.66413 3.80659 6.13329 3.8528 6.55965 4.0294C6.98601 4.206 7.35043 4.50507 7.60682 4.88879C7.86321 5.2725 8.00005 5.72363 8.00005 6.18512C7.99937 6.80375 7.75331 7.39684 7.31588 7.83428C6.87844 8.27171 6.28535 8.51777 5.66672 8.51845ZM5.66672 4.88882C5.41034 4.88882 5.15971 4.96485 4.94654 5.10729C4.73336 5.24973 4.56721 5.45218 4.4691 5.68905C4.37099 5.92591 4.34531 6.18656 4.39533 6.43801C4.44535 6.68947 4.56881 6.92045 4.7501 7.10174C4.93139 7.28303 5.16237 7.40649 5.41383 7.45651C5.66528 7.50653 5.92592 7.48085 6.16279 7.38274C6.39966 7.28463 6.60211 7.11848 6.74455 6.9053C6.88699 6.69213 6.96302 6.4415 6.96302 6.18512C6.96302 5.84132 6.82644 5.5116 6.58334 5.2685C6.34024 5.0254 6.01052 4.88882 5.66672 4.88882ZM9.55561 13.7036V13.4444C9.55561 12.413 9.14589 11.4238 8.41658 10.6945C7.68727 9.96521 6.69812 9.55549 5.66672 9.55549C4.63532 9.55549 3.64617 9.96521 2.91686 10.6945C2.18755 11.4238 1.77783 12.413 1.77783 13.4444L1.77783 13.7036C1.77783 13.8412 1.83246 13.973 1.9297 14.0703C2.02694 14.1675 2.15883 14.2222 2.29635 14.2222C2.43387 14.2222 2.56576 14.1675 2.663 14.0703C2.76024 13.973 2.81487 13.8412 2.81487 13.7036V13.4444C2.81487 12.688 3.11533 11.9626 3.65016 11.4278C4.18498 10.893 4.91036 10.5925 5.66672 10.5925C6.42308 10.5925 7.14846 10.893 7.68328 11.4278C8.21811 11.9626 8.51857 12.688 8.51857 13.4444V13.7036C8.51857 13.8412 8.5732 13.973 8.67044 14.0703C8.76768 14.1675 8.89957 14.2222 9.03709 14.2222C9.17461 14.2222 9.3065 14.1675 9.40374 14.0703C9.50098 13.973 9.55561 13.8412 9.55561 13.7036ZM14.2223 11.111C14.2223 10.4104 14.0194 9.72466 13.6383 9.13672C13.2571 8.54877 12.7139 8.08372 12.0743 7.79769C11.4346 7.51167 10.7259 7.4169 10.0336 7.52483C9.34123 7.63276 8.69495 7.93878 8.17272 8.40593C8.12127 8.45115 8.07928 8.50611 8.04919 8.56764C8.0191 8.62918 8.00149 8.69606 7.9974 8.76444C7.9933 8.83281 8.0028 8.90132 8.02533 8.96601C8.04786 9.03069 8.08299 9.09027 8.12868 9.1413C8.17437 9.19234 8.22972 9.23381 8.29152 9.26333C8.35333 9.29285 8.42038 9.30983 8.48879 9.31329C8.5572 9.31675 8.62562 9.30663 8.69009 9.2835C8.75457 9.26036 8.81382 9.22469 8.86442 9.17853C9.23747 8.84492 9.6991 8.62642 10.1936 8.54939C10.6881 8.47236 11.1943 8.54009 11.6512 8.74442C12.108 8.94875 12.4959 9.28093 12.7682 9.70088C13.0404 10.1208 13.1852 10.6106 13.1852 11.111C13.1852 11.2486 13.2399 11.3805 13.3371 11.4777C13.4344 11.5749 13.5662 11.6296 13.7038 11.6296C13.8413 11.6296 13.9732 11.5749 14.0704 11.4777C14.1676 11.3805 14.2223 11.2486 14.2223 11.111ZM10.8519 6.44438C10.3904 6.44438 9.93929 6.30753 9.55558 6.05114C9.17186 5.79475 8.87279 5.43033 8.69619 5.00397C8.51958 4.57761 8.47337 4.10846 8.56341 3.65583C8.65344 3.20321 8.87567 2.78745 9.20199 2.46113C9.52831 2.13481 9.94407 1.91258 10.3967 1.82255C10.8493 1.73251 11.3185 1.77872 11.7448 1.95533C12.1712 2.13193 12.5356 2.431 12.792 2.81471C13.0484 3.19843 13.1852 3.64955 13.1852 4.11104C13.1846 4.72967 12.9385 5.32277 12.5011 5.7602C12.0636 6.19764 11.4705 6.44369 10.8519 6.44438ZM10.8519 2.81475C10.5955 2.81475 10.3449 2.89077 10.1317 3.03321C9.91855 3.17565 9.7524 3.37811 9.65428 3.61497C9.55617 3.85184 9.5305 4.11248 9.58052 4.36394C9.63054 4.6154 9.754 4.84637 9.93529 5.02766C10.1166 5.20895 10.3476 5.33242 10.599 5.38243C10.8505 5.43245 11.1111 5.40678 11.348 5.30867C11.5848 5.21055 11.7873 5.0444 11.9297 4.83123C12.0722 4.61805 12.1482 4.36743 12.1482 4.11104C12.1482 3.76725 12.0116 3.43753 11.7685 3.19442C11.5254 2.95132 11.1957 2.81475 10.8519 2.81475Z" fill="#C5C6C9" stroke="#C5C6C9" stroke-width="0.4"/>
</g>
<defs>
<clipPath id="clip0_14743_9033">
<rect width="12.4444" height="12.4444" fill="currentColor" transform="translate(1.77783 1.77771)"/>
</clipPath>
</defs>
</svg>
