<svg width="16" height="16" viewBox="0 0 16 16" fill="none" xmlns="http://www.w3.org/2000/svg">
<g clip-path="url(#clip0_14743_8997)">
<path d="M10.5927 6.96302C10.5927 6.8255 10.5381 6.69361 10.4408 6.59637C10.3436 6.49913 10.2117 6.4445 10.0742 6.4445L5.92605 6.4445C5.78853 6.4445 5.65665 6.49913 5.55941 6.59637C5.46216 6.69361 5.40753 6.8255 5.40753 6.96302C5.40753 7.10054 5.46216 7.23243 5.55941 7.32967C5.65665 7.42691 5.78853 7.48154 5.92605 7.48154L10.0742 7.48154C10.2117 7.48154 10.3436 7.42691 10.4408 7.32967C10.5381 7.23243 10.5927 7.10054 10.5927 6.96302ZM8.51865 5.40746L5.92605 5.40746C5.78853 5.40746 5.65665 5.35283 5.55941 5.25559C5.46216 5.15835 5.40753 5.02646 5.40753 4.88894C5.40753 4.75142 5.46216 4.61954 5.55941 4.5223C5.65665 4.42505 5.78853 4.37043 5.92605 4.37043L8.51865 4.37043C8.65617 4.37043 8.78805 4.42506 8.88529 4.5223C8.98253 4.61954 9.03716 4.75142 9.03716 4.88894C9.03716 5.02646 8.98253 5.15835 8.88529 5.25559C8.78805 5.35283 8.65617 5.40746 8.51865 5.40746ZM13.1853 8.78561L13.1853 4.37043C13.1845 3.68308 12.9111 3.02412 12.4251 2.5381C11.939 2.05207 11.2801 1.77866 10.5927 1.77783L5.40753 1.77783C4.72019 1.77866 4.06123 2.05207 3.5752 2.53809C3.08918 3.02412 2.81577 3.68308 2.81494 4.37043L2.81494 11.6297C2.81576 12.317 3.08918 12.976 3.5752 13.462C4.06123 13.948 4.72019 14.2215 5.40753 14.2223L7.74865 14.2223C8.22548 14.2235 8.69784 14.1302 9.13839 13.9477C9.57895 13.7653 9.97896 13.4973 10.3153 13.1593L12.1218 11.3518C12.46 11.0156 12.7282 10.6157 12.9107 10.1753C13.0933 9.73476 13.1866 9.26243 13.1853 8.78561ZM9.58213 12.4261C9.41894 12.5842 9.23572 12.7202 9.03716 12.8306L9.03716 10.5926C9.03716 10.4551 9.09179 10.3232 9.18903 10.226C9.28628 10.1288 9.41816 10.0741 9.55568 10.0741L11.7936 10.0741C11.6831 10.2726 11.547 10.4557 11.3886 10.6186L9.58213 12.4261ZM12.1483 8.78561C12.1483 8.87117 12.1317 8.95309 12.1239 9.03709L9.55568 9.03709C9.14312 9.03709 8.74746 9.20098 8.45574 9.4927C8.16402 9.78443 8.00013 10.1801 8.00013 10.5926L8.00013 13.1609C7.91613 13.1686 7.83368 13.1852 7.74865 13.1852L5.40753 13.1852C4.99497 13.1852 4.59931 13.0214 4.30759 12.7296C4.01587 12.4379 3.85198 12.0422 3.85198 11.6297L3.85198 4.37043C3.85198 3.95787 4.01587 3.5622 4.30759 3.27048C4.59931 2.97876 4.99498 2.81487 5.40753 2.81487L10.5927 2.81487C11.0053 2.81487 11.4009 2.97876 11.6927 3.27048C11.9844 3.56221 12.1483 3.95787 12.1483 4.37043L12.1483 8.78561Z" fill="currentColor" />
</g>
<defs>
<clipPath id="clip0_14743_8997">
<rect width="12.4444" height="12.4444" fill="currentColor"  transform="translate(1.77783 1.77783)"/>
</clipPath>
</defs>
</svg>
