<svg width="24" height="25" viewBox="0 0 24 25" fill="none" xmlns="http://www.w3.org/2000/svg">
<g clip-path="url(#clip0_14753_6001)">
<path d="M15.5 3.16663C12.2286 3.16663 9.66663 4.70429 9.66663 6.66663V8.67874C9.29096 8.6344 8.90052 8.61107 8.49996 8.61107C5.22863 8.61107 2.66663 10.1487 2.66663 12.1111V18.3333C2.66663 20.2956 5.22863 21.8333 8.49996 21.8333C11.1498 21.8333 13.3346 20.8245 14.0688 19.3981C14.534 19.4657 15.0131 19.5 15.5 19.5C18.7713 19.5 21.3333 17.9623 21.3333 16V6.66663C21.3333 4.70429 18.7713 3.16663 15.5 3.16663ZM19.7777 12.8888C19.7777 13.8066 17.9484 14.8333 15.5 14.8333C15.1017 14.8333 14.7113 14.8061 14.3333 14.7532V13.2101C14.7144 13.2544 15.1048 13.2777 15.5 13.2777C17.2064 13.2777 18.72 12.8593 19.7777 12.1803V12.8888ZM4.22218 14.5136C5.27996 15.1926 6.79352 15.6111 8.49996 15.6111C10.2064 15.6111 11.72 15.1926 12.7777 14.5136V15.2222C12.7777 16.14 10.9484 17.1666 8.49996 17.1666C6.05152 17.1666 4.22218 16.14 4.22218 15.2222V14.5136ZM19.7777 9.77774C19.7777 10.6955 17.9484 11.7222 15.5 11.7222C15.0838 11.7222 14.6755 11.6926 14.282 11.6351C14.1318 10.9452 13.6597 10.3253 12.9551 9.82829C13.7204 10.0461 14.5822 10.1666 15.5 10.1666C17.2064 10.1666 18.72 9.74818 19.7777 9.06918V9.77774ZM15.5 4.72218C17.9484 4.72218 19.7777 5.74885 19.7777 6.66663C19.7777 7.5844 17.9484 8.61107 15.5 8.61107C13.0515 8.61107 11.2222 7.5844 11.2222 6.66663C11.2222 5.74885 13.0515 4.72218 15.5 4.72218ZM8.49996 10.1666C10.9484 10.1666 12.7777 11.1933 12.7777 12.1111C12.7777 13.0288 10.9484 14.0555 8.49996 14.0555C6.05152 14.0555 4.22218 13.0288 4.22218 12.1111C4.22218 11.1933 6.05152 10.1666 8.49996 10.1666ZM8.49996 20.2777C6.05152 20.2777 4.22218 19.2511 4.22218 18.3333V17.6247C5.27996 18.3037 6.79352 18.7222 8.49996 18.7222C10.2064 18.7222 11.72 18.3037 12.7777 17.6247V18.3333C12.7777 19.2511 10.9484 20.2777 8.49996 20.2777ZM15.5 17.9444C15.1017 17.9444 14.7113 17.9172 14.3333 17.8643V16.3212C14.7144 16.3655 15.1048 16.3888 15.5 16.3888C17.2064 16.3888 18.72 15.9704 19.7777 15.2914V16C19.7777 16.9177 17.9484 17.9444 15.5 17.9444Z" fill="#A7A8AB"/>
</g>
<defs>
<clipPath id="clip0_14753_6001">
<rect width="18.6667" height="18.6667" fill="white" transform="translate(2.66663 3.16663)"/>
</clipPath>
</defs>
</svg>
