<svg width="24" height="24" viewBox="0 0 24 24" fill="none" xmlns="http://www.w3.org/2000/svg">
<g clip-path="url(#clip0_14747_9765)">
<path d="M6.77884 12.0001H10.4445C10.8571 12.0001 11.2527 11.8362 11.5444 11.5445C11.8362 11.2528 12.0001 10.8571 12.0001 10.4445V6.76876C11.999 6.41096 12.0802 6.05772 12.2375 5.73634C12.3947 5.41495 12.6238 5.13404 12.9069 4.91531C13.1753 4.70283 13.4888 4.55487 13.8234 4.48285C14.158 4.41084 14.5046 4.4167 14.8366 4.49998C16.7222 4.96805 18.3916 6.06569 19.5686 7.61137C20.7457 9.15705 21.3599 11.0582 21.3098 13.0004C21.2596 14.9425 20.5481 16.8094 19.2928 18.2923C18.0375 19.7752 16.3137 20.7852 14.4065 21.1553C12.2621 21.5658 10.0419 21.1409 8.20058 19.9676C6.35926 18.7943 5.03618 16.9615 4.50228 14.8444C4.41869 14.512 4.4126 14.1649 4.48448 13.8298C4.55635 13.4946 4.70428 13.1805 4.91684 12.9116C5.13815 12.6289 5.42068 12.4 5.74318 12.2421C6.06568 12.0842 6.41977 12.0015 6.77884 12.0001ZM6.01039 14.4641C6.30819 15.6633 6.91918 16.7619 7.78087 17.6475C8.64256 18.5332 9.72403 19.174 10.9147 19.5045C12.1053 19.8351 13.3623 19.8434 14.5572 19.5287C15.7521 19.214 16.842 18.5876 17.7154 17.7135C18.5888 16.8394 19.2143 15.749 19.528 14.5538C19.8417 13.3587 19.8323 12.1016 19.5008 10.9113C19.1693 9.72093 18.5275 8.64 17.6412 7.77904C16.7549 6.91809 15.6558 6.30801 14.4563 6.0112C14.3537 5.98556 14.2465 5.98431 14.1433 6.00754C14.0401 6.03077 13.9438 6.07784 13.8621 6.14498C13.7655 6.21856 13.6873 6.31339 13.6333 6.4221C13.5794 6.53082 13.5512 6.6505 13.5509 6.77187V10.4445C13.5509 11.2697 13.2232 12.061 12.6397 12.6444C12.0563 13.2279 11.265 13.5556 10.4398 13.5556H6.77495C6.65252 13.5561 6.5318 13.5844 6.42187 13.6383C6.31194 13.6922 6.21566 13.7703 6.14028 13.8668C6.07416 13.9496 6.02811 14.0467 6.00571 14.1503C5.98331 14.2539 5.98518 14.3613 6.01117 14.4641H6.01039Z" fill="currentColor"/>
<path d="M2.93813 8.45797C3.29622 7.14156 3.99184 5.94147 4.95616 4.97647C5.92049 4.01146 7.12009 3.31499 8.43624 2.95597C8.57422 2.91888 8.71647 2.90005 8.85935 2.89997C9.06487 2.89802 9.26874 2.93681 9.45918 3.01411C9.64962 3.09141 9.82285 3.20568 9.96886 3.35033C10.1149 3.49497 10.2308 3.66711 10.3099 3.85681C10.389 4.04651 10.4297 4.25 10.4297 4.45553V8.11108C10.4297 8.72992 10.1839 9.32342 9.74627 9.761C9.30869 10.1986 8.71519 10.4444 8.09635 10.4444H4.42602C4.18594 10.4421 3.94964 10.3845 3.73545 10.276C3.52126 10.1675 3.33497 10.0112 3.19103 9.81899C3.0471 9.62684 2.94941 9.40408 2.90555 9.16804C2.86169 8.93199 2.87284 8.68901 2.93813 8.45797ZM4.88102 8.88886H8.09947C8.30574 8.88886 8.50357 8.80692 8.64944 8.66106C8.7953 8.51519 8.87724 8.31736 8.87724 8.11108L8.88347 4.46097C8.87777 4.45686 8.87103 4.45443 8.86402 4.45397H8.8438C7.78439 4.74259 6.8192 5.30401 6.04455 6.08221C5.26991 6.8604 4.71291 7.82814 4.42913 8.88886H4.88102Z" fill="currentColor"/>
</g>
<defs>
<clipPath id="clip0_14747_9765">
<rect width="18.6667" height="18.6667" fill="currentColor" transform="matrix(-1 0 0 1 21.3334 2.66675)"/>
</clipPath>
</defs>
</svg>
