<svg width="24" height="24" viewBox="0 0 24 24" fill="none" xmlns="http://www.w3.org/2000/svg">
<g clip-path="url(#clip0_13763_32335)">
<path d="M18.2222 12C17.7451 11.9999 17.2743 12.1097 16.8465 12.321C16.4186 12.5322 16.0452 12.8391 15.7551 13.218L15.7007 13.1947C15.9146 12.532 15.9466 11.8241 15.7935 11.1448C15.6404 10.4655 15.3077 9.83981 14.8301 9.33303C14.3526 8.82625 13.7478 8.45698 13.0788 8.26379C12.4098 8.0706 11.7012 8.06058 11.027 8.23477L10.9562 8.10099C11.5212 7.59833 11.8834 6.90689 11.9751 6.15627C12.0668 5.40564 11.8816 4.64734 11.4542 4.02349C11.0268 3.39964 10.3866 2.95306 9.65353 2.76743C8.92046 2.58181 8.14486 2.66989 7.47208 3.01517C6.7993 3.36044 6.27553 3.93921 5.99892 4.64301C5.72231 5.34681 5.71186 6.12733 5.96951 6.83829C6.22717 7.54924 6.73525 8.14184 7.39853 8.50501C8.06182 8.86819 8.83478 8.97702 9.57256 8.8111L9.62934 8.91765C8.8516 9.51447 8.32842 10.3834 8.16482 11.35C8.00122 12.3166 8.20932 13.3093 8.74734 14.1288L7.28123 15.5C6.61853 15.1339 5.84507 15.0219 5.10578 15.1852C4.36648 15.3485 3.7121 15.7757 3.26525 16.3869C2.8184 16.9981 2.60975 17.7513 2.67841 18.5053C2.74707 19.2592 3.08832 19.9623 3.63822 20.4827C4.18811 21.0032 4.90891 21.3052 5.66554 21.3322C6.42216 21.3593 7.16269 21.1095 7.74835 20.6297C8.33401 20.1499 8.7246 19.473 8.84693 18.7258C8.96927 17.9787 8.81495 17.2125 8.41289 16.571L9.84245 15.2348C10.6276 15.7596 11.5771 15.9803 12.5132 15.8556C13.4493 15.7309 14.3079 15.2693 14.9283 14.5573L15.1453 14.6499C15.0512 15.2779 15.1515 15.9197 15.4328 16.489C15.714 17.0584 16.1628 17.528 16.7188 17.8349C17.2748 18.1418 17.9113 18.2711 18.543 18.2056C19.1746 18.1401 19.7711 17.8829 20.2523 17.4685C20.7335 17.0541 21.0763 16.5023 21.2348 15.8874C21.3932 15.2724 21.3597 14.6237 21.1387 14.0284C20.9177 13.433 20.5198 12.9196 19.9984 12.557C19.4771 12.1944 18.8573 12 18.2222 12ZM7.33334 5.77777C7.33334 5.47011 7.42457 5.16936 7.5955 4.91355C7.76642 4.65774 8.00937 4.45836 8.29361 4.34062C8.57785 4.22288 8.89062 4.19208 9.19237 4.2521C9.49412 4.31212 9.77129 4.46027 9.98884 4.67782C10.2064 4.89537 10.3545 5.17254 10.4146 5.47429C10.4746 5.77604 10.4438 6.08881 10.326 6.37305C10.2083 6.65729 10.0089 6.90024 9.75311 7.07116C9.4973 7.24209 9.19655 7.33332 8.88889 7.33332C8.47633 7.33332 8.08067 7.16943 7.78895 6.87771C7.49723 6.58599 7.33334 6.19033 7.33334 5.77777ZM5.77778 19.7778C5.47012 19.7778 5.16937 19.6865 4.91356 19.5156C4.65775 19.3447 4.45837 19.1017 4.34064 18.8175C4.2229 18.5333 4.19209 18.2205 4.25212 17.9187C4.31214 17.617 4.46029 17.3398 4.67784 17.1223C4.89539 16.9047 5.17256 16.7566 5.47431 16.6965C5.77606 16.6365 6.08883 16.6673 6.37307 16.7851C6.65731 16.9028 6.90025 17.1022 7.07118 17.358C7.24211 17.6138 7.33334 17.9146 7.33334 18.2222C7.33334 18.6348 7.16945 19.0304 6.87773 19.3222C6.586 19.6139 6.19034 19.7778 5.77778 19.7778ZM12 14.3333C11.495 14.3323 11.0039 14.1675 10.6006 13.8636C10.1972 13.5598 9.90331 13.1332 9.76304 12.6481C9.62277 12.1629 9.6437 11.6454 9.82266 11.1731C10.0016 10.7009 10.329 10.2994 10.7556 10.0291L11.0721 9.86032C11.3902 9.72196 11.7351 9.65626 12.0818 9.66799C12.4285 9.67973 12.7682 9.76861 13.0761 9.92816C13.3841 10.0877 13.6527 10.3139 13.8622 10.5903C14.0718 10.8668 14.2171 11.1864 14.2875 11.526C14.358 11.8657 14.3518 12.2168 14.2695 12.5537C14.1872 12.8907 14.0308 13.205 13.8117 13.4739C13.5926 13.7428 13.3163 13.9595 13.0029 14.1082C12.6895 14.2568 12.3469 14.3337 12 14.3333ZM18.2222 16.6667C17.9146 16.6667 17.6138 16.5754 17.358 16.4045C17.1022 16.2336 16.9028 15.9906 16.7851 15.7064C16.6673 15.4221 16.6365 15.1094 16.6966 14.8076C16.7566 14.5059 16.9047 14.2287 17.1223 14.0112C17.3398 13.7936 17.617 13.6455 17.9188 13.5854C18.2205 13.5254 18.5333 13.5562 18.8175 13.674C19.1018 13.7917 19.3447 13.9911 19.5156 14.2469C19.6866 14.5027 19.7778 14.8034 19.7778 15.1111C19.7778 15.5237 19.6139 15.9193 19.3222 16.211C19.0304 16.5028 18.6348 16.6667 18.2222 16.6667Z" fill="currentColor"/>
</g>
<defs>
<clipPath id="clip0_13763_32335">
<rect width="18.6667" height="18.6667" fill="currentColor" transform="translate(2.66666 2.66663)"/>
</clipPath>
</defs>
</svg>
