<svg width="12" height="12" viewBox="0 0 12 12" fill="none" xmlns="http://www.w3.org/2000/svg">
<path d="M1.92576 3.69782C2.08042 3.69795 2.22869 3.7595 2.33798 3.86893L5.32154 6.85248C5.41182 6.94279 5.51901 7.01443 5.63698 7.0633C5.75496 7.11218 5.8814 7.13733 6.0091 7.13733C6.13679 7.13733 6.26324 7.11218 6.38121 7.0633C6.49918 7.01443 6.60637 6.94279 6.69665 6.85248L9.67632 3.87282C9.78634 3.76656 9.93369 3.70776 10.0866 3.70909C10.2396 3.71042 10.3859 3.77177 10.494 3.87992C10.6022 3.98808 10.6635 4.13438 10.6649 4.28733C10.6662 4.44028 10.6074 4.58763 10.5012 4.69765L7.52382 7.67732C7.12238 8.07796 6.57839 8.30298 6.01123 8.30298C5.44408 8.30298 4.90009 8.07796 4.49865 7.67732L1.51315 4.69376C1.43152 4.61218 1.37592 4.50822 1.35339 4.39503C1.33086 4.28183 1.34241 4.16451 1.38658 4.05788C1.43075 3.95126 1.50556 3.86014 1.60154 3.79604C1.69752 3.73195 1.81035 3.69776 1.92576 3.69782Z" fill="white"/>
</svg>
