<svg width="24" height="24" viewBox="0 0 24 24" fill="none" xmlns="http://www.w3.org/2000/svg">
<g clip-path="url(#clip0_13763_32325)">
<path d="M15.6011 4.92217C14.989 4.40341 14.3473 3.85817 13.694 3.26394C13.1928 2.80814 12.5159 2.5969 11.8444 2.68684C11.1937 2.77281 10.6148 3.14319 10.264 3.69794C9.33686 5.24727 8.68133 6.94364 8.32576 8.71384C8.18623 8.51237 8.06245 8.30048 7.95552 8.07994C7.58715 7.30382 6.65936 6.97325 5.88323 7.34162C5.69532 7.4308 5.52722 7.55676 5.38886 7.71204C4.08427 9.04518 3.36104 10.8409 3.37752 12.7061C3.34044 16.6266 5.97751 20.0686 9.77242 21.0533C10.4785 21.2309 11.2034 21.3228 11.9315 21.327C11.9549 21.327 12.203 21.3247 12.3033 21.3177C16.9466 21.1673 20.6313 17.3566 20.6255 12.7108C20.6224 9.18751 18.2953 7.21194 15.6011 4.92217ZM11.9121 19.766C11.3332 19.722 10.7612 19.4875 10.3293 19.1391C9.65302 18.6606 9.2055 17.9588 9.09889 17.1504C8.96666 15.8888 9.74446 14.2391 11.3335 12.3756C11.5001 12.181 11.7438 12.0695 12 12.0707C12.2529 12.0689 12.4934 12.1801 12.6557 12.374C14.1117 14.1023 14.9113 15.6967 14.9113 16.8641C14.9068 18.3979 13.7079 19.6113 12.1813 19.759C12.1142 19.7655 12 19.7754 11.9121 19.766ZM16.3369 18.2867C16.291 18.3225 16.2405 18.3513 16.1938 18.3855C16.3732 17.8977 16.4657 17.3823 16.4668 16.8626C16.4668 14.8971 15.0396 12.7909 13.8434 11.3699C13.3857 10.8279 12.7125 10.5149 12.0031 10.5143H12C11.2892 10.5131 10.6136 10.8239 10.152 11.3644C8.25032 13.592 7.37689 15.5932 7.55576 17.3129C7.59823 17.7121 7.7002 18.1027 7.85832 18.4718C6.01142 17.1335 4.92317 14.9868 4.93542 12.7061C4.9204 11.2245 5.50468 9.79961 6.55552 8.755C6.73493 9.12797 6.95037 9.48249 7.19876 9.81357C7.5399 10.2748 8.12268 10.4888 8.68119 10.358C9.25063 10.232 9.69276 9.78291 9.80976 9.21157C10.1222 7.55986 10.7194 5.97502 11.5745 4.5278C11.6797 4.36236 11.8535 4.25276 12.0482 4.22914C12.2657 4.19986 12.485 4.26851 12.6471 4.41657C13.3144 5.02324 13.9693 5.58324 14.5915 6.10981C17.1878 8.31481 19.0645 9.90771 19.0645 12.7108C19.0712 14.8922 18.0643 16.953 16.3392 18.2882L16.3369 18.2867Z" fill="currentColor"/>
</g>
<defs>
<clipPath id="clip0_13763_32325">
<rect width="18.6667" height="18.6667" fill="currentColor" transform="translate(2.66666 2.66663)"/>
</clipPath>
</defs>
</svg>
