<svg width="21" height="20" viewBox="0 0 21 20" fill="none" xmlns="http://www.w3.org/2000/svg">
<path fill-rule="evenodd" clip-rule="evenodd" d="M2.59717 10.571C2.59717 10.1887 2.89997 9.87878 3.2735 9.87878H17.4764C17.8499 9.87878 18.1527 10.1887 18.1527 10.571C18.1527 10.9533 17.8499 11.2632 17.4764 11.2632H3.2735C2.89997 11.2632 2.59717 10.9533 2.59717 10.571Z" fill="currentColor"/>
<path fill-rule="evenodd" clip-rule="evenodd" d="M12.1957 4.0256C12.1957 3.64329 12.4985 3.33337 12.872 3.33337H13.687C15.455 3.33337 16.888 4.79989 16.888 6.60899V7.65633C16.888 8.03864 16.5852 8.34856 16.2117 8.34856C15.8382 8.34856 15.5354 8.03864 15.5354 7.65633V6.60899C15.5354 5.56474 14.7082 4.71783 13.687 4.71783H12.872C12.4985 4.71783 12.1957 4.40791 12.1957 4.0256Z" fill="currentColor"/>
<path fill-rule="evenodd" clip-rule="evenodd" d="M7.063 4.71783C6.04182 4.71783 5.2146 5.56474 5.2146 6.60899V7.65633C5.2146 8.03864 4.91179 8.34856 4.53827 8.34856C4.16474 8.34856 3.86194 8.03864 3.86194 7.65633V6.60899C3.86194 4.79989 5.295 3.33337 7.063 3.33337H7.89894C8.27247 3.33337 8.57527 3.64329 8.57527 4.0256C8.57527 4.40791 8.27247 4.71783 7.89894 4.71783H7.063Z" fill="currentColor"/>
<path fill-rule="evenodd" clip-rule="evenodd" d="M16.2117 9.87805C16.5852 9.87805 16.888 10.188 16.888 10.5703V13.3904C16.888 15.2001 15.4551 16.6667 13.687 16.6667H12.872C12.4985 16.6667 12.1957 16.3568 12.1957 15.9745C12.1957 15.5922 12.4985 15.2823 12.872 15.2823H13.687C14.708 15.2823 15.5354 14.4355 15.5354 13.3904V10.5703C15.5354 10.188 15.8382 9.87805 16.2117 9.87805Z" fill="currentColor"/>
<path fill-rule="evenodd" clip-rule="evenodd" d="M4.53839 9.87805C4.91192 9.87805 5.21472 10.188 5.21472 10.5703V13.3904C5.21472 14.4355 6.04206 15.2823 7.06312 15.2823H7.89907C8.27259 15.2823 8.57539 15.5922 8.57539 15.9745C8.57539 16.3568 8.27259 16.6667 7.89907 16.6667H7.06312C5.29501 16.6667 3.86206 15.2001 3.86206 13.3904V10.5703C3.86206 10.188 4.16486 9.87805 4.53839 9.87805Z" fill="currentColor"/>
</svg>
