<svg width="24" height="24" viewBox="0 0 24 24" fill="none" xmlns="http://www.w3.org/2000/svg">
<g clip-path="url(#clip0_13763_32294)">
<path d="M19.6222 7.00585L14.1778 3.33163C13.5355 2.89483 12.7767 2.66125 12 2.66125C11.2233 2.66125 10.4645 2.89483 9.82221 3.33163L4.37777 7.00585C3.85055 7.36221 3.41884 7.8425 3.12051 8.40459C2.82218 8.96668 2.66633 9.59339 2.66666 10.2297V17.4444C2.66789 18.4754 3.07801 19.4639 3.80705 20.1929C4.53609 20.9219 5.52453 21.3321 6.55555 21.3333H17.4444C18.4755 21.3321 19.4639 20.9219 20.1929 20.1929C20.922 19.4639 21.3321 18.4754 21.3333 17.4444V10.2297C21.3336 9.59339 21.1778 8.96668 20.8795 8.40459C20.5811 7.8425 20.1494 7.36221 19.6222 7.00585ZM19.7778 17.4444C19.7778 18.0632 19.5319 18.6567 19.0944 19.0943C18.6568 19.5319 18.0633 19.7777 17.4444 19.7777H6.55555C5.93671 19.7777 5.34322 19.5319 4.90563 19.0943C4.46805 18.6567 4.22221 18.0632 4.22221 17.4444V10.2297C4.22219 9.84779 4.31593 9.47167 4.49521 9.13441C4.67449 8.79714 4.93382 8.50905 5.25044 8.29541L10.6949 4.62118C11.0799 4.35963 11.5346 4.21979 12 4.21979C12.4654 4.21979 12.9201 4.35963 13.3051 4.62118L18.7495 8.29541C19.0662 8.50905 19.3255 8.79714 19.5048 9.13441C19.684 9.47167 19.7778 9.84779 19.7778 10.2297V17.4444ZM12 8.11574C11.0762 8.11563 10.1731 8.38971 9.4052 8.90326C8.63729 9.41681 8.03907 10.1467 7.68633 11.0005C7.33359 11.8544 7.24221 12.7937 7.42374 13.6995C7.60528 14.6053 8.05158 15.4368 8.7061 16.0887L10.1248 17.4763C10.6275 17.9631 11.2998 18.2353 11.9996 18.2353C12.6994 18.2353 13.3717 17.9631 13.8744 17.4763L15.3001 16.0825C15.9529 15.4299 16.3974 14.5983 16.5775 13.693C16.7576 12.7877 16.6652 11.8493 16.312 10.9965C15.9587 10.1437 15.3605 9.41481 14.5929 8.90204C13.8254 8.38926 12.9231 8.11563 12 8.11574ZM14.2058 14.9765L12.7863 16.3649C12.5754 16.5691 12.2932 16.6833 11.9996 16.6833C11.706 16.6833 11.4238 16.5691 11.2129 16.3649L9.79966 14.9827C9.36484 14.5479 9.06865 13.994 8.94848 13.3909C8.82831 12.7878 8.88956 12.1626 9.1245 11.5943C9.35943 11.026 9.75751 10.5401 10.2685 10.1979C10.7794 9.85576 11.3803 9.67268 11.9952 9.67181C12.6102 9.67094 13.2116 9.85233 13.7235 10.1931C14.2354 10.5338 14.6348 11.0186 14.8714 11.5862C15.1079 12.1538 15.1709 12.7788 15.0524 13.3823C14.934 13.9857 14.6394 14.5405 14.2058 14.9765ZM12.7778 12.7777C12.7778 12.9316 12.7322 13.0819 12.6467 13.2099C12.5612 13.3378 12.4398 13.4374 12.2976 13.4963C12.1555 13.5552 11.9991 13.5706 11.8483 13.5406C11.6974 13.5106 11.5588 13.4365 11.45 13.3277C11.3412 13.2189 11.2672 13.0804 11.2372 12.9295C11.2071 12.7786 11.2226 12.6222 11.2814 12.4801C11.3403 12.338 11.44 12.2165 11.5679 12.131C11.6958 12.0456 11.8462 12 12 12C12.2063 12 12.4041 12.0819 12.55 12.2278C12.6958 12.3736 12.7778 12.5715 12.7778 12.7777Z" fill="currentColor"/>
</g>
<defs>
<clipPath id="clip0_13763_32294">
<rect width="18.6667" height="18.6667" fill="currentColor" transform="translate(2.66666 2.66663)"/>
</clipPath>
</defs>
</svg>
