<svg width="24" height="24" viewBox="0 0 24 24" fill="none" xmlns="http://www.w3.org/2000/svg">
<path d="M14.0674 9.09124L14.0669 9.09141C13.0162 9.43588 12.0452 9.99288 11.2125 10.7288C10.65 11.3223 10.4429 11.9808 10.4821 12.5991C10.5214 13.219 10.8086 13.8017 11.2402 14.2397C11.6718 14.6777 12.2457 14.9689 12.856 15.0088C13.465 15.0486 14.1141 14.8385 14.6994 14.2668C15.321 13.6359 15.9292 12.5016 16.2882 11.4277C16.4676 10.8912 16.5838 10.3729 16.609 9.94303C16.6343 9.50964 16.5664 9.1806 16.3948 9.00645L14.0674 9.09124ZM14.0674 9.09124C14.622 8.90259 15.1291 8.80217 15.5368 8.78983M14.0674 9.09124L15.5368 8.78983M15.5368 8.78983C15.9479 8.7774 16.245 8.85482 16.3948 9.00641L15.5368 8.78983ZM2.61666 15.0492V15.0494L2.61666 17.0754L2.61666 17.0757C2.62086 18.0368 2.96475 18.9646 3.586 19.6905C4.20718 20.4163 5.06446 20.892 6.00214 21.031C8.39601 21.4186 12.1826 21.5808 15.3968 21.0197C17.0037 20.7391 18.4718 20.277 19.5515 19.5685C20.6326 18.8591 21.3274 17.9001 21.3762 16.6292L21.3762 16.6292V16.6273C21.3762 14.6846 20.168 12.5618 18.1557 10.8929C18.3457 10.1118 18.3007 9.29096 18.0264 8.5362C18.0358 8.52748 18.0472 8.51654 18.0604 8.50373C18.0942 8.47081 18.1409 8.42447 18.1958 8.36931C18.3057 8.25895 18.4497 8.1126 18.5934 7.9662C18.6478 7.9108 18.7021 7.8554 18.7545 7.80192C18.8407 7.71402 18.9218 7.63131 18.9896 7.56236C19.0442 7.50692 19.09 7.46048 19.123 7.42747C19.1263 7.42418 19.1294 7.42102 19.1324 7.418C19.2459 7.60435 19.4066 7.7571 19.5983 7.85997C19.8093 7.97313 20.0484 8.02089 20.2859 7.99725C20.5234 7.97361 20.7488 7.87963 20.9339 7.72711C21.1191 7.57459 21.2558 7.37028 21.3273 7.13966C21.3988 6.90904 21.4019 6.6622 21.3362 6.42982C21.2705 6.19743 21.1389 5.98967 20.9577 5.83243C20.7764 5.67518 20.5535 5.57541 20.3167 5.54565C20.1225 5.52125 19.926 5.54479 19.7438 5.6134C19.8116 5.42842 19.8349 5.22901 19.8109 5.03193C19.7816 4.79204 19.6835 4.56609 19.5286 4.38221C19.3736 4.19833 19.1688 4.06463 18.9394 3.99786C18.71 3.9311 18.4663 3.93424 18.2387 4.00691C18.0111 4.07958 17.8096 4.21852 17.6594 4.40633C17.5092 4.59414 17.4167 4.82254 17.3935 5.06312C17.3702 5.30369 17.4172 5.54592 17.5286 5.75969C17.6299 5.95419 17.7805 6.11736 17.9645 6.23267L17.9554 6.242C17.9228 6.27512 17.8768 6.32155 17.8218 6.37692C17.7788 6.42024 17.7304 6.46902 17.6786 6.52113C17.5982 6.60214 17.5097 6.69118 17.4215 6.7802C17.2764 6.92651 17.1316 7.073 17.023 7.18418C16.9688 7.23974 16.9234 7.28666 16.8915 7.32038C16.8818 7.33068 16.8732 7.33987 16.8659 7.34777C16.2962 7.05693 15.4487 7.06341 14.5819 7.23071C13.7013 7.40067 12.7888 7.73901 12.1022 8.11801C7.45525 6.95524 2.63934 9.86666 2.61666 15.0492ZM6.23658 19.3701L6.2356 19.37C5.69194 19.2897 5.19458 19.0141 4.83408 18.593C4.47359 18.1719 4.27394 17.6333 4.27162 17.0753L4.27162 15.0494L4.27162 15.0491C4.26719 14.2916 4.41874 13.5416 4.71654 12.8471C5.01433 12.1525 5.4518 11.5288 6.00085 11.0159C6.54991 10.503 7.19846 10.1121 7.90492 9.86834C8.58159 9.63485 9.29713 9.54122 10.0094 9.59258C8.92461 10.9495 8.65792 12.316 8.92201 13.4834C9.19058 14.6707 10.0068 15.6458 11.0557 16.1908C12.1049 16.736 13.389 16.8518 14.5937 16.3177C15.7838 15.7901 16.8899 14.6312 17.6166 12.6405C18.9944 14.0597 19.6332 15.2028 19.7176 16.1174C19.8024 17.037 19.3271 17.7383 18.4435 18.2703C17.5577 18.8035 16.268 19.1618 14.7442 19.3903C13.2219 19.6187 11.4708 19.7169 9.66487 19.7331C8.51597 19.6819 7.37115 19.5607 6.23658 19.3701Z" fill="currentColor" stroke="#FF8B00" stroke-width="0.1"/>
</svg>
