<svg width="25" height="24" viewBox="0 0 25 24" fill="none" xmlns="http://www.w3.org/2000/svg">
<g clip-path="url(#clip0_14766_21778)">
<path d="M14.1499 12.0002L21.4918 4.65905C21.9476 4.2033 21.9476 3.46439 21.4918 3.00868C21.0361 2.55293 20.2972 2.55293 19.8415 3.00868L12.5003 10.3506L5.15917 3.00868C4.70342 2.55293 3.96451 2.55293 3.5088 3.00868C3.05309 3.46443 3.05306 4.20333 3.5088 4.65905L10.8507 12.0002L3.5088 19.3413C3.05306 19.7971 3.05306 20.536 3.5088 20.9917C3.96455 21.4474 4.70346 21.4475 5.15917 20.9917L12.5003 13.6498L19.8414 20.9917C20.2972 21.4475 21.0361 21.4475 21.4918 20.9917C21.9475 20.536 21.9475 19.7971 21.4918 19.3413L14.1499 12.0002Z" fill="#F7002E"/>
</g>
<defs>
<clipPath id="clip0_14766_21778">
<rect width="18.6667" height="18.6667" fill="white" transform="translate(3.16675 2.66663)"/>
</clipPath>
</defs>
</svg>
