<svg width="16" height="16" viewBox="0 0 16 16" fill="none" xmlns="http://www.w3.org/2000/svg">
<g clip-path="url(#clip0_14743_9007)">
<path fill-rule="evenodd" clip-rule="evenodd" d="M8.00005 2.99192C5.23392 2.99192 2.99192 5.23392 2.99192 8.00005C2.99192 10.7662 5.23392 13.0082 8.00005 13.0082C10.7662 13.0082 13.0082 10.7662 13.0082 8.00005C13.0082 5.23392 10.7662 2.99192 8.00005 2.99192ZM1.77783 8.00005C1.77783 4.56339 4.56339 1.77783 8.00005 1.77783C11.4367 1.77783 14.2223 4.56339 14.2223 8.00005C14.2223 11.4367 11.4367 14.2223 8.00005 14.2223C4.56339 14.2223 1.77783 11.4367 1.77783 8.00005Z" fill="currentColor"/>
<path fill-rule="evenodd" clip-rule="evenodd" d="M7.79455 4.87158C8.12981 4.87158 8.40159 5.14337 8.40159 5.47863V8.07626L10.3941 9.2649C10.682 9.43666 10.7762 9.80931 10.6044 10.0972C10.4327 10.3851 10.06 10.4793 9.77211 10.3076L7.48355 8.94231C7.29995 8.83279 7.1875 8.63476 7.1875 8.42098V5.47863C7.1875 5.14337 7.45928 4.87158 7.79455 4.87158Z" fill="currentColor"/>
</g>
<defs>
<clipPath id="clip0_14743_9007">
<rect width="12.4444" height="12.4444" fill="currentColor" transform="translate(1.77783 1.77783)"/>
</clipPath>
</defs>
</svg>
