<svg width="22" height="22" viewBox="0 0 22 22" fill="none" xmlns="http://www.w3.org/2000/svg">
<path d="M15.2215 3.51744C15.2212 3.80098 15.1084 4.07281 14.9078 4.27318L9.43793 9.74303C9.27237 9.90855 9.14103 10.1051 9.05143 10.3213C8.96183 10.5376 8.91571 10.7694 8.91571 11.0036C8.91571 11.2377 8.96183 11.4695 9.05143 11.6858C9.14103 11.902 9.27237 12.0986 9.43793 12.2641L14.9007 17.7268C15.0955 17.9285 15.2033 18.1986 15.2008 18.479C15.1984 18.7594 15.0859 19.0277 14.8876 19.226C14.6893 19.4242 14.4211 19.5367 14.1407 19.5392C13.8603 19.5416 13.5902 19.4338 13.3885 19.239L7.92573 13.7805C7.19121 13.0446 6.77869 12.0473 6.77869 11.0075C6.77869 9.96768 7.19121 8.97037 7.92573 8.2344L13.3956 2.76099C13.5452 2.61132 13.7358 2.50939 13.9433 2.46809C14.1508 2.42678 14.3659 2.44796 14.5614 2.52894C14.7568 2.60993 14.9239 2.74708 15.0414 2.92303C15.1589 3.09899 15.2216 3.30585 15.2215 3.51744Z" fill="currentColor"/>
</svg>
