<svg width="12" height="12" viewBox="0 0 12 12" fill="none" xmlns="http://www.w3.org/2000/svg">
<g clip-path="url(#clip0_14753_2633)">
<path d="M10.0834 5.41671H6.58337V1.91671C6.58337 1.59454 6.32221 1.33337 6.00004 1.33337C5.67788 1.33337 5.41671 1.59454 5.41671 1.91671V5.41671H1.91671C1.59454 5.41671 1.33337 5.67788 1.33337 6.00004C1.33337 6.32221 1.59454 6.58337 1.91671 6.58337H5.41671V10.0834C5.41671 10.4055 5.67788 10.6667 6.00004 10.6667C6.32221 10.6667 6.58337 10.4055 6.58337 10.0834V6.58337H10.0834C10.4055 6.58337 10.6667 6.32221 10.6667 6.00004C10.6667 5.67788 10.4055 5.41671 10.0834 5.41671Z" fill="white"/>
</g>
<defs>
<clipPath id="clip0_14753_2633">
<rect width="9.33333" height="9.33333" fill="white" transform="translate(1.33337 1.33337)"/>
</clipPath>
</defs>
</svg>
