<svg width="24" height="24" viewBox="0 0 24 24" fill="none" xmlns="http://www.w3.org/2000/svg">
<path fill-rule="evenodd" clip-rule="evenodd" d="M8.05281 5.47887C7.75154 5.6056 7.39286 5.80932 6.88894 6.10026C6.38237 6.39273 6.02529 6.59979 5.76189 6.79686C5.50388 6.98989 5.43086 7.10613 5.4054 7.17101C5.38599 7.22047 5.35302 7.34221 5.44046 7.64758C5.53182 7.9666 5.73279 8.40898 6.09993 9.04489C6.46708 9.6808 6.7497 10.076 6.9803 10.3147C7.20104 10.5431 7.32296 10.5754 7.37549 10.5833C7.44441 10.5937 7.58158 10.5886 7.87776 10.4617C8.18013 10.3321 8.53799 10.1264 9.04456 9.8339C9.54848 9.54296 9.90425 9.3342 10.1646 9.13666C10.4196 8.94321 10.4937 8.82482 10.5201 8.75656C10.5409 8.70266 10.5725 8.57748 10.4857 8.27351C10.3951 7.95596 10.1962 7.51731 9.83357 6.88927C9.47097 6.26124 9.19054 5.86966 8.96085 5.63239C8.74098 5.40527 8.61678 5.37004 8.5597 5.36111C8.4874 5.34981 8.34783 5.35477 8.05281 5.47887ZM10.1999 4.43293C10.5772 4.82268 10.9412 5.35879 11.327 6.02703C11.7128 6.69527 11.9951 7.2786 12.144 7.80022C12.2967 8.33542 12.3262 8.86662 12.1288 9.37779C11.9369 9.8746 11.5767 10.23 11.2069 10.5105C10.8425 10.787 10.383 11.0524 9.9068 11.3274C9.89065 11.3367 9.87452 11.346 9.85841 11.3553C9.402 11.6189 8.96065 11.8738 8.55703 12.0467C8.13299 12.2285 7.64588 12.368 7.11843 12.2885C6.5746 12.2066 6.12806 11.9144 5.74023 11.513C5.36225 11.1219 4.99618 10.5821 4.60648 9.90714C4.21677 9.23214 3.93235 8.64523 3.78261 8.12233C3.62896 7.58579 3.59918 7.05299 3.8001 6.54102C3.99497 6.04448 4.35941 5.69243 4.72881 5.41605C5.08041 5.153 5.52183 4.89822 5.9783 4.63475C5.99441 4.62545 6.01055 4.61613 6.0267 4.60681C6.50293 4.33185 6.96254 4.06664 7.38414 3.88929C7.81199 3.70932 8.29987 3.57506 8.82605 3.65731C9.36744 3.74195 9.81275 4.03304 10.1999 4.43293Z" fill="currentColor"/>
<path fill-rule="evenodd" clip-rule="evenodd" d="M15.3414 6.64814C15.3005 6.97242 15.2976 7.3849 15.2976 7.96678C15.2976 8.55171 15.2983 8.96449 15.3373 9.29113C15.3755 9.61109 15.4396 9.73244 15.4831 9.78694C15.5162 9.82847 15.6052 9.9179 15.9133 9.99486C16.2353 10.0752 16.7189 10.1224 17.4532 10.1224C18.1875 10.1224 18.6711 10.0752 18.993 9.99486C19.3012 9.9179 19.3901 9.82847 19.4233 9.78694C19.4667 9.73245 19.5309 9.61109 19.5691 9.29113C19.608 8.96449 19.6088 8.55171 19.6088 7.96678C19.6088 7.3849 19.6059 6.97242 19.565 6.64814C19.525 6.3306 19.4595 6.20725 19.4135 6.15029C19.3773 6.10531 19.2847 6.01537 18.978 5.93852C18.6577 5.85823 18.1784 5.81116 17.4532 5.81116C16.728 5.81116 16.2487 5.85823 15.9283 5.93852C15.6217 6.01537 15.5291 6.10531 15.4928 6.15029C15.4469 6.20725 15.3814 6.3306 15.3414 6.64814ZM15.5091 4.26577C16.0353 4.13389 16.6816 4.08667 17.4532 4.08667C18.2248 4.08667 18.8711 4.13389 19.3973 4.26577C19.9372 4.40108 20.4119 4.64118 20.7559 5.06772C21.0902 5.48228 21.2179 5.97192 21.2759 6.43243C21.3332 6.88622 21.3333 7.41687 21.3333 7.96678C21.3333 7.98542 21.3333 8.00405 21.3333 8.02266C21.3334 8.54971 21.3334 9.05938 21.2814 9.4954C21.2268 9.9535 21.1041 10.4451 20.7715 10.8622C20.4286 11.2922 19.9523 11.5328 19.4108 11.668C18.8831 11.7997 18.2326 11.8469 17.4532 11.8469C16.6738 11.8469 16.0233 11.7997 15.4956 11.668C14.9541 11.5328 14.4778 11.2922 14.1348 10.8622C13.8023 10.4451 13.6796 9.9535 13.625 9.4954C13.5729 9.05938 13.573 8.54971 13.5731 8.02266C13.5731 8.00405 13.5731 7.98543 13.5731 7.96678C13.5731 7.41687 13.5732 6.88622 13.6304 6.43243C13.6885 5.97192 13.8161 5.48228 14.1505 5.06772C14.4944 4.64118 14.9692 4.40108 15.5091 4.26577Z" fill="currentColor"/>
<path fill-rule="evenodd" clip-rule="evenodd" d="M5.85496 16.1334C5.81408 16.4576 5.81117 16.8701 5.81117 17.452C5.81117 18.0369 5.81195 18.4497 5.85091 18.7764C5.88908 19.0963 5.95324 19.2177 5.9967 19.2722C6.02982 19.3137 6.11876 19.4031 6.42695 19.4801C6.7489 19.5605 7.2325 19.6076 7.96679 19.6076C8.70108 19.6076 9.18467 19.5605 9.50662 19.4801C9.81481 19.4031 9.90375 19.3137 9.93688 19.2722C9.98033 19.2177 10.0445 19.0963 10.0827 18.7764C10.1216 18.4497 10.1224 18.0369 10.1224 17.452C10.1224 16.8701 10.1195 16.4576 10.0786 16.1334C10.0386 15.8158 9.97309 15.6925 9.92715 15.6355C9.89087 15.5905 9.79826 15.5006 9.49164 15.4237C9.17131 15.3435 8.69198 15.2964 7.96679 15.2964C7.24159 15.2964 6.76226 15.3435 6.44194 15.4237C6.13531 15.5006 6.0427 15.5905 6.00643 15.6355C5.96049 15.6925 5.895 15.8158 5.85496 16.1334ZM6.02268 13.751C6.54886 13.6191 7.19517 13.5719 7.96679 13.5719C8.7384 13.5719 9.38471 13.6191 9.91089 13.751C10.4508 13.8863 10.9255 14.1264 11.2695 14.553C11.6038 14.9675 11.7315 15.4572 11.7896 15.9177C11.8468 16.3715 11.8469 16.9021 11.8469 17.452C11.8469 17.4707 11.8469 17.4893 11.8469 17.5079C11.847 18.0349 11.847 18.5446 11.795 18.9806C11.7404 19.4387 11.6177 19.9304 11.2851 20.3474C10.9422 20.7774 10.4659 21.018 9.92441 21.1532C9.39669 21.285 8.7462 21.3321 7.96679 21.3321C7.18737 21.3321 6.53688 21.285 6.00917 21.1532C5.46768 21.018 4.99137 20.7774 4.64846 20.3474C4.31588 19.9304 4.19321 19.4387 4.13856 18.9806C4.08655 18.5446 4.08661 18.0349 4.08667 17.5079C4.08668 17.4893 4.08668 17.4707 4.08668 17.452C4.08668 16.9021 4.0868 16.3715 4.14401 15.9177C4.20207 15.4572 4.32974 14.9675 4.66407 14.553C5.00806 14.1264 5.48281 13.8863 6.02268 13.751Z" fill="currentColor"/>
<path fill-rule="evenodd" clip-rule="evenodd" d="M15.3414 16.1334C15.3005 16.4576 15.2976 16.8701 15.2976 17.452C15.2976 18.0369 15.2983 18.4497 15.3373 18.7764C15.3755 19.0963 15.4396 19.2177 15.4831 19.2722C15.5162 19.3137 15.6052 19.4031 15.9133 19.4801C16.2353 19.5605 16.7189 19.6076 17.4532 19.6076C18.1875 19.6076 18.6711 19.5605 18.993 19.4801C19.3012 19.4031 19.3901 19.3137 19.4233 19.2722C19.4667 19.2177 19.5309 19.0963 19.5691 18.7764C19.608 18.4497 19.6088 18.0369 19.6088 17.452C19.6088 16.8701 19.6059 16.4576 19.565 16.1334C19.525 15.8158 19.4595 15.6925 19.4135 15.6355C19.3773 15.5905 19.2847 15.5006 18.978 15.4237C18.6577 15.3435 18.1784 15.2964 17.4532 15.2964C16.728 15.2964 16.2487 15.3435 15.9283 15.4237C15.6217 15.5006 15.5291 15.5905 15.4928 15.6355C15.4469 15.6925 15.3814 15.8158 15.3414 16.1334ZM15.5091 13.751C16.0353 13.6191 16.6816 13.5719 17.4532 13.5719C18.2248 13.5719 18.8711 13.6191 19.3973 13.751C19.9372 13.8863 20.4119 14.1264 20.7559 14.553C21.0902 14.9675 21.2179 15.4572 21.2759 15.9177C21.3332 16.3715 21.3333 16.9021 21.3333 17.452C21.3333 17.4707 21.3333 17.4893 21.3333 17.5079C21.3334 18.0349 21.3334 18.5446 21.2814 18.9806C21.2268 19.4387 21.1041 19.9304 20.7715 20.3474C20.4286 20.7774 19.9523 21.018 19.4108 21.1532C18.8831 21.285 18.2326 21.3321 17.4532 21.3321C16.6738 21.3321 16.0233 21.285 15.4956 21.1532C14.9541 21.018 14.4778 20.7774 14.1348 20.3474C13.8023 19.9304 13.6796 19.4387 13.625 18.9806C13.5729 18.5446 13.573 18.0349 13.5731 17.5079C13.5731 17.4893 13.5731 17.4707 13.5731 17.452C13.5731 16.9021 13.5732 16.3715 13.6304 15.9177C13.6885 15.4572 13.8161 14.9675 14.1505 14.553C14.4944 14.1264 14.9692 13.8863 15.5091 13.751Z" fill="currentColor"/>
</svg>
