<svg width="223" height="50" viewBox="0 0 223 50" fill="none" xmlns="http://www.w3.org/2000/svg">
<path fill-rule="evenodd" clip-rule="evenodd" d="M39.3428 7.9778C40.6664 9.65185 41.5766 11.6104 42.0002 13.6964C42.3344 13.7373 42.6403 13.9029 42.8558 14.1597C43.0713 14.4164 43.1802 14.745 43.1603 15.0786C43.1401 15.4163 42.9911 15.7336 42.7436 15.9662C42.4961 16.1987 42.1687 16.329 41.8279 16.3305H41.7513C41.3973 16.3108 41.0656 16.1525 40.8291 15.8903C40.5926 15.6281 40.4706 15.2834 40.49 14.932C40.4992 14.7574 40.5436 14.5864 40.6207 14.4291C40.6978 14.2719 40.8059 14.1317 40.9387 14.0169C41.0297 13.9279 41.1376 13.8578 41.2561 13.8105C40.852 11.8535 39.994 10.0169 38.7503 8.44635C37.5065 6.87579 35.9112 5.61448 34.0908 4.76244C33.9962 4.85588 33.8839 4.92988 33.7604 4.9802C33.637 5.03052 33.5047 5.05618 33.3713 5.05571H33.3165C33.1828 5.04984 33.0516 5.01757 32.9306 4.96077C32.8096 4.90397 32.7012 4.8238 32.6118 4.72493C32.5224 4.62607 32.4537 4.5105 32.4098 4.38499C32.366 4.25948 32.3477 4.12654 32.3562 3.99395C32.3725 3.7284 32.4925 3.47962 32.6908 3.30059C32.889 3.12156 33.1499 3.0264 33.4178 3.03538C33.6788 3.05199 33.9236 3.16694 34.1021 3.35672C34.2806 3.5465 34.3793 3.79679 34.3781 4.05641C36.3188 4.96074 38.0192 6.30375 39.3428 7.9778ZM33.6659 4.35179C33.7419 4.27784 33.7871 4.17821 33.7926 4.0727L33.7789 4.02653C33.7778 3.92564 33.7388 3.82879 33.6695 3.75499C33.6319 3.71177 33.5859 3.6767 33.5341 3.65194C33.4823 3.62717 33.4259 3.61326 33.3685 3.61106H33.3466C33.246 3.61448 33.1495 3.65183 33.073 3.71697C32.987 3.79519 32.9342 3.90295 32.9253 4.01839C32.9234 4.13186 32.9655 4.24171 33.0429 4.32524C33.1175 4.41015 33.2226 4.46277 33.3357 4.47188C33.3509 4.47579 33.3669 4.47579 33.3822 4.47188C33.4886 4.46861 33.5899 4.42574 33.6659 4.35179ZM41.3847 14.6794C41.319 14.7659 41.2809 14.87 41.2752 14.9781C41.27 15.1195 41.3205 15.2574 41.416 15.3623C41.5116 15.4673 41.6446 15.5311 41.7869 15.5402C41.9304 15.5466 42.071 15.4991 42.1808 15.4072C42.2876 15.3105 42.3516 15.1758 42.3587 15.0324V15.0026C42.3593 14.922 42.3408 14.8424 42.3047 14.7702C42.2686 14.698 42.2158 14.6353 42.1507 14.5871C42.0661 14.5139 41.9592 14.4709 41.847 14.4649H41.8169C41.683 14.4644 41.5535 14.5127 41.4531 14.6007C41.428 14.6249 41.4051 14.6512 41.3847 14.6794ZM44.4284 17.5518C44.0189 21.0093 42.3921 24.2121 39.8351 26.595H39.8488C42.0134 27.7772 43.8189 29.5142 45.0768 31.6248C46.3347 33.7355 46.999 36.1425 47.0004 38.5948V46.3285C47.0004 46.8106 46.9047 47.2881 46.7188 47.7335C46.5329 48.1789 46.2605 48.5836 45.917 48.9246C45.5735 49.2655 45.1658 49.5359 44.717 49.7204C44.2682 49.9049 43.7872 49.9999 43.3015 49.9999H40.489V38.5513C40.4893 37.6041 40.3016 36.6661 39.9366 35.7909C39.5715 34.9157 39.0363 34.1204 38.3615 33.4506C37.6866 32.7808 36.8854 32.2496 36.0037 31.8873C35.1219 31.5249 34.1768 31.3386 33.2224 31.339H21.6332V20.2652C22.5197 21.8311 23.8565 23.099 25.4728 23.9067C27.0891 24.7145 28.9114 25.0254 30.7067 24.7998C32.502 24.5741 34.1887 23.8221 35.5511 22.64C36.9135 21.4578 37.8898 19.8992 38.355 18.1634C38.4233 18.1798 38.4928 18.1907 38.5629 18.196H38.6505C39.0487 18.1964 39.4317 18.0446 39.7201 17.772C40.0085 17.4995 40.18 17.1271 40.199 16.7323C40.2194 16.3706 40.2194 16.0079 40.199 15.6461C40.3289 15.9659 40.5518 16.2399 40.8393 16.4334C41.1268 16.6268 41.4658 16.7309 41.8131 16.7323H41.9882C42.45 16.6864 42.8745 16.4603 43.1684 16.1039C43.4624 15.7475 43.6017 15.2898 43.5559 14.8315C43.3219 12.5496 42.5547 10.3534 41.3152 8.41749C41.4502 8.34023 41.5768 8.24923 41.6928 8.14594C41.8387 8.01367 41.9665 7.86304 42.0731 7.69788C44.0037 10.6044 44.8379 14.0943 44.4284 17.5518ZM28.1917 37.6499H31.5158C31.9676 37.6506 32.4008 37.8291 32.7202 38.1462C33.0397 38.4633 33.2195 38.8932 33.2203 39.3417V50H28.1917V37.6499ZM38.9448 15.6841C38.8854 14.4131 38.5698 13.1668 38.0167 12.019C37.4636 10.8711 36.6842 9.84501 35.7247 9.00127C35.7555 8.9339 35.7714 8.86074 35.7712 8.78675C35.7795 8.57467 35.7041 8.36775 35.561 8.21003C35.418 8.0523 35.2185 7.95622 35.0052 7.94223C34.7932 7.93438 34.5861 8.00614 34.4252 8.14318C34.3437 8.2131 34.2774 8.29876 34.2304 8.39494C34.1833 8.49111 34.1565 8.59578 34.1516 8.70257C34.1433 8.80765 34.1576 8.91328 34.1934 9.01251C34.2293 9.11173 34.2859 9.2023 34.3595 9.27826C34.4272 9.35816 34.5107 9.42346 34.6048 9.47016C34.6989 9.51686 34.8016 9.54396 34.9067 9.54981H34.9532C35.0909 9.55259 35.2269 9.51884 35.3471 9.45205C36.241 10.243 36.9674 11.2025 37.4841 12.2748C38.0008 13.347 38.2974 14.5106 38.3566 15.6977C38.1519 15.7556 37.9707 15.8758 37.8386 16.0415C37.7066 16.2072 37.6303 16.4099 37.6207 16.621C37.6121 16.7552 37.6304 16.8899 37.6743 17.0172C37.7182 17.1444 37.787 17.2619 37.8767 17.3628C37.9664 17.4636 38.0753 17.546 38.197 17.6051C38.3188 17.6642 38.4511 17.6989 38.5864 17.7072H38.6494C38.9138 17.7041 39.1671 17.6014 39.3582 17.4199C39.5492 17.2384 39.6635 16.9916 39.6781 16.7296C39.6964 16.4981 39.6334 16.2674 39.4997 16.0768C39.366 15.8862 39.17 15.7474 38.9448 15.6841ZM35.1666 8.9714C35.1041 9.02383 35.024 9.05098 34.9422 9.04744C34.9125 9.04769 34.8833 9.0402 34.8574 9.02571C34.8086 9.01563 34.765 8.98868 34.7343 8.94968C34.6817 8.88752 34.6544 8.80811 34.6577 8.72701C34.667 8.6486 34.7015 8.57527 34.7562 8.51792C34.8163 8.4707 34.8902 8.44403 34.9669 8.44188H34.9833C35.0619 8.45145 35.1351 8.48681 35.1912 8.54235C35.1912 8.54883 35.1962 8.55408 35.2014 8.55956C35.2071 8.56556 35.2131 8.57185 35.2131 8.58037C35.2506 8.63459 35.2698 8.69927 35.2678 8.76503C35.2617 8.84408 35.2255 8.91786 35.1666 8.9714ZM38.2636 16.6372C38.2655 16.5443 38.3038 16.4556 38.3703 16.3901C38.4074 16.3515 38.4519 16.3208 38.5013 16.2998C38.5507 16.2788 38.6039 16.2679 38.6576 16.2679H38.6822C38.7869 16.2748 38.8849 16.3215 38.9558 16.3983C38.9907 16.4368 39.0173 16.4819 39.0343 16.5309C39.0512 16.5799 39.058 16.6318 39.0543 16.6834C39.044 16.7854 38.9956 16.8799 38.9187 16.9483C38.8417 17.0166 38.7417 17.0539 38.6384 17.0527C38.5859 17.051 38.5343 17.0388 38.4867 17.0168C38.4391 16.9948 38.3965 16.9634 38.3615 16.9245C38.3265 16.8857 38.2997 16.8402 38.2829 16.7909C38.2661 16.7415 38.2595 16.6892 38.2636 16.6372Z" fill="url(#paint0_linear_13763_35025)"/>
<path d="M33.7253 7.81741C33.5616 8.03294 33.4581 8.28761 33.4254 8.55562C33.3928 8.82362 33.432 9.09543 33.5393 9.34352C32.3618 8.71641 31.0453 8.39068 29.7091 8.39581H21.6409V49.9999H17.7477C17.1936 50.0003 16.6449 49.8922 16.1329 49.6819C15.6209 49.4716 15.1556 49.1632 14.7638 48.7743C14.372 48.3854 14.0613 47.9237 13.8494 47.4155C13.6375 46.9073 13.5286 46.3626 13.529 45.8126V16.4228V8.42568H8.55513C8.36283 8.45221 8.16703 8.4378 7.98077 8.38341C7.79451 8.32903 7.62204 8.23591 7.47484 8.11025C7.32764 7.98459 7.20907 7.82928 7.12702 7.65462C7.04498 7.47997 7.00133 7.28998 6.99898 7.09728C6.99663 6.90459 7.03564 6.7136 7.1134 6.53703C7.19117 6.36045 7.30592 6.20233 7.45001 6.07318C7.59411 5.94402 7.76425 5.84679 7.94914 5.78795C8.13402 5.72911 8.32941 5.71 8.5223 5.73191H9.43335C9.62563 5.7586 9.82142 5.74438 10.0077 5.69017C10.194 5.63596 10.3666 5.54301 10.5139 5.4175C10.6612 5.29199 10.7799 5.13679 10.8621 4.96223C10.9443 4.78766 10.9882 4.59773 10.9907 4.40505C10.9933 4.21237 10.9545 4.02135 10.8769 3.84471C10.7993 3.66807 10.6847 3.50984 10.5408 3.38054C10.3968 3.25124 10.2268 3.15383 10.042 3.09479C9.85718 3.03576 9.66183 3.01644 9.46892 3.03813H6.49227C6.3 3.06483 6.10421 3.0506 5.9179 2.99639C5.7316 2.94219 5.55905 2.84924 5.41174 2.72373C5.26443 2.59822 5.14572 2.44302 5.0635 2.26845C4.98129 2.09389 4.93745 1.90395 4.93491 1.71127C4.93236 1.51859 4.97117 1.32758 5.04875 1.15094C5.12632 0.974294 5.2409 0.816063 5.38485 0.686764C5.5288 0.557465 5.69883 0.460059 5.88363 0.401023C6.06844 0.341986 6.26379 0.322671 6.45671 0.34436H27.4027C27.3073 0.543824 27.2419 0.756075 27.2084 0.974357C27.1948 1.05854 27.1756 1.13728 27.1701 1.22146C27.1365 1.83134 27.3482 2.42953 27.7585 2.88469C28.1689 3.33985 28.7444 3.61478 29.3589 3.64912C29.6543 3.66541 29.9471 3.70343 30.2398 3.73873C29.0661 3.67899 28.1195 4.977 28.9293 6.24785C29.0587 6.41907 29.227 6.55752 29.4205 6.6519C29.614 6.74629 29.8272 6.79393 30.0428 6.79095C30.0583 6.79226 30.0739 6.79226 30.0893 6.79095C31.3634 6.859 32.6075 7.1999 33.7363 7.79025L33.7253 7.81741ZM3.6743 1.69125C3.6743 1.33115 3.53018 0.985801 3.27364 0.731174C3.0171 0.476547 2.66916 0.3335 2.30636 0.3335H1.36795C1.16134 0.335002 0.957759 0.382935 0.772487 0.473704C0.587216 0.564473 0.425067 0.69572 0.298212 0.857589C0.113546 1.08971 0.0124233 1.37648 0.0109438 1.67224C0.0109438 2.03234 0.155066 2.37768 0.411606 2.63231C0.668145 2.88694 1.01609 3.02999 1.37889 3.02999H2.3173C2.6801 3.02999 3.02804 2.88694 3.28458 2.63231C3.54112 2.37768 3.68525 2.03234 3.68525 1.67224L3.6743 1.69125ZM5.42254 7.07879C5.423 6.76016 5.30847 6.45189 5.0997 6.20984C4.97213 6.061 4.81369 5.94125 4.63521 5.85877C4.45673 5.77628 4.26241 5.73301 4.06554 5.73191H1.36795C1.00514 5.73191 0.657202 5.87496 0.400662 6.12958C0.144122 6.38421 0 6.72956 0 7.08965C0 7.44975 0.144122 7.7951 0.400662 8.04973C0.657202 8.30436 1.00514 8.4474 1.36795 8.4474H4.06554C4.24518 8.4474 4.42306 8.41228 4.58903 8.34405C4.75499 8.27582 4.90579 8.17581 5.03282 8.04973C5.15984 7.92365 5.26061 7.77397 5.32935 7.60924C5.3981 7.44451 5.43348 7.26796 5.43348 7.08965L5.42254 7.07879ZM10.4429 4.3633C10.4469 4.4978 10.4239 4.63175 10.3753 4.75737C10.3267 4.88298 10.2535 4.99776 10.1598 5.09503C10.0661 5.19231 9.9539 5.27013 9.82967 5.32399C9.70543 5.37785 9.57165 5.40666 9.43609 5.40876H9.39232C9.18649 5.40681 8.98609 5.34296 8.81758 5.22564C8.64907 5.10832 8.52036 4.94304 8.44843 4.75161H3.35694C3.29207 4.89283 3.18713 5.01223 3.05496 5.09518C2.92279 5.17813 2.76913 5.22105 2.61278 5.21868H2.58542C2.36774 5.21868 2.15897 5.13285 2.00505 4.98007C1.85112 4.8273 1.76465 4.62009 1.76465 4.40403C1.76137 4.29423 1.78007 4.18487 1.81965 4.08228C1.85922 3.9797 1.9189 3.88592 1.99523 3.80637C2.07156 3.72683 2.16302 3.66309 2.26432 3.61885C2.36563 3.57461 2.47476 3.55075 2.58542 3.54865C2.74568 3.54786 2.90295 3.59172 3.03934 3.67525C3.17573 3.75878 3.28577 3.87862 3.35694 4.02115H8.45664C8.52506 3.82907 8.65176 3.66274 8.81932 3.54506C8.98688 3.42738 9.18705 3.36413 9.39232 3.36399C9.5276 3.36038 9.66226 3.38345 9.78851 3.43185C9.91475 3.48026 10.0301 3.55303 10.1278 3.64597C10.2255 3.73891 10.3036 3.85017 10.3577 3.9733C10.4118 4.09643 10.4408 4.22899 10.4429 4.3633ZM9.81911 4.40946C9.82321 4.35642 9.81643 4.30311 9.79919 4.25274C9.78195 4.20237 9.75461 4.15599 9.71881 4.1164C9.68302 4.07682 9.63951 4.04484 9.59092 4.0224C9.54233 3.99996 9.48966 3.98752 9.43609 3.98584C9.37324 3.98548 9.31094 3.99748 9.25279 4.02115C9.18206 4.04699 9.12092 4.09354 9.07743 4.15464C9.03395 4.21573 9.01019 4.2885 9.00929 4.3633C9.00648 4.44203 9.0257 4.51999 9.06481 4.58853C9.10393 4.65708 9.16142 4.71353 9.2309 4.75161C9.28132 4.77567 9.33638 4.78864 9.39232 4.78963H9.43609C9.53702 4.78755 9.63323 4.74683 9.70461 4.67598C9.77599 4.60513 9.81702 4.50963 9.81911 4.40946ZM2.94382 4.40946C2.94753 4.34235 2.93108 4.27566 2.89656 4.21783C2.86204 4.16001 2.81101 4.11366 2.74992 4.08466C2.68884 4.05566 2.62045 4.04531 2.55343 4.05492C2.48641 4.06453 2.42378 4.09368 2.37346 4.13866C2.32315 4.18364 2.28742 4.24244 2.27081 4.30759C2.2542 4.37275 2.25745 4.44134 2.28015 4.50466C2.30285 4.56798 2.34398 4.62319 2.39832 4.66328C2.45267 4.70338 2.51779 4.72656 2.58542 4.72989H2.61278C2.65635 4.73025 2.69956 4.722 2.73989 4.70561C2.78022 4.68923 2.81686 4.66504 2.84767 4.63446C2.87848 4.60387 2.90286 4.56751 2.91936 4.52748C2.93587 4.48745 2.94418 4.44456 2.94382 4.40131V4.40946ZM40.5651 13.0665C40.5585 13.1778 40.5298 13.2868 40.4805 13.387C40.4312 13.4872 40.3623 13.5767 40.2778 13.6503C40.1233 13.7889 39.9224 13.8654 39.7142 13.8648H39.6595C39.547 13.8589 39.4367 13.8309 39.3352 13.7824C39.2337 13.7339 39.1428 13.6659 39.068 13.5823C38.9932 13.4987 38.9358 13.4011 38.8993 13.2953C38.8627 13.1895 38.8477 13.0776 38.8551 12.966C38.8652 12.7606 38.9532 12.5666 39.1014 12.4229C38.527 10.7017 37.4855 9.1711 36.0916 7.99928C34.6976 6.82746 33.0051 6.05983 31.2001 5.78079C31.1064 5.97046 30.9613 6.13042 30.781 6.24268C30.6007 6.35494 30.3924 6.41504 30.1796 6.41621H30.1167C29.8155 6.39551 29.5337 6.26147 29.3288 6.04147C29.2291 5.93064 29.1524 5.80139 29.1031 5.66111C29.0538 5.52083 29.0329 5.37228 29.0416 5.22396C29.0502 5.07565 29.0882 4.93048 29.1535 4.79677C29.2187 4.66307 29.3099 4.54345 29.4218 4.44476C29.6473 4.2453 29.9432 4.14272 30.2448 4.15951C30.5464 4.17631 30.8289 4.31112 31.0305 4.53437C31.1532 4.6739 31.2404 4.84058 31.2849 5.02045C33.237 5.31755 35.0686 6.14389 36.5777 7.40837C38.0868 8.67286 39.2148 10.3264 39.8373 12.1866C40.033 12.2198 40.2125 12.3151 40.3489 12.4582C40.4977 12.6255 40.5752 12.8436 40.5651 13.0665ZM30.4423 4.91997C30.3715 4.87207 30.2896 4.84307 30.2042 4.83579H30.1687C30.0574 4.83419 29.9496 4.875 29.8677 4.94984C29.8222 4.98874 29.785 5.03631 29.7584 5.08974C29.7317 5.14317 29.7161 5.20136 29.7126 5.26087C29.709 5.32038 29.7175 5.38 29.7376 5.43619C29.7576 5.49238 29.7889 5.544 29.8294 5.58798C29.8686 5.63358 29.9173 5.67027 29.972 5.69557C30.0268 5.72087 30.0864 5.73419 30.1468 5.73462C30.2219 5.7415 30.2973 5.72539 30.3629 5.68846C30.4036 5.67786 30.4406 5.65623 30.4696 5.626C30.5614 5.54547 30.6174 5.43229 30.6256 5.31101C30.6289 5.19241 30.5868 5.07697 30.5079 4.98786C30.4882 4.95991 30.4662 4.93357 30.4423 4.90911V4.91997ZM40.0617 13.0447C40.0624 12.9522 40.0294 12.8624 39.9686 12.7922C39.9065 12.7244 39.8201 12.6834 39.7279 12.6781H39.706C39.6194 12.6781 39.5361 12.7111 39.4734 12.7705C39.4395 12.8003 39.4118 12.8366 39.3921 12.8771C39.3723 12.9177 39.3609 12.9617 39.3585 13.0067C39.3547 13.0989 39.3871 13.1889 39.4489 13.2578C39.5106 13.3267 39.5969 13.3691 39.6896 13.376C39.7838 13.3776 39.8749 13.3428 39.9438 13.2789C40.0127 13.2151 40.054 13.1273 40.0589 13.0339L40.0617 13.0447ZM40.2286 5.27299C40.0505 5.26492 39.8729 5.29647 39.7087 5.36532C37.3153 3.03823 34.2336 1.5336 30.9156 1.07212C30.852 0.77954 30.6928 0.516016 30.4627 0.322528C30.2326 0.129039 29.9446 0.01643 29.6434 0.00220882C29.4613 -0.00805021 29.279 0.0174975 29.1069 0.0773888C28.9348 0.13728 28.7763 0.230334 28.6405 0.351201C28.5048 0.472068 28.3944 0.618368 28.3158 0.781696C28.2372 0.945024 28.1919 1.12216 28.1824 1.30293C28.1715 1.48358 28.1972 1.66456 28.2578 1.83524C28.3184 2.00592 28.4128 2.16285 28.5354 2.2968C28.6565 2.43188 28.8036 2.54157 28.968 2.61944C29.1325 2.69732 29.3109 2.7418 29.4929 2.75029H29.5695C29.911 2.75218 30.2409 2.62723 30.4942 2.39999C30.6264 2.28235 30.7342 2.14032 30.8116 1.9818C33.9242 2.42092 36.8137 3.83681 39.0576 6.02247C39.0111 6.13885 38.9825 6.26152 38.9728 6.38634C38.9563 6.69938 39.0654 7.00617 39.276 7.23969C39.4867 7.47322 39.7819 7.61453 40.0972 7.63275H40.1629C40.4785 7.6414 40.7847 7.52523 41.014 7.30982C41.2434 7.09441 41.3771 6.79738 41.3858 6.4841C41.3945 6.17081 41.2775 5.86693 41.0605 5.63929C40.8434 5.41166 40.5442 5.27891 40.2286 5.27027V5.27299ZM29.9635 1.81344C29.8434 1.91355 29.6907 1.96666 29.5339 1.9628C29.3783 1.95322 29.2327 1.88294 29.129 1.76728C29.0762 1.71055 29.0357 1.64372 29.0098 1.57087C28.9839 1.49803 28.9733 1.42072 28.9786 1.34367C28.989 1.19599 29.0555 1.05775 29.1647 0.956921C29.2739 0.856093 29.4176 0.800205 29.5668 0.800566H29.5996C29.7161 0.807587 29.8279 0.848526 29.9211 0.918271C30.0143 0.988015 30.0847 1.08347 30.1235 1.1927C30.1623 1.30193 30.1678 1.4201 30.1394 1.53244C30.1109 1.64477 30.0497 1.74629 29.9635 1.8243V1.81344ZM40.1355 6.91858C40.0119 6.91019 39.8965 6.85402 39.8142 6.76212C39.7318 6.67022 39.689 6.54993 39.6951 6.42708C39.6987 6.36655 39.7144 6.30733 39.7412 6.25282C39.7679 6.19831 39.8053 6.14956 39.851 6.10936C39.9369 6.0332 40.0477 5.99073 40.1629 5.98988H40.1875C40.3111 5.99827 40.4265 6.05444 40.5089 6.14634C40.5912 6.23824 40.634 6.35853 40.628 6.48139C40.612 6.60014 40.5528 6.70901 40.4616 6.78752C40.3705 6.86603 40.2535 6.90877 40.1328 6.90772L40.1355 6.91858Z" fill="url(#paint1_linear_13763_35025)"/>
<path d="M66.1527 44.5396C65.6159 44.5564 65.0836 44.4372 64.6053 44.193C64.1945 43.9723 63.8601 43.6323 63.6462 43.2179C63.4176 42.7504 63.3043 42.235 63.3158 41.7148C63.3098 41.3116 63.3753 40.9105 63.5092 40.5301C63.6292 40.1959 63.8188 39.891 64.0653 39.6355C64.3151 39.3818 64.6178 39.1864 64.9518 39.0633C65.3393 38.9238 65.7491 38.8569 66.1607 38.8658C66.4567 38.8651 66.7517 38.9003 67.0392 38.9706C67.3352 39.0412 67.6172 39.1611 67.8733 39.3252C67.9559 39.3732 68.0187 39.4488 68.0506 39.5388C68.0749 39.6217 68.0749 39.7098 68.0506 39.7927C68.0315 39.8754 67.9912 39.9517 67.9338 40.0143C67.8765 40.0767 67.7998 40.1179 67.7162 40.1311C67.6167 40.1446 67.5156 40.1233 67.4301 40.0707C67.2427 39.9596 67.0406 39.8755 66.8297 39.8209C66.6069 39.7656 66.3781 39.7386 66.1487 39.7403C65.8077 39.7291 65.4699 39.8084 65.1694 39.97C64.9032 40.1252 64.6931 40.3608 64.569 40.6429C64.4274 40.982 64.36 41.3475 64.3716 41.7148C64.3344 42.2429 64.4985 42.7655 64.831 43.1776C65.011 43.353 65.2262 43.4883 65.4624 43.5744C65.6986 43.6606 65.9503 43.6956 66.201 43.6773C66.4078 43.677 66.6142 43.6581 66.8176 43.6208C67.0296 43.5778 67.2383 43.5199 67.4422 43.4476L67.2447 43.8948V42.2266H66.4146C66.36 42.2312 66.3051 42.2247 66.2531 42.2073C66.2012 42.19 66.1533 42.1623 66.1124 42.1258C66.0774 42.0896 66.0501 42.0466 66.0321 41.9995C66.0141 41.9524 66.0058 41.9022 66.0076 41.8518C66.0043 41.8013 66.0119 41.7506 66.03 41.7033C66.048 41.656 66.0762 41.6132 66.1124 41.5778C66.1972 41.5083 66.3052 41.4737 66.4146 41.4811H67.7041C67.7592 41.4775 67.8145 41.4854 67.8665 41.5041C67.9185 41.5228 67.9661 41.552 68.0063 41.5899C68.043 41.63 68.0712 41.677 68.0892 41.7283C68.1072 41.7795 68.1146 41.8339 68.1111 41.8881V43.7901C68.1155 43.8908 68.0933 43.9909 68.0466 44.0802C67.997 44.162 67.9198 44.2234 67.829 44.2535C67.5667 44.3458 67.2971 44.4159 67.0231 44.463C66.7357 44.5137 66.4445 44.5393 66.1527 44.5396Z" fill="#1462B0"/>
<path d="M69.2596 39.8491C69.1049 39.8599 68.952 39.8108 68.8324 39.7121C68.7346 39.6094 68.6801 39.4731 68.6801 39.3313C68.6801 39.1895 68.7346 39.0531 68.8324 38.9505C68.9535 38.8549 69.1056 38.8076 69.2596 38.8175C69.4147 38.8073 69.5682 38.8547 69.6907 38.9505C69.7867 39.054 69.8401 39.1901 69.8401 39.3313C69.8401 39.4725 69.7867 39.6085 69.6907 39.7121C69.5696 39.8107 69.4155 39.8597 69.2596 39.8491ZM69.2596 44.5154C69.1925 44.5193 69.1254 44.5088 69.0629 44.4844C69.0003 44.4601 68.9437 44.4226 68.8969 44.3744C68.8065 44.2603 68.762 44.1166 68.772 43.9714V41.0983C68.7616 40.953 68.8062 40.8092 68.8969 40.6953C68.997 40.6069 69.126 40.5581 69.2596 40.5581C69.3931 40.5581 69.5221 40.6069 69.6222 40.6953C69.6696 40.7505 69.7053 40.8145 69.7275 40.8837C69.7496 40.953 69.7577 41.0259 69.7512 41.0983V43.9714C69.7632 44.1168 69.7184 44.2613 69.6263 44.3744C69.5789 44.4229 69.5216 44.4606 69.4583 44.4849C69.395 44.5093 69.3272 44.5197 69.2596 44.5154Z" fill="#1462B0"/>
<path d="M71.6532 44.5396C71.3981 44.545 71.1453 44.4898 70.9157 44.3784C70.7089 44.284 70.533 44.1331 70.408 43.9432C70.2838 43.7619 70.219 43.5464 70.2226 43.3267C70.2094 43.0844 70.287 42.8459 70.4402 42.6577C70.6353 42.4675 70.8845 42.3423 71.1535 42.2991C71.5891 42.2172 72.0321 42.1807 72.4752 42.1903H72.8782V42.7545H72.4591C72.2003 42.7502 71.9416 42.7663 71.6854 42.8028C71.5382 42.8159 71.398 42.8719 71.2824 42.964C71.2408 43.0046 71.2085 43.0537 71.1876 43.1079C71.1667 43.1622 71.1578 43.2203 71.1615 43.2783C71.159 43.3578 71.1739 43.4369 71.2053 43.51C71.2366 43.5831 71.2836 43.6485 71.3429 43.7014C71.4823 43.8182 71.661 43.8773 71.8426 43.8666C72.001 43.8696 72.1571 43.8286 72.2937 43.7482C72.4302 43.6678 72.5419 43.5512 72.6163 43.4113C72.6972 43.2633 72.7376 43.0964 72.7331 42.9277V42.009C72.7518 41.8074 72.691 41.6064 72.5639 41.4488C72.4003 41.3179 72.1922 41.2557 71.9836 41.2756C71.8184 41.2762 71.6536 41.2937 71.492 41.328C71.3015 41.3705 71.1164 41.434 70.9399 41.5174C70.8606 41.5626 70.7673 41.577 70.678 41.5577C70.606 41.5382 70.544 41.4921 70.5047 41.4287C70.4628 41.3638 70.4404 41.2883 70.4402 41.2111C70.4407 41.1301 70.463 41.0508 70.5047 40.9814C70.5499 40.8999 70.6251 40.8392 70.7143 40.8122C70.9377 40.7194 71.1699 40.6492 71.4074 40.6026C71.6076 40.5611 71.8114 40.5395 72.0158 40.5382C72.3338 40.5261 72.6505 40.5853 72.9427 40.7114C73.1769 40.8192 73.3683 41.0022 73.4867 41.2313C73.6159 41.5112 73.6767 41.8178 73.664 42.1258V44.0238C73.6744 44.1578 73.6325 44.2907 73.5471 44.3945C73.5039 44.4388 73.4516 44.4732 73.3939 44.4954C73.3362 44.5177 73.2744 44.5272 73.2126 44.5235C73.1497 44.5268 73.0868 44.5171 73.0279 44.4949C72.9689 44.4727 72.9152 44.4386 72.8701 44.3945C72.7833 44.2913 72.7399 44.1584 72.7492 44.0238V43.645H72.8137C72.782 43.8166 72.709 43.9779 72.6008 44.1148C72.4927 44.2518 72.3527 44.3602 72.1931 44.4308C72.0226 44.504 71.8387 44.5411 71.6532 44.5396ZM72.0561 40.1876C71.9796 40.1912 71.9037 40.1715 71.8385 40.1312C71.8128 40.114 71.7919 40.0906 71.7778 40.0631C71.7637 40.0355 71.7569 40.0049 71.7579 39.974C71.7546 39.8755 71.7783 39.7779 71.8264 39.6919C71.8686 39.6197 71.9201 39.5533 71.9796 39.4945L72.1327 39.3373C72.1762 39.2887 72.1993 39.2252 72.1972 39.16C72.1989 39.1306 72.1927 39.1012 72.1792 39.075C72.1657 39.0488 72.1455 39.0267 72.1206 39.0109C72.0473 38.978 71.9672 38.9628 71.8869 38.9666H71.7539C71.7032 38.9719 71.6532 38.9827 71.6048 38.9988C71.5362 39.0173 71.4639 39.0173 71.3953 38.9988C71.3677 38.99 71.3428 38.9743 71.3231 38.9531C71.3033 38.9319 71.2893 38.9061 71.2824 38.8779C71.2695 38.8481 71.2628 38.8158 71.2628 38.7832C71.2628 38.7507 71.2695 38.7184 71.2824 38.6885C71.3186 38.6224 71.3794 38.5731 71.4517 38.5515C71.5517 38.5129 71.6558 38.4858 71.762 38.4709C71.8767 38.4544 71.9926 38.4464 72.1085 38.4468C72.3225 38.4344 72.5353 38.4848 72.721 38.5918C72.79 38.634 72.8471 38.6932 72.8866 38.7638C72.9261 38.8344 72.9468 38.9139 72.9467 38.9948C72.9517 39.1082 72.9191 39.2201 72.854 39.3131C72.7985 39.3922 72.7304 39.4616 72.6525 39.5187C72.5795 39.5752 72.5108 39.6372 72.447 39.704C72.3883 39.7723 72.3567 39.8598 72.3584 39.9498C72.3602 39.9783 72.3544 40.0067 72.3417 40.0321C72.3289 40.0576 72.3097 40.0793 72.2858 40.0949C72.2209 40.1491 72.1405 40.1816 72.0561 40.1876Z" fill="#1462B0"/>
<path d="M74.752 39.8491C74.5986 39.8593 74.4471 39.8102 74.3288 39.7121C74.231 39.6094 74.1765 39.4731 74.1765 39.3313C74.1765 39.1895 74.231 39.0531 74.3288 38.9505C74.4545 38.864 74.6034 38.8177 74.756 38.8177C74.9085 38.8177 75.0575 38.864 75.1831 38.9505C75.2791 39.054 75.3325 39.19 75.3325 39.3313C75.3325 39.4725 75.2791 39.6085 75.1831 39.7121C75.0626 39.8118 74.908 39.8609 74.752 39.8491ZM74.752 44.5154C74.6856 44.519 74.6192 44.5083 74.5573 44.4839C74.4954 44.4596 74.4395 44.4222 74.3933 44.3744C74.3011 44.2613 74.2564 44.1168 74.2684 43.9714V41.0983C74.2559 40.9528 74.3008 40.8082 74.3933 40.6953C74.4398 40.6482 74.4959 40.6116 74.5578 40.5879C74.6196 40.5643 74.6859 40.5542 74.752 40.5583C74.8193 40.5541 74.8867 40.5641 74.9499 40.5877C75.0131 40.6113 75.0706 40.648 75.1187 40.6953C75.2127 40.8076 75.2589 40.9523 75.2476 41.0983V43.9714C75.2576 44.1166 75.2131 44.2603 75.1227 44.3744C75.0747 44.4232 75.0167 44.4611 74.9527 44.4854C74.8887 44.5097 74.8203 44.52 74.752 44.5154Z" fill="#1462B0"/>
<path d="M78.1973 44.5235C78.1293 44.5283 78.0611 44.5186 77.9972 44.4949C77.9333 44.4713 77.8751 44.4343 77.8266 44.3865C77.7388 44.2865 77.6926 44.1567 77.6976 44.0238V39.4501C77.6926 39.3813 77.7019 39.3121 77.7248 39.2469C77.7476 39.1818 77.7837 39.122 77.8306 39.0714C77.9338 38.981 78.0684 38.9347 78.2054 38.9424H80.0913C80.5994 38.9116 81.1004 39.0742 81.4936 39.3978C81.6611 39.5613 81.7916 39.7589 81.8764 39.9772C81.9612 40.1954 81.9983 40.4293 81.9852 40.6631C81.9982 40.898 81.9611 41.1331 81.8763 41.3526C81.7915 41.5722 81.6611 41.7712 81.4936 41.9364C81.1024 42.2639 80.6003 42.4284 80.0913 42.3958H78.697V44.0077C78.7056 44.1453 78.6609 44.281 78.5721 44.3865C78.5234 44.4353 78.4646 44.4729 78.3999 44.4966C78.3351 44.5203 78.266 44.5294 78.1973 44.5235ZM78.697 41.606H79.9341C80.2233 41.6271 80.5102 41.5411 80.74 41.3642C80.9165 41.1742 81.0145 40.9244 81.0145 40.6651C81.0145 40.4057 80.9165 40.156 80.74 39.9659C80.5079 39.7943 80.222 39.7114 79.9341 39.7322H78.697V41.606Z" fill="#1462B0"/>
<path d="M82.7992 44.5235C82.7338 44.5274 82.6683 44.518 82.6066 44.4958C82.545 44.4737 82.4885 44.4392 82.4405 44.3945C82.396 44.3442 82.3621 44.2855 82.3406 44.2218C82.3192 44.1581 82.3107 44.0908 82.3156 44.0238V39.3736C82.3103 39.3072 82.3186 39.2404 82.3401 39.1773C82.3616 39.1142 82.3958 39.0562 82.4405 39.0069C82.4885 38.9622 82.545 38.9277 82.6066 38.9056C82.6683 38.8834 82.7338 38.874 82.7992 38.8779C82.8658 38.8743 82.9324 38.8838 82.9954 38.9059C83.0583 38.928 83.1162 38.9623 83.1659 39.0069C83.2114 39.0559 83.2463 39.1137 83.2685 39.1768C83.2907 39.2399 83.2996 39.3069 83.2948 39.3736V41.3884H83.182C83.2858 41.1239 83.4761 40.9023 83.722 40.7598C83.966 40.6157 84.2445 40.5405 84.5279 40.5422C84.7927 40.5306 85.0558 40.5905 85.2895 40.7154C85.4913 40.8353 85.6484 41.0178 85.7368 41.2353C85.8434 41.5169 85.894 41.8167 85.8859 42.1178V44.0238C85.8903 44.0911 85.8812 44.1586 85.859 44.2222C85.8369 44.2859 85.8022 44.3445 85.7569 44.3945C85.7093 44.4396 85.6528 44.4743 85.5911 44.4965C85.5294 44.5187 85.4637 44.5279 85.3983 44.5235C85.3315 44.5299 85.264 44.5213 85.2009 44.4983C85.1378 44.4754 85.0806 44.4386 85.0335 44.3907C84.9864 44.3429 84.9505 44.2851 84.9286 44.2216C84.9067 44.1581 84.8992 44.0905 84.9067 44.0238V42.1742C84.926 41.9449 84.8663 41.716 84.7374 41.5254C84.6723 41.4536 84.5916 41.3978 84.5015 41.3621C84.4113 41.3265 84.3142 41.312 84.2176 41.3199C84.0905 41.3142 83.9637 41.3357 83.8455 41.383C83.7274 41.4302 83.6207 41.5021 83.5326 41.5939C83.3569 41.7887 83.2656 42.0452 83.2787 42.3072V44.0238C83.2882 44.0899 83.2826 44.1573 83.2622 44.2208C83.2418 44.2844 83.2071 44.3425 83.1609 44.3907C83.1147 44.4388 83.0581 44.4758 82.9954 44.4988C82.9327 44.5219 82.8656 44.5303 82.7992 44.5235Z" fill="#1462B0"/>
<path d="M87.7718 44.5396C87.5153 44.5456 87.2611 44.4904 87.0303 44.3784C86.8247 44.2822 86.6491 44.1317 86.5226 43.9432C86.4 43.7611 86.3354 43.5462 86.3372 43.3267C86.3235 43.0836 86.4028 42.8445 86.5588 42.6577C86.7539 42.4675 87.0031 42.3423 87.2721 42.2991C87.7077 42.217 88.1507 42.1805 88.5938 42.1903H88.9968V42.7545H88.5938C88.3337 42.7501 88.0737 42.7662 87.8161 42.8028C87.6693 42.8174 87.5295 42.8733 87.4131 42.964C87.3715 43.0046 87.3391 43.0537 87.3183 43.1079C87.2974 43.1622 87.2885 43.2203 87.2922 43.2783C87.2897 43.3578 87.3046 43.4369 87.3359 43.51C87.3673 43.5831 87.4143 43.6485 87.4736 43.7014C87.6132 43.8178 87.7918 43.8769 87.9732 43.8666C88.1346 43.8697 88.2937 43.8279 88.4326 43.7458C88.5658 43.6636 88.6755 43.5484 88.751 43.4113C88.8301 43.2625 88.8703 43.0962 88.8678 42.9277V42.009C88.8776 41.9088 88.8673 41.8076 88.8376 41.7115C88.8078 41.6153 88.7592 41.526 88.6946 41.4488C88.531 41.3178 88.3229 41.2557 88.1143 41.2756C87.9504 41.2765 87.787 41.294 87.6267 41.328C87.4363 41.3705 87.2511 41.434 87.0746 41.5174C86.9952 41.5622 86.902 41.5766 86.8127 41.5577C86.7395 41.5384 86.6763 41.4924 86.6354 41.4287C86.5949 41.3634 86.574 41.2879 86.575 41.2111C86.5759 41.1307 86.5966 41.0518 86.6354 40.9814C86.6848 40.9019 86.7603 40.8421 86.849 40.8122C87.0721 40.7183 87.3044 40.6481 87.5421 40.6026C87.7409 40.5613 87.9434 40.5397 88.1465 40.5382C88.4645 40.5261 88.7812 40.5853 89.0733 40.7114C89.3076 40.8192 89.499 41.0022 89.6173 41.2313C89.748 41.5108 89.8102 41.8175 89.7987 42.1258V44.0238C89.8075 44.1576 89.7658 44.2899 89.6818 44.3945C89.6378 44.4389 89.5849 44.4733 89.5265 44.4955C89.4681 44.5178 89.4057 44.5273 89.3433 44.5235C89.281 44.5268 89.2187 44.517 89.1604 44.4948C89.1022 44.4726 89.0491 44.4384 89.0048 44.3945C88.918 44.2913 88.8746 44.1584 88.8839 44.0238V43.645H88.9444C88.9145 43.8167 88.8425 43.9783 88.7349 44.1154C88.6273 44.2525 88.4875 44.3609 88.3279 44.4308C88.1524 44.5062 87.9628 44.5433 87.7718 44.5396ZM88.5535 40.0788C88.5328 40.1111 88.5056 40.1389 88.4737 40.1604C88.4419 40.1819 88.4059 40.1966 88.3682 40.2037C88.2945 40.2127 88.2199 40.1986 88.1546 40.1634C88.0889 40.1301 88.0374 40.0744 88.0095 40.0062C87.9961 39.9695 87.9909 39.9302 87.9944 39.8912C87.9978 39.8521 88.0099 39.8144 88.0297 39.7806L88.6261 38.612C88.6428 38.5697 88.6679 38.5311 88.6997 38.4986C88.7315 38.4661 88.7695 38.4403 88.8114 38.4226C88.8901 38.3978 88.9745 38.3978 89.0532 38.4226C89.1348 38.4417 89.2098 38.482 89.2708 38.5394C89.333 38.5965 89.3719 38.6746 89.3801 38.7586C89.3883 38.8427 89.3652 38.9268 89.3151 38.9948L88.5535 40.0788Z" fill="#1462B0"/>
<path d="M90.8786 45.9338C90.8136 45.9378 90.7483 45.9289 90.6868 45.9074C90.6252 45.886 90.5685 45.8525 90.52 45.8089C90.4755 45.7586 90.4415 45.6999 90.4201 45.6362C90.3986 45.5725 90.3901 45.5052 90.3951 45.4382V41.062C90.3902 40.9956 90.3988 40.9289 90.4202 40.8659C90.4417 40.8029 90.4756 40.7449 90.52 40.6953C90.5665 40.6512 90.6217 40.6173 90.6821 40.5957C90.7425 40.5742 90.8067 40.5656 90.8706 40.5704C90.9357 40.5654 91.0012 40.574 91.0629 40.5955C91.1246 40.617 91.1812 40.6509 91.2292 40.6953C91.2736 40.7449 91.3075 40.8029 91.329 40.8659C91.3505 40.9289 91.359 40.9956 91.3541 41.062V41.6745L91.2695 41.4408C91.3485 41.175 91.52 40.9463 91.7531 40.796C92.0044 40.6321 92.2993 40.5479 92.5993 40.5543C92.9106 40.5479 93.2172 40.6319 93.4818 40.796C93.7395 40.9644 93.9447 41.2018 94.0742 41.4811C94.3534 42.1614 94.3534 42.9244 94.0742 43.6047C93.9475 43.8867 93.7435 44.127 93.4858 44.2978C93.22 44.4627 92.912 44.5467 92.5993 44.5396C92.3026 44.5448 92.0109 44.4621 91.7611 44.3018C91.5346 44.1537 91.3643 43.9337 91.2776 43.6772H91.3703V45.4382C91.3756 45.5056 91.3669 45.5733 91.3447 45.6371C91.3225 45.7009 91.2873 45.7594 91.2413 45.8089C91.1414 45.8964 91.0112 45.9412 90.8786 45.9338ZM92.3253 43.7941C92.5078 43.8012 92.6879 43.751 92.8403 43.6506C92.9928 43.5501 93.11 43.4044 93.1755 43.234C93.2624 43.0149 93.3035 42.7804 93.2964 42.5449C93.3216 42.2103 93.2274 41.8777 93.0305 41.606C92.9437 41.5051 92.8351 41.4251 92.713 41.372C92.5909 41.319 92.4583 41.2943 92.3253 41.2997C92.1463 41.2952 91.9699 41.3428 91.8175 41.4367C91.6662 41.5333 91.5481 41.674 91.4791 41.8397C91.3885 42.0592 91.3459 42.2955 91.3541 42.5328C91.33 42.8666 91.4258 43.1981 91.6241 43.4677C91.7081 43.5722 91.8151 43.656 91.9367 43.7126C92.0582 43.7692 92.1912 43.7971 92.3253 43.7941Z" fill="#1462B0"/>
<path d="M97.04 44.459C96.9676 44.4689 96.894 44.462 96.8247 44.4388C96.7555 44.4156 96.6925 44.3768 96.6407 44.3254C96.5889 44.2739 96.5496 44.2112 96.5259 44.1422C96.5022 44.0731 96.4947 43.9995 96.5041 43.9271V39.4743C96.4986 39.4014 96.508 39.3281 96.5315 39.2589C96.5551 39.1896 96.5923 39.1259 96.6411 39.0714C96.6954 39.0224 96.7592 38.985 96.8285 38.9615C96.8977 38.9379 96.9711 38.9287 97.044 38.9343H99.8608C99.9153 38.9297 99.9703 38.9363 100.022 38.9536C100.074 38.9709 100.122 38.9986 100.163 39.0351C100.199 39.0742 100.226 39.12 100.244 39.1697C100.262 39.2195 100.27 39.2724 100.268 39.3252C100.272 39.3801 100.265 39.4352 100.247 39.4872C100.229 39.5392 100.2 39.5869 100.163 39.6274C100.08 39.7006 99.9713 39.7382 99.8608 39.7322H97.4833V41.2514H99.6754C99.7306 41.2462 99.7863 41.2525 99.839 41.2698C99.8917 41.2871 99.9403 41.3152 99.9816 41.3521C100.047 41.4378 100.082 41.5426 100.082 41.6503C100.082 41.7581 100.047 41.8629 99.9816 41.9485C99.9403 41.9855 99.8917 42.0135 99.839 42.0309C99.7863 42.0482 99.7306 42.0545 99.6754 42.0493H97.4833V43.6611H99.8608C99.9713 43.6552 100.08 43.6928 100.163 43.7659C100.199 43.8055 100.227 43.8519 100.245 43.9024C100.263 43.9529 100.271 44.0065 100.268 44.0601C100.271 44.1143 100.264 44.1686 100.246 44.2199C100.228 44.2711 100.2 44.3182 100.163 44.3583C100.122 44.3947 100.074 44.4224 100.022 44.4398C99.9703 44.4571 99.9153 44.4636 99.8608 44.459H97.04Z" fill="#1462B0"/>
<path d="M101.303 44.5235C101.235 44.5283 101.167 44.5186 101.103 44.4949C101.039 44.4713 100.981 44.4343 100.933 44.3865C100.843 44.2814 100.797 44.1458 100.804 44.0077V39.4501C100.799 39.3813 100.808 39.3121 100.831 39.2469C100.854 39.1818 100.89 39.122 100.937 39.0714C101.04 38.981 101.174 38.9347 101.311 38.9424H103.197C103.703 38.9087 104.202 39.0638 104.6 39.3776C104.766 39.5303 104.896 39.7179 104.981 39.9269C105.066 40.1359 105.104 40.3612 105.091 40.5865C105.101 40.893 105.024 41.1959 104.87 41.4609C104.718 41.7106 104.493 41.9075 104.225 42.0251C103.901 42.1651 103.55 42.2325 103.197 42.2225L103.27 42.1057H103.528C103.726 42.1016 103.921 42.1563 104.088 42.2628C104.26 42.3916 104.398 42.5603 104.491 42.7545L105.075 43.8425C105.135 43.939 105.166 44.051 105.164 44.1648C105.163 44.2129 105.152 44.2603 105.132 44.3039C105.112 44.3476 105.083 44.3867 105.047 44.4187C104.955 44.4892 104.84 44.5236 104.725 44.5154C104.604 44.5215 104.484 44.4905 104.382 44.4268C104.283 44.3535 104.201 44.2584 104.144 44.1487L103.338 42.69C103.269 42.5393 103.153 42.4149 103.008 42.3354C102.852 42.2706 102.685 42.2404 102.516 42.2467H101.775V44.0238C101.781 44.1612 101.737 44.2961 101.65 44.4026C101.555 44.4869 101.43 44.5303 101.303 44.5235ZM101.807 41.5093H103.016C103.302 41.5273 103.585 41.4493 103.822 41.2877C103.917 41.2056 103.992 41.1024 104.04 40.9862C104.089 40.87 104.109 40.7442 104.1 40.6187C104.108 40.4946 104.087 40.3703 104.038 40.2557C103.99 40.141 103.916 40.0391 103.822 39.9579C103.586 39.7949 103.302 39.7154 103.016 39.7322H101.807V41.5093Z" fill="#1462B0"/>
<path d="M106.284 44.5235C106.216 44.5283 106.148 44.5186 106.084 44.4949C106.02 44.4713 105.962 44.4343 105.913 44.3865C105.867 44.3352 105.832 44.2753 105.809 44.2103C105.786 44.1453 105.776 44.0765 105.78 44.0077V39.4501C105.775 39.3813 105.785 39.3121 105.807 39.2469C105.83 39.1818 105.866 39.122 105.913 39.0714C106.018 38.9807 106.154 38.9345 106.292 38.9424H108.178C108.686 38.9116 109.187 39.0742 109.58 39.3978C109.748 39.5613 109.878 39.7589 109.963 39.9772C110.048 40.1954 110.085 40.4293 110.072 40.6631C110.085 40.898 110.048 41.1331 109.963 41.3526C109.878 41.5722 109.748 41.7712 109.58 41.9364C109.189 42.2639 108.687 42.4284 108.178 42.3958H106.784V44.0077C106.792 44.1453 106.748 44.281 106.659 44.3865C106.61 44.4349 106.551 44.4722 106.486 44.4958C106.422 44.5194 106.353 44.5289 106.284 44.5235ZM106.784 41.606H108.021C108.31 41.6271 108.597 41.5411 108.827 41.3642C109.003 41.1742 109.101 40.9244 109.101 40.6651C109.101 40.4057 109.003 40.156 108.827 39.9659C108.595 39.7943 108.309 39.7114 108.021 39.7322H106.784V41.606Z" fill="#1462B0"/>
<path d="M114.698 44.5396C114.209 44.5506 113.726 44.4295 113.3 44.189C112.902 43.9538 112.581 43.6099 112.373 43.1977C112.145 42.7315 112.032 42.2176 112.042 41.6987C112.037 41.2998 112.101 40.9031 112.232 40.5261C112.348 40.1958 112.53 39.8927 112.768 39.6355C113.002 39.3857 113.288 39.1903 113.606 39.0633C113.954 38.9269 114.325 38.8599 114.698 38.8658C115.188 38.8531 115.673 38.9728 116.1 39.2124C116.495 39.446 116.815 39.787 117.023 40.1956C117.25 40.6605 117.362 41.1733 117.349 41.6906C117.355 42.0892 117.293 42.4859 117.164 42.8633C117.047 43.1968 116.865 43.5036 116.628 43.7659C116.394 44.0157 116.108 44.2111 115.79 44.3381C115.443 44.4759 115.072 44.5443 114.698 44.5396ZM114.698 43.6773C115.004 43.6871 115.305 43.6058 115.564 43.4435C115.81 43.2758 116.001 43.0388 116.112 42.7625C116.245 42.424 116.31 42.0624 116.302 41.6987C116.34 41.1805 116.198 40.665 115.899 40.2399C115.755 40.0675 115.573 39.9311 115.368 39.8416C115.162 39.752 114.938 39.7118 114.714 39.7242C114.41 39.7153 114.11 39.7967 113.852 39.9579C113.604 40.1212 113.411 40.3558 113.3 40.6308C113.165 40.9705 113.101 41.3336 113.11 41.6987C113.074 42.2155 113.216 42.7291 113.513 43.1534C113.655 43.328 113.837 43.4665 114.043 43.5576C114.249 43.6486 114.473 43.6896 114.698 43.6773ZM116.809 45.3455C116.879 45.4346 116.911 45.5475 116.898 45.6598C116.885 45.751 116.841 45.835 116.773 45.8976C116.704 45.9633 116.617 46.0068 116.523 46.0225C116.423 46.042 116.319 46.0308 116.225 45.9903C116.118 45.9481 116.03 45.8696 115.975 45.7686L115.435 44.8982C115.363 44.7836 115.262 44.6903 115.141 44.6283C114.999 44.5648 114.845 44.5345 114.69 44.5396L115.464 44.2333C115.668 44.2242 115.87 44.2686 116.052 44.3623C116.225 44.4793 116.369 44.6335 116.475 44.8136L116.809 45.3455Z" fill="#1462B0"/>
<path d="M119.268 44.5396C118.988 44.5514 118.71 44.4903 118.462 44.3623C118.252 44.2439 118.088 44.0578 117.998 43.8344C117.887 43.5567 117.835 43.2589 117.845 42.96V41.062C117.835 40.9958 117.841 40.9283 117.861 40.8647C117.882 40.801 117.917 40.7431 117.964 40.6954C118.011 40.6477 118.068 40.6116 118.132 40.5899C118.195 40.5682 118.262 40.5615 118.329 40.5704C118.461 40.5615 118.591 40.6049 118.691 40.6913C118.738 40.7401 118.775 40.7984 118.798 40.8624C118.821 40.9263 118.83 40.9943 118.824 41.062V42.9721C118.806 43.1861 118.863 43.3998 118.985 43.5765C119.053 43.6458 119.135 43.6993 119.225 43.7334C119.316 43.7676 119.413 43.7814 119.509 43.774C119.63 43.777 119.749 43.7545 119.861 43.7079C119.972 43.6614 120.072 43.5919 120.154 43.504C120.326 43.3058 120.416 43.049 120.404 42.7867V41.062C120.398 40.9949 120.406 40.9274 120.428 40.8637C120.449 40.7999 120.484 40.7412 120.529 40.6913C120.628 40.6055 120.757 40.5621 120.887 40.5704C121.021 40.5625 121.152 40.6058 121.254 40.6913C121.3 40.7409 121.335 40.7994 121.357 40.8632C121.379 40.927 121.388 40.9947 121.383 41.062V44.0238C121.383 44.3583 121.222 44.5235 120.904 44.5235C120.839 44.5268 120.775 44.517 120.715 44.4949C120.655 44.4727 120.6 44.4386 120.553 44.3945C120.509 44.3442 120.475 44.2855 120.453 44.2218C120.432 44.1581 120.423 44.0908 120.428 44.0238V43.4274L120.537 43.6611C120.442 43.9243 120.269 44.1522 120.041 44.3139C119.811 44.4639 119.542 44.5424 119.268 44.5396Z" fill="#1462B0"/>
<path d="M123.285 44.5396C123.029 44.5456 122.774 44.4904 122.544 44.3784C122.334 44.284 122.154 44.1334 122.024 43.9432C121.901 43.7611 121.837 43.5462 121.838 43.3267C121.825 43.0836 121.904 42.8445 122.06 42.6577C122.255 42.4675 122.504 42.3423 122.773 42.2991C123.209 42.217 123.652 42.1805 124.095 42.1903H124.498V42.7545H124.115C123.855 42.7501 123.595 42.7662 123.338 42.8028C123.191 42.8174 123.051 42.8733 122.935 42.964C122.893 43.0046 122.861 43.0537 122.84 43.1079C122.819 43.1622 122.81 43.2203 122.814 43.2783C122.811 43.3578 122.826 43.4369 122.857 43.51C122.889 43.5831 122.936 43.6484 122.995 43.7014C123.135 43.8178 123.313 43.8769 123.495 43.8666C123.656 43.8697 123.815 43.8279 123.954 43.7457C124.087 43.6636 124.197 43.5484 124.272 43.4113C124.351 43.2625 124.392 43.0962 124.389 42.9277V42.009C124.399 41.9088 124.389 41.8076 124.359 41.7115C124.329 41.6153 124.281 41.526 124.216 41.4488C124.052 41.3178 123.844 41.2557 123.636 41.2756C123.472 41.2765 123.308 41.294 123.148 41.328C122.958 41.3699 122.772 41.4334 122.596 41.5173C122.517 41.5622 122.423 41.5766 122.334 41.5576C122.261 41.5384 122.198 41.4924 122.157 41.4287C122.116 41.3634 122.095 41.2879 122.096 41.2111C122.097 41.1307 122.118 41.0518 122.157 40.9814C122.206 40.9019 122.282 40.8421 122.37 40.8122C122.593 40.7183 122.826 40.6481 123.064 40.6026C123.262 40.5613 123.465 40.5397 123.668 40.5381C123.986 40.5261 124.303 40.5853 124.595 40.7114C124.829 40.8192 125.02 41.0022 125.139 41.2312C125.269 41.5108 125.332 41.8175 125.32 42.1258V44.0238C125.329 44.1576 125.287 44.2899 125.203 44.3945C125.159 44.4389 125.106 44.4733 125.048 44.4955C124.99 44.5178 124.927 44.5273 124.865 44.5235C124.802 44.5268 124.74 44.517 124.682 44.4948C124.624 44.4726 124.571 44.4384 124.526 44.3945C124.439 44.2913 124.396 44.1584 124.405 44.0238V43.645H124.442C124.412 43.8167 124.34 43.9783 124.232 44.1154C124.125 44.2525 123.985 44.3609 123.825 44.4308C123.655 44.504 123.471 44.5411 123.285 44.5396ZM123.688 40.1876C123.61 40.1906 123.533 40.171 123.466 40.1311C123.441 40.1138 123.421 40.0902 123.407 40.0627C123.394 40.0351 123.388 40.0046 123.39 39.974C123.385 39.8759 123.408 39.7783 123.454 39.6919C123.497 39.6197 123.548 39.5533 123.608 39.4945C123.668 39.438 123.716 39.3857 123.761 39.3373C123.805 39.2891 123.83 39.2257 123.829 39.16C123.83 39.1303 123.823 39.1008 123.809 39.0746C123.795 39.0485 123.774 39.0265 123.749 39.0109C123.675 38.9775 123.595 38.9623 123.515 38.9666H123.382C123.331 38.9719 123.281 38.9827 123.233 38.9988C123.166 39.0178 123.094 39.0178 123.027 38.9988C122.999 38.9899 122.974 38.9742 122.954 38.9531C122.933 38.932 122.918 38.9062 122.91 38.8779C122.886 38.8172 122.886 38.7493 122.91 38.6885C122.927 38.6555 122.95 38.6262 122.979 38.6026C123.007 38.579 123.04 38.5616 123.076 38.5515C123.176 38.5133 123.28 38.4863 123.386 38.4709C123.501 38.4547 123.616 38.4466 123.732 38.4468C123.948 38.435 124.162 38.4854 124.349 38.5918C124.418 38.6342 124.474 38.6936 124.513 38.7642C124.552 38.8348 124.572 38.9142 124.571 38.9948C124.577 39.1077 124.546 39.2196 124.482 39.3131C124.424 39.3914 124.355 39.4606 124.276 39.5186C124.206 39.5763 124.138 39.6382 124.075 39.704C124.014 39.7712 123.983 39.8595 123.986 39.9498C123.987 39.9786 123.981 40.0071 123.967 40.0325C123.954 40.058 123.934 40.0795 123.91 40.0949C123.851 40.1469 123.778 40.1793 123.7 40.1876H123.688Z" fill="#1462B0"/>
<path d="M126.4 44.5235C126.335 44.5279 126.269 44.5187 126.207 44.4965C126.146 44.4743 126.089 44.4396 126.041 44.3945C125.997 44.3442 125.963 44.2855 125.941 44.2218C125.92 44.1581 125.912 44.0908 125.916 44.0238V41.062C125.912 40.9956 125.92 40.9289 125.942 40.8659C125.963 40.8029 125.997 40.7449 126.041 40.6953C126.14 40.6148 126.264 40.5709 126.392 40.5709C126.52 40.5709 126.643 40.6148 126.743 40.6953C126.788 40.7446 126.822 40.8025 126.844 40.8655C126.867 40.9285 126.876 40.9953 126.871 41.062V41.606L126.783 41.4085C126.886 41.1451 127.075 40.9238 127.319 40.7799C127.569 40.6329 127.855 40.5576 128.145 40.5623C128.41 40.5514 128.673 40.6112 128.906 40.7356C129.108 40.8545 129.264 41.0375 129.35 41.2554C129.458 41.5366 129.509 41.8367 129.499 42.1379V44.0238C129.504 44.0908 129.495 44.1581 129.474 44.2218C129.452 44.2855 129.418 44.3442 129.374 44.3945C129.326 44.4392 129.269 44.4737 129.208 44.4958C129.146 44.518 129.081 44.5274 129.015 44.5235C128.948 44.5305 128.88 44.5224 128.817 44.4998C128.753 44.4771 128.695 44.4404 128.648 44.3925C128.6 44.3445 128.564 44.2865 128.542 44.2227C128.52 44.1589 128.512 44.0909 128.52 44.0238V42.1742C128.538 41.9456 128.48 41.7174 128.354 41.5254C128.289 41.4536 128.209 41.3978 128.118 41.3621C128.028 41.3265 127.931 41.312 127.835 41.3199C127.707 41.314 127.581 41.3354 127.462 41.3826C127.344 41.4299 127.238 41.5019 127.15 41.5939C127.061 41.6895 126.993 41.8019 126.948 41.9244C126.904 42.0469 126.885 42.1771 126.892 42.3072V44.0238C126.902 44.0912 126.897 44.1601 126.877 44.2251C126.856 44.2901 126.82 44.3493 126.772 44.3979C126.724 44.4466 126.666 44.4832 126.601 44.5051C126.536 44.5269 126.468 44.5332 126.4 44.5235Z" fill="#1462B0"/>
<path d="M133.585 44.5396C133.292 44.5498 133 44.4904 132.735 44.3663C132.515 44.2597 132.338 44.0823 132.231 43.8626C132.113 43.6035 132.057 43.3209 132.066 43.0365V41.3683H131.663C131.558 41.3743 131.456 41.3397 131.377 41.2715C131.341 41.2363 131.314 41.1941 131.296 41.1476C131.278 41.1011 131.27 41.0514 131.272 41.0016C131.269 40.951 131.276 40.9004 131.294 40.8531C131.312 40.8058 131.34 40.7629 131.377 40.7275C131.456 40.6609 131.559 40.6277 131.663 40.6349H132.066V39.9216C132.061 39.8549 132.07 39.7879 132.092 39.7248C132.114 39.6618 132.149 39.6039 132.195 39.5549C132.244 39.5104 132.302 39.4761 132.365 39.4539C132.428 39.4318 132.495 39.4223 132.561 39.426C132.627 39.422 132.692 39.4314 132.754 39.4536C132.816 39.4758 132.872 39.5102 132.92 39.5549C132.965 39.6043 132.999 39.6622 133.02 39.7253C133.042 39.7884 133.05 39.8552 133.045 39.9216V40.6349H133.875C133.98 40.6266 134.084 40.6599 134.165 40.7275C134.201 40.7631 134.228 40.8061 134.246 40.8534C134.263 40.9007 134.27 40.9513 134.266 41.0016C134.269 41.0511 134.262 41.1007 134.244 41.1472C134.227 41.1937 134.2 41.2361 134.165 41.2715C134.085 41.3407 133.981 41.3754 133.875 41.3683H133.045V42.9801C133.03 43.182 133.088 43.3825 133.21 43.5443C133.28 43.6125 133.363 43.6647 133.455 43.6974C133.547 43.7301 133.645 43.7425 133.742 43.7337C133.821 43.7349 133.899 43.7268 133.976 43.7095L134.157 43.6772C134.186 43.6742 134.216 43.6781 134.243 43.6886C134.27 43.6991 134.295 43.7159 134.314 43.7377C134.366 43.8177 134.387 43.9134 134.375 44.0077C134.376 44.1026 134.36 44.197 134.326 44.2857C134.309 44.3253 134.283 44.3608 134.252 44.3899C134.22 44.4191 134.182 44.4412 134.141 44.455C134.054 44.4798 133.965 44.4987 133.875 44.5114C133.779 44.5295 133.682 44.539 133.585 44.5396Z" fill="#1462B0"/>
<path d="M134.947 44.5235C134.879 44.5312 134.811 44.5236 134.747 44.5012C134.683 44.4788 134.625 44.4423 134.577 44.3942C134.528 44.3462 134.492 44.2879 134.47 44.2238C134.447 44.1597 134.44 44.0913 134.447 44.0238V41.062C134.442 40.9956 134.451 40.9289 134.472 40.8659C134.494 40.8029 134.528 40.7449 134.572 40.6953C134.672 40.6145 134.796 40.5704 134.925 40.5704C135.053 40.5704 135.178 40.6145 135.277 40.6953C135.365 40.7964 135.41 40.9281 135.402 41.062V41.5577H135.322C135.376 41.2763 135.529 41.0235 135.753 40.8444C136.005 40.6699 136.301 40.5694 136.607 40.5543C136.654 40.547 136.703 40.5508 136.748 40.5655C136.794 40.5802 136.835 40.6053 136.869 40.6389C136.942 40.7213 136.982 40.8273 136.982 40.9371C136.99 40.9934 136.987 41.0509 136.972 41.1058C136.956 41.1606 136.93 41.2116 136.893 41.2554C136.809 41.3418 136.695 41.3936 136.575 41.4005H136.406C136.138 41.4102 135.882 41.5144 135.684 41.6947C135.6 41.7883 135.535 41.8978 135.494 42.0168C135.452 42.1359 135.435 42.262 135.443 42.3878V43.9996C135.447 44.0669 135.438 44.1344 135.416 44.1981C135.394 44.2618 135.359 44.3203 135.314 44.3703C135.267 44.4202 135.21 44.4596 135.147 44.486C135.083 44.5124 135.015 44.5251 134.947 44.5235Z" fill="#1462B0"/>
<path d="M137.611 39.8491C137.456 39.8599 137.303 39.8108 137.183 39.7121C137.086 39.6094 137.031 39.4731 137.031 39.3313C137.031 39.1895 137.086 39.0531 137.183 38.9505C137.304 38.8549 137.457 38.8075 137.611 38.8175C137.765 38.8068 137.917 38.8542 138.038 38.9505C138.134 39.054 138.187 39.19 138.187 39.3313C138.187 39.4725 138.134 39.6085 138.038 39.7121C137.918 39.8112 137.765 39.8603 137.611 39.8491ZM137.611 46.095C137.542 46.1003 137.473 46.0916 137.408 46.0695C137.343 46.0473 137.283 46.0121 137.232 45.9661C137.186 45.9182 137.15 45.8612 137.127 45.7987C137.104 45.7363 137.095 45.6698 137.099 45.6034C137.094 45.5376 137.104 45.4716 137.127 45.4097C137.149 45.3479 137.185 45.2917 137.232 45.2448C137.337 45.1548 137.473 45.1099 137.611 45.1199C137.75 45.1102 137.887 45.155 137.993 45.2448C138.04 45.2917 138.076 45.3479 138.099 45.4097C138.122 45.4716 138.131 45.5376 138.126 45.6034C138.131 45.6698 138.121 45.7363 138.098 45.7987C138.075 45.8612 138.039 45.9182 137.993 45.9661C137.941 46.012 137.881 46.0471 137.815 46.0693C137.749 46.0914 137.68 46.1002 137.611 46.095ZM137.611 44.5154C137.544 44.5193 137.476 44.5088 137.414 44.4844C137.351 44.4601 137.295 44.4226 137.248 44.3744C137.158 44.2603 137.113 44.1166 137.123 43.9714V41.0983C137.113 40.953 137.157 40.8092 137.248 40.6953C137.295 40.6476 137.352 40.6107 137.414 40.5871C137.477 40.5634 137.544 40.5536 137.611 40.5583C137.677 40.5541 137.744 40.5642 137.807 40.5878C137.869 40.6114 137.926 40.6481 137.973 40.6953C138.067 40.8076 138.114 40.9522 138.102 41.0983V43.9714C138.114 44.1168 138.069 44.2613 137.977 44.3744C137.93 44.4229 137.873 44.4606 137.809 44.4849C137.746 44.5093 137.678 44.5197 137.611 44.5154Z" fill="#1462B0"/>
<path d="M140.818 42.7549C140.712 42.7566 140.609 42.716 140.532 42.642C140.495 42.6058 140.466 42.5624 140.447 42.5146C140.428 42.4667 140.418 42.4154 140.419 42.3638C140.417 42.3114 140.426 42.2591 140.445 42.2104C140.465 42.1618 140.494 42.1178 140.532 42.0816C140.609 42.009 140.712 41.9699 140.818 41.9727H142.486C142.59 41.972 142.689 42.011 142.764 42.0816C142.802 42.1178 142.832 42.1618 142.851 42.2104C142.871 42.2591 142.88 42.3114 142.877 42.3638C142.877 42.4707 142.835 42.5733 142.759 42.6489C142.684 42.7245 142.581 42.767 142.474 42.767L140.818 42.7549Z" fill="#1462B0"/>
<path d="M147.479 44.5235C147.356 44.529 147.235 44.4952 147.133 44.4268C147.033 44.3502 146.955 44.2487 146.907 44.1326L144.864 39.5469C144.81 39.4399 144.794 39.3175 144.82 39.2003C144.844 39.1048 144.903 39.0217 144.985 38.9666C145.071 38.9074 145.174 38.8764 145.279 38.8779C145.401 38.87 145.523 38.9057 145.622 38.9787C145.708 39.0595 145.773 39.1606 145.811 39.2728L147.669 43.5684H147.33L149.18 39.2648C149.225 39.1558 149.294 39.0581 149.381 38.9787C149.476 38.9078 149.593 38.8722 149.712 38.8779C149.814 38.8759 149.914 38.907 149.998 38.9666C150.072 39.0251 150.123 39.1078 150.143 39.2003C150.159 39.3189 150.14 39.4397 150.086 39.5469L148.043 44.1326C147.998 44.247 147.925 44.3482 147.83 44.4268C147.726 44.4955 147.603 44.5293 147.479 44.5235Z" fill="#1462B0"/>
<path d="M151.646 44.5396C151.389 44.5456 151.135 44.4904 150.904 44.3784C150.698 44.284 150.522 44.1331 150.397 43.9432C150.272 43.7619 150.208 43.5464 150.211 43.3267C150.198 43.0836 150.277 42.8445 150.433 42.6577C150.627 42.4683 150.875 42.3431 151.142 42.2991C151.579 42.217 152.023 42.1806 152.468 42.1903H152.871V42.7545H152.488C152.228 42.7501 151.968 42.7662 151.71 42.8028C151.563 42.8159 151.423 42.8719 151.307 42.964C151.266 43.0046 151.233 43.0537 151.213 43.1079C151.192 43.1622 151.183 43.2203 151.186 43.2783C151.184 43.3578 151.199 43.4369 151.23 43.51C151.262 43.5831 151.308 43.6484 151.368 43.7014C151.507 43.8178 151.686 43.8769 151.867 43.8666C152.029 43.8697 152.188 43.8279 152.327 43.7457C152.46 43.6636 152.57 43.5484 152.645 43.4113C152.724 43.2625 152.764 43.0962 152.762 42.9277V42.009C152.78 41.8068 152.717 41.6058 152.589 41.4488C152.425 41.3178 152.217 41.2557 152.009 41.2756C151.845 41.2765 151.681 41.294 151.521 41.328C151.33 41.3699 151.145 41.4334 150.969 41.5173C150.889 41.5619 150.796 41.5762 150.707 41.5576C150.633 41.5395 150.57 41.4932 150.53 41.4287C150.488 41.3638 150.465 41.2883 150.465 41.2111C150.468 41.1304 150.49 41.0516 150.53 40.9814C150.576 40.901 150.651 40.8407 150.739 40.8122C150.963 40.7194 151.195 40.6492 151.432 40.6026C151.633 40.5613 151.836 40.5397 152.041 40.5381C152.359 40.5261 152.675 40.5853 152.968 40.7114C153.202 40.8192 153.393 41.0022 153.512 41.2312C153.642 41.5108 153.704 41.8175 153.693 42.1258V44.0238C153.702 44.1576 153.66 44.2899 153.576 44.3945C153.483 44.4778 153.362 44.5238 153.238 44.5238C153.113 44.5238 152.992 44.4778 152.899 44.3945C152.812 44.2913 152.769 44.1584 152.778 44.0238V43.645H152.839C152.809 43.8167 152.737 43.9783 152.629 44.1154C152.522 44.2525 152.382 44.3609 152.222 44.4308C152.04 44.5082 151.844 44.5453 151.646 44.5396ZM153.169 39.7886C153.192 39.8208 153.207 39.8582 153.213 39.8975C153.219 39.9368 153.215 39.9769 153.201 40.0143C153.19 40.0474 153.173 40.0779 153.15 40.1042C153.127 40.1305 153.1 40.152 153.068 40.1674C153.008 40.1994 152.939 40.2121 152.871 40.2037C152.834 40.197 152.799 40.1823 152.768 40.1608C152.738 40.1392 152.712 40.1112 152.694 40.0788L152.061 39.0915L151.44 40.0788C151.422 40.1109 151.397 40.1388 151.367 40.1603C151.338 40.1819 151.303 40.1967 151.267 40.2037C151.198 40.2122 151.128 40.1995 151.066 40.1674C151.005 40.1337 150.957 40.0795 150.933 40.0143C150.921 39.9767 150.917 39.9368 150.923 39.8978C150.928 39.8587 150.943 39.8214 150.965 39.7886L151.529 38.753C151.581 38.6458 151.66 38.5541 151.759 38.4871C151.855 38.4295 151.965 38.4002 152.077 38.4024C152.189 38.4008 152.299 38.4301 152.395 38.4871C152.496 38.5536 152.578 38.6452 152.633 38.753L153.169 39.7886ZM152.029 46.095C151.961 46.1 151.892 46.0911 151.828 46.069C151.764 46.0468 151.704 46.0118 151.654 45.9661C151.608 45.9182 151.572 45.8612 151.549 45.7987C151.526 45.7363 151.517 45.6698 151.521 45.6034C151.516 45.5376 151.526 45.4716 151.549 45.4097C151.572 45.3479 151.607 45.2917 151.654 45.2448C151.758 45.1554 151.892 45.1106 152.029 45.1199C152.101 45.1123 152.174 45.1195 152.243 45.141C152.312 45.1625 152.376 45.1978 152.432 45.2448C152.478 45.2917 152.514 45.3479 152.537 45.4097C152.56 45.4716 152.569 45.5376 152.565 45.6034C152.569 45.6698 152.559 45.7363 152.536 45.7987C152.513 45.8612 152.478 45.9182 152.432 45.9661C152.377 46.0146 152.313 46.0512 152.244 46.0734C152.174 46.0956 152.101 46.103 152.029 46.095Z" fill="#1462B0"/>
<path d="M154.761 44.5235C154.695 44.5275 154.629 44.5181 154.566 44.496C154.504 44.4738 154.447 44.4393 154.398 44.3945C154.305 44.2938 154.256 44.1606 154.261 44.0238V41.062C154.253 40.9281 154.298 40.7964 154.386 40.6953C154.433 40.6515 154.489 40.6178 154.55 40.5963C154.611 40.5748 154.676 40.566 154.741 40.5704C154.804 40.5661 154.869 40.575 154.929 40.5964C154.989 40.6179 155.044 40.6516 155.091 40.6953C155.136 40.7449 155.169 40.8029 155.191 40.8659C155.212 40.9289 155.221 40.9956 155.216 41.062V41.606L155.131 41.4086C155.234 41.1443 155.423 40.9226 155.667 40.7799C155.918 40.6329 156.203 40.5576 156.493 40.5623C156.757 40.5513 157.019 40.6111 157.251 40.7356C157.454 40.8543 157.611 41.0372 157.698 41.2554C157.807 41.5366 157.858 41.8367 157.847 42.1379V44.0238C157.852 44.0908 157.844 44.1581 157.822 44.2218C157.801 44.2855 157.767 44.3442 157.723 44.3945C157.674 44.439 157.618 44.4733 157.556 44.4955C157.495 44.5176 157.429 44.5272 157.364 44.5235C157.298 44.5286 157.231 44.5191 157.169 44.4956C157.107 44.472 157.051 44.4351 157.005 44.3874C156.958 44.3396 156.923 44.2823 156.902 44.2195C156.88 44.1566 156.873 44.0898 156.88 44.0238V42.1742C156.9 41.9449 156.84 41.716 156.711 41.5254C156.646 41.4531 156.566 41.3969 156.475 41.3613C156.385 41.3256 156.288 41.3114 156.191 41.3199C156.064 41.3142 155.937 41.3357 155.819 41.383C155.701 41.4302 155.594 41.5021 155.506 41.5939C155.331 41.7887 155.239 42.0452 155.252 42.3072V44.0238C155.262 44.091 155.256 44.1596 155.235 44.2242C155.214 44.2888 155.179 44.3476 155.131 44.396C155.083 44.4444 155.025 44.4812 154.961 44.5033C154.897 44.5254 154.828 44.5323 154.761 44.5235Z" fill="#1462B0"/>
<path d="M160.676 44.5235C160.611 44.5274 160.545 44.518 160.484 44.4958C160.422 44.4737 160.366 44.4392 160.318 44.3945C160.273 44.3442 160.239 44.2855 160.218 44.2218C160.196 44.1581 160.188 44.0908 160.193 44.0238V39.3736C160.187 39.3072 160.196 39.2404 160.217 39.1773C160.239 39.1142 160.273 39.0562 160.318 39.0069C160.366 38.9622 160.422 38.9277 160.484 38.9056C160.545 38.8834 160.611 38.874 160.676 38.8779C160.743 38.8743 160.81 38.8838 160.872 38.9059C160.935 38.928 160.993 38.9623 161.043 39.0069C161.088 39.0559 161.123 39.1137 161.146 39.1768C161.168 39.2399 161.177 39.3069 161.172 39.3736V41.3884H161.063C161.164 41.1235 161.353 40.9015 161.599 40.7598C161.849 40.6124 162.135 40.537 162.425 40.5422C162.689 40.5312 162.95 40.591 163.183 40.7155C163.385 40.8353 163.542 41.0178 163.63 41.2353C163.737 41.5169 163.787 41.8167 163.779 42.1178V44.0238C163.787 44.1589 163.743 44.2919 163.654 44.3945C163.585 44.4707 163.494 44.5233 163.394 44.545C163.293 44.5667 163.188 44.5564 163.094 44.5155C163 44.4745 162.921 44.4051 162.868 44.3169C162.815 44.2287 162.791 44.1262 162.8 44.0238V42.1742C162.819 41.9449 162.759 41.716 162.631 41.5254C162.566 41.4536 162.485 41.3978 162.395 41.3621C162.305 41.3265 162.207 41.312 162.111 41.3199C161.984 41.3142 161.857 41.3357 161.739 41.383C161.621 41.4302 161.514 41.5022 161.426 41.5939C161.25 41.7887 161.159 42.0452 161.172 42.3072V44.0238C161.182 44.0914 161.176 44.1604 161.155 44.2253C161.134 44.2903 161.097 44.3493 161.049 44.3978C161.001 44.4464 160.942 44.483 160.878 44.5048C160.813 44.5266 160.744 44.533 160.676 44.5235Z" fill="#1462B0"/>
<path d="M165.641 44.5396C165.384 44.5456 165.13 44.4904 164.899 44.3784C164.694 44.2822 164.518 44.1317 164.392 43.9432C164.269 43.7611 164.204 43.5462 164.206 43.3267C164.195 43.0839 164.274 42.8455 164.428 42.6577C164.623 42.4675 164.872 42.3423 165.141 42.2991C165.577 42.217 166.02 42.1805 166.463 42.1903H166.866V42.7545H166.483C166.224 42.75 165.966 42.7662 165.709 42.8028C165.562 42.8174 165.423 42.8733 165.306 42.964C165.265 43.0046 165.232 43.0537 165.212 43.1079C165.191 43.1622 165.182 43.2203 165.185 43.2783C165.183 43.3578 165.198 43.4369 165.229 43.51C165.261 43.5831 165.307 43.6485 165.367 43.7014C165.506 43.8178 165.685 43.8769 165.866 43.8666C166.028 43.8697 166.187 43.8279 166.326 43.7458C166.459 43.6636 166.569 43.5484 166.644 43.4113C166.723 43.2625 166.763 43.0962 166.761 42.9277V42.009C166.771 41.9088 166.761 41.8076 166.731 41.7115C166.701 41.6153 166.652 41.526 166.588 41.4488C166.424 41.3179 166.216 41.2557 166.008 41.2756C165.844 41.2765 165.68 41.294 165.52 41.328C165.329 41.3705 165.144 41.434 164.968 41.5174C164.888 41.5622 164.795 41.5766 164.706 41.5577C164.633 41.5384 164.57 41.4924 164.529 41.4287C164.488 41.3634 164.467 41.2879 164.468 41.2111C164.469 41.1307 164.49 41.0518 164.529 40.9814C164.578 40.9019 164.654 40.8421 164.742 40.8122C164.966 40.7189 165.198 40.6486 165.435 40.6026C165.634 40.5613 165.837 40.5397 166.04 40.5382C166.358 40.5261 166.674 40.5853 166.967 40.7114C167.202 40.8168 167.395 41.0004 167.511 41.2313C167.641 41.5108 167.703 41.8175 167.692 42.1258V44.0238C167.701 44.1576 167.659 44.2899 167.575 44.3945C167.531 44.4389 167.478 44.4733 167.42 44.4955C167.361 44.5178 167.299 44.5273 167.237 44.5235C167.174 44.5268 167.112 44.517 167.054 44.4948C166.995 44.4726 166.942 44.4384 166.898 44.3945C166.811 44.2913 166.768 44.1584 166.777 44.0238V43.645H166.838C166.808 43.8167 166.736 43.9783 166.628 44.1154C166.521 44.2525 166.381 44.3609 166.221 44.4308C166.038 44.5097 165.84 44.5469 165.641 44.5396ZM165.697 40.0788L164.936 38.9827C164.885 38.915 164.861 38.8307 164.869 38.7464C164.877 38.6621 164.917 38.5839 164.98 38.5273C165.039 38.471 165.111 38.4307 165.19 38.4105C165.268 38.3858 165.353 38.3858 165.431 38.4105C165.475 38.4273 165.514 38.4527 165.547 38.4853C165.581 38.5178 165.607 38.5568 165.625 38.5999L166.213 39.7685C166.232 39.8025 166.244 39.84 166.248 39.8788C166.253 39.9176 166.249 39.9569 166.237 39.9941C166.21 40.0612 166.16 40.1168 166.096 40.1513C166.031 40.1863 165.956 40.2003 165.883 40.1916C165.846 40.1864 165.81 40.1737 165.778 40.1543C165.746 40.1349 165.719 40.1092 165.697 40.0788Z" fill="#1462B0"/>
<path d="M168.768 44.5235C168.702 44.5279 168.637 44.5187 168.575 44.4965C168.513 44.4743 168.457 44.4396 168.409 44.3945C168.365 44.3442 168.331 44.2855 168.309 44.2218C168.288 44.1581 168.279 44.0908 168.284 44.0238V41.062C168.279 40.9956 168.288 40.9289 168.309 40.8659C168.331 40.8029 168.365 40.7449 168.409 40.6953C168.456 40.6516 168.511 40.6179 168.572 40.5964C168.632 40.575 168.696 40.5661 168.76 40.5704C168.824 40.5656 168.888 40.5742 168.948 40.5957C169.009 40.6173 169.064 40.6512 169.11 40.6953C169.155 40.7446 169.19 40.8025 169.212 40.8655C169.234 40.9285 169.244 40.9953 169.239 41.062V41.606L169.151 41.4085C169.254 41.1451 169.443 40.9238 169.687 40.7799C169.937 40.6329 170.223 40.5576 170.513 40.5623C170.777 40.5514 171.04 40.6112 171.274 40.7356C171.476 40.8545 171.632 41.0375 171.718 41.2554C171.826 41.5366 171.877 41.8367 171.867 42.1379V44.0238C171.872 44.0908 171.863 44.1581 171.842 44.2218C171.82 44.2855 171.786 44.3442 171.742 44.3945C171.694 44.4396 171.638 44.4743 171.576 44.4965C171.514 44.5187 171.449 44.5279 171.383 44.5235C171.316 44.5298 171.248 44.5211 171.185 44.4982C171.122 44.4753 171.065 44.4386 171.017 44.3908C170.97 44.343 170.934 44.2853 170.911 44.2219C170.889 44.1584 170.881 44.0908 170.887 44.0238V42.1742C170.908 41.9454 170.849 41.7166 170.722 41.5254C170.656 41.4533 170.575 41.3973 170.484 41.3616C170.393 41.326 170.296 41.3117 170.198 41.3199C170.072 41.3143 169.946 41.3358 169.828 41.3831C169.711 41.4304 169.605 41.5023 169.517 41.5939C169.429 41.6895 169.361 41.8019 169.316 41.9244C169.272 42.0469 169.253 42.1771 169.259 42.3072V44.0238C169.27 44.0912 169.265 44.1601 169.244 44.2251C169.224 44.2901 169.188 44.3493 169.14 44.3979C169.092 44.4466 169.033 44.4832 168.969 44.5051C168.904 44.5269 168.835 44.5332 168.768 44.5235Z" fill="#1462B0"/>
<path d="M172.943 44.5235C172.877 44.5274 172.812 44.518 172.75 44.4958C172.688 44.4737 172.632 44.4392 172.584 44.3945C172.539 44.3442 172.505 44.2855 172.484 44.2218C172.463 44.1581 172.454 44.0908 172.459 44.0238V39.3736C172.454 39.3072 172.462 39.2404 172.483 39.1773C172.505 39.1142 172.539 39.0562 172.584 39.0069C172.632 38.9622 172.688 38.9277 172.75 38.9056C172.812 38.8834 172.877 38.874 172.943 38.8779C173.009 38.8743 173.076 38.8838 173.139 38.9059C173.202 38.928 173.26 38.9623 173.309 39.0069C173.355 39.0559 173.39 39.1137 173.412 39.1768C173.434 39.2399 173.443 39.3069 173.438 39.3736V41.3884H173.325C173.429 41.125 173.618 40.9037 173.861 40.7598C174.112 40.6143 174.398 40.5391 174.687 40.5422C174.952 40.5306 175.215 40.5905 175.449 40.7154C175.651 40.8353 175.808 41.0178 175.896 41.2353C176.001 41.5172 176.051 41.817 176.041 42.1178V44.0238C176.046 44.0908 176.038 44.1581 176.016 44.2218C175.995 44.2855 175.961 44.3442 175.916 44.3945C175.869 44.4396 175.812 44.4743 175.751 44.4965C175.689 44.5187 175.623 44.5279 175.558 44.5235C175.491 44.5299 175.424 44.5213 175.36 44.4983C175.297 44.4754 175.24 44.4386 175.193 44.3907C175.146 44.3429 175.11 44.2851 175.088 44.2216C175.066 44.1581 175.059 44.0905 175.066 44.0238V42.1742C175.086 41.9449 175.026 41.716 174.897 41.5254C174.832 41.4536 174.751 41.3978 174.661 41.3621C174.571 41.3265 174.474 41.312 174.377 41.3199C174.25 41.314 174.123 41.3354 174.005 41.3826C173.887 41.4299 173.78 41.5019 173.692 41.5939C173.516 41.7887 173.425 42.0452 173.438 42.3072V44.0238C173.448 44.0914 173.442 44.1604 173.421 44.2253C173.4 44.2903 173.364 44.3493 173.316 44.3978C173.268 44.4464 173.209 44.483 173.144 44.5048C173.079 44.5266 173.01 44.533 172.943 44.5235Z" fill="#1462B0"/>
<path d="M180.144 44.5396C179.779 44.5486 179.418 44.464 179.096 44.2938C178.802 44.133 178.562 43.8891 178.407 43.5926C178.239 43.2635 178.156 42.898 178.165 42.5288C178.16 42.2474 178.206 41.9673 178.302 41.7027C178.389 41.4688 178.527 41.257 178.705 41.0822C178.882 40.9051 179.095 40.7678 179.33 40.6792C179.588 40.586 179.861 40.5396 180.135 40.5422C180.324 40.5444 180.512 40.5687 180.696 40.6147C180.897 40.6603 181.089 40.7393 181.264 40.8484C181.339 40.8904 181.398 40.9574 181.429 41.0378C181.45 41.1102 181.45 41.187 181.429 41.2595C181.415 41.3325 181.38 41.3998 181.328 41.4529C181.282 41.5086 181.218 41.5458 181.147 41.5577C181.063 41.5681 180.978 41.5496 180.905 41.5053C180.794 41.4402 180.674 41.3888 180.551 41.3521C180.439 41.3211 180.324 41.3048 180.208 41.3038C180.052 41.2992 179.897 41.3266 179.753 41.3844C179.626 41.438 179.512 41.5177 179.418 41.6181C179.325 41.7296 179.256 41.8583 179.213 41.9969C179.163 42.1683 179.14 42.3463 179.144 42.5248C179.125 42.8512 179.222 43.1739 179.418 43.4355C179.517 43.5497 179.642 43.6392 179.782 43.6966C179.922 43.7539 180.073 43.7777 180.224 43.7659C180.338 43.7665 180.452 43.7516 180.563 43.7216C180.688 43.6868 180.808 43.6367 180.921 43.5725C180.992 43.5272 181.077 43.5099 181.159 43.5241C181.227 43.5405 181.289 43.577 181.336 43.6289C181.382 43.6858 181.411 43.7541 181.421 43.8264C181.43 43.9014 181.42 43.9775 181.393 44.048C181.362 44.1257 181.305 44.19 181.232 44.2293C181.063 44.3341 180.877 44.4104 180.684 44.455C180.508 44.505 180.326 44.5334 180.144 44.5396Z" fill="#1462B0"/>
<path d="M182.166 44.5235C182.1 44.5275 182.034 44.5181 181.972 44.496C181.91 44.4738 181.852 44.4393 181.804 44.3945C181.71 44.2945 181.659 44.1612 181.663 44.0238V39.3736C181.658 39.3072 181.667 39.2407 181.689 39.1777C181.71 39.1148 181.744 39.0567 181.788 39.0069C181.836 38.9621 181.894 38.9276 181.956 38.9054C182.018 38.8833 182.084 38.8739 182.15 38.8779C182.216 38.8744 182.282 38.884 182.345 38.9061C182.407 38.9282 182.464 38.9625 182.513 39.0069C182.558 39.0559 182.593 39.1137 182.616 39.1768C182.638 39.2399 182.647 39.3069 182.642 39.3736V41.3884H182.533C182.635 41.1241 182.824 40.9025 183.069 40.7598C183.319 40.6124 183.605 40.537 183.895 40.5422C184.159 40.5312 184.42 40.591 184.653 40.7155C184.855 40.8353 185.012 41.0179 185.1 41.2353C185.209 41.5164 185.259 41.8166 185.249 42.1178V44.0238C185.257 44.1589 185.213 44.2919 185.124 44.3945C185.076 44.4393 185.018 44.4738 184.956 44.496C184.894 44.5181 184.828 44.5275 184.762 44.5235C184.696 44.527 184.63 44.5175 184.567 44.4953C184.505 44.4732 184.448 44.4389 184.399 44.3945C184.354 44.3445 184.319 44.2859 184.297 44.2222C184.275 44.1586 184.266 44.0911 184.27 44.0238V42.1742C184.289 41.945 184.23 41.716 184.101 41.5254C184.036 41.4536 183.955 41.3978 183.865 41.3621C183.775 41.3265 183.677 41.3121 183.581 41.3199C183.454 41.3142 183.327 41.3357 183.209 41.383C183.091 41.4302 182.984 41.5022 182.896 41.5939C182.72 41.7887 182.629 42.0452 182.642 42.3072V44.0238C182.651 44.0895 182.646 44.1565 182.626 44.2198C182.605 44.283 182.571 44.3408 182.525 44.3889C182.48 44.437 182.424 44.4741 182.361 44.4974C182.299 44.5207 182.233 44.5296 182.166 44.5235Z" fill="#1462B0"/>
<path d="M187.252 44.5396C186.972 44.5514 186.695 44.4903 186.446 44.3623C186.236 44.2429 186.072 44.0572 185.978 43.8344C185.871 43.5559 185.82 43.2585 185.829 42.96V41.062C185.819 40.9958 185.825 40.9283 185.846 40.8647C185.866 40.801 185.901 40.7431 185.948 40.6954C185.995 40.6477 186.053 40.6116 186.116 40.5899C186.179 40.5682 186.247 40.5615 186.313 40.5704C186.445 40.5615 186.575 40.6049 186.676 40.6913C186.722 40.7403 186.758 40.7988 186.78 40.8627C186.802 40.9266 186.811 40.9946 186.805 41.062V42.9721C186.788 43.1866 186.846 43.4003 186.97 43.5765C187.037 43.6462 187.119 43.7001 187.209 43.7342C187.3 43.7684 187.397 43.782 187.494 43.774C187.614 43.777 187.734 43.7545 187.845 43.7079C187.956 43.6614 188.056 43.5919 188.138 43.504C188.311 43.3058 188.4 43.049 188.388 42.7867V41.062C188.378 40.9958 188.384 40.9283 188.404 40.8647C188.425 40.801 188.46 40.7431 188.507 40.6954C188.554 40.6477 188.611 40.6116 188.675 40.5899C188.738 40.5682 188.805 40.5615 188.872 40.5704C189.004 40.5615 189.134 40.6049 189.234 40.6913C189.282 40.7401 189.318 40.7984 189.341 40.8624C189.364 40.9263 189.373 40.9943 189.367 41.062V44.0238C189.367 44.3583 189.206 44.5235 188.888 44.5235C188.824 44.5275 188.759 44.5181 188.699 44.4959C188.639 44.4737 188.584 44.4392 188.537 44.3945C188.493 44.3442 188.459 44.2855 188.437 44.2218C188.416 44.1581 188.407 44.0908 188.412 44.0238V43.4274L188.521 43.6611C188.43 43.9262 188.255 44.1547 188.024 44.3129C187.792 44.4711 187.516 44.5506 187.236 44.5396H187.252Z" fill="#1462B0"/>
<path d="M191.737 44.5396C191.378 44.5485 191.023 44.4653 190.705 44.2978C190.415 44.1387 190.178 43.8976 190.024 43.6047C189.857 43.277 189.774 42.9128 189.782 42.5449C189.777 42.2635 189.824 41.9834 189.92 41.7188C190.003 41.4842 190.137 41.2706 190.312 41.0931C190.486 40.9156 190.698 40.7785 190.931 40.6913C191.189 40.5962 191.462 40.5498 191.737 40.5543C192.097 40.5454 192.454 40.6286 192.772 40.796C193.06 40.957 193.296 41.1959 193.454 41.4851C193.621 41.8126 193.705 42.177 193.695 42.5449C193.698 42.8261 193.652 43.1057 193.558 43.371C193.469 43.6072 193.331 43.8225 193.155 44.0037C192.98 44.1807 192.768 44.3181 192.535 44.4066C192.279 44.4997 192.009 44.5448 191.737 44.5396ZM190.633 38.8981C190.6 38.8976 190.568 38.8898 190.538 38.8751C190.509 38.8605 190.484 38.8394 190.464 38.8135C190.445 38.7829 190.433 38.7488 190.429 38.7133C190.425 38.6779 190.428 38.6419 190.439 38.6079C190.479 38.4332 190.581 38.2787 190.725 38.1727C190.87 38.0699 191.044 38.0175 191.221 38.0236C191.354 38.0216 191.485 38.0506 191.604 38.1083C191.721 38.1647 191.83 38.2251 191.93 38.2815C192.022 38.3355 192.126 38.3647 192.233 38.3662C192.304 38.3676 192.376 38.3539 192.442 38.3259C192.504 38.2966 192.551 38.2446 192.575 38.1808C192.595 38.1265 192.632 38.08 192.68 38.0478C192.73 38.0149 192.79 38.0006 192.849 38.0075C192.882 38.0085 192.914 38.0161 192.944 38.03C192.974 38.0438 193 38.0636 193.022 38.0881C193.043 38.1186 193.056 38.1535 193.06 38.1899C193.064 38.2264 193.06 38.2633 193.047 38.2977C193.006 38.4721 192.904 38.6264 192.76 38.7329C192.614 38.8347 192.439 38.8869 192.261 38.882C192.122 38.8861 191.983 38.8571 191.858 38.7973C191.747 38.7454 191.64 38.6875 191.535 38.6241C191.445 38.5708 191.342 38.5416 191.237 38.5394C191.164 38.5389 191.091 38.554 191.024 38.5838C190.962 38.613 190.914 38.665 190.891 38.7288C190.875 38.7863 190.837 38.8356 190.787 38.8669C190.736 38.8983 190.675 38.9094 190.617 38.8981H190.633ZM191.036 40.1352C191.004 40.1669 190.965 40.1899 190.922 40.202C190.879 40.214 190.833 40.2146 190.79 40.2037C190.753 40.1944 190.72 40.1769 190.691 40.1524C190.662 40.128 190.64 40.0972 190.625 40.0627C190.611 40.0253 190.609 39.9846 190.618 39.9459C190.627 39.9072 190.648 39.8721 190.677 39.845L191.14 39.297C191.215 39.2034 191.312 39.13 191.423 39.0834C191.524 39.0426 191.632 39.022 191.741 39.023C191.82 39.0237 191.898 39.0331 191.975 39.0512C192.045 39.0707 192.111 39.1006 192.172 39.1399C192.24 39.1829 192.301 39.2359 192.353 39.297L192.805 39.845C192.827 39.866 192.844 39.8919 192.854 39.9206C192.865 39.9492 192.869 39.9799 192.865 40.0103C192.858 40.0663 192.831 40.1178 192.789 40.1553C192.769 40.1751 192.746 40.1907 192.72 40.2011C192.695 40.2115 192.667 40.2165 192.64 40.2158C192.568 40.2106 192.5 40.1823 192.446 40.1352L191.737 39.5589L191.036 40.1352ZM191.741 43.7901C191.923 43.796 192.103 43.7453 192.255 43.645C192.407 43.5447 192.525 43.3997 192.591 43.23C192.678 43.0109 192.719 42.7764 192.712 42.5409C192.737 42.2063 192.643 41.8736 192.446 41.602C192.359 41.501 192.251 41.4211 192.129 41.368C192.006 41.315 191.874 41.2903 191.741 41.2957C191.562 41.2912 191.386 41.3388 191.233 41.4327C191.081 41.5291 190.961 41.6697 190.891 41.8357C190.803 42.0561 190.762 42.2919 190.77 42.5288C190.747 42.8619 190.841 43.1926 191.036 43.4637C191.12 43.5685 191.227 43.6527 191.348 43.71C191.47 43.7673 191.603 43.796 191.737 43.7941L191.741 43.7901Z" fill="#1462B0"/>
<path d="M194.61 39.8491C194.456 39.8583 194.303 39.8094 194.183 39.7121C194.085 39.6094 194.03 39.4731 194.03 39.3313C194.03 39.1895 194.085 39.0531 194.183 38.9505C194.304 38.8559 194.456 38.8087 194.61 38.8175C194.765 38.8069 194.919 38.8543 195.041 38.9505C195.137 39.054 195.191 39.19 195.191 39.3313C195.191 39.4725 195.137 39.6085 195.041 39.7121C194.92 39.8115 194.766 39.8605 194.61 39.8491ZM194.61 44.5154C194.544 44.5198 194.477 44.5095 194.415 44.4851C194.353 44.4607 194.297 44.4229 194.251 44.3744C194.159 44.2613 194.114 44.1168 194.126 43.9714V41.0983C194.114 40.9528 194.159 40.8082 194.251 40.6953C194.297 40.6475 194.353 40.6104 194.415 40.5868C194.477 40.5631 194.544 40.5534 194.61 40.5583C194.677 40.5536 194.744 40.5634 194.806 40.5871C194.869 40.6107 194.926 40.6476 194.973 40.6953C195.02 40.7505 195.056 40.8145 195.078 40.8837C195.1 40.9529 195.108 41.0259 195.102 41.0983V43.9714C195.114 44.1168 195.069 44.2613 194.977 44.3744C194.93 44.4233 194.872 44.4613 194.809 44.4857C194.746 44.5101 194.678 44.5202 194.61 44.5154Z" fill="#1462B0"/>
<path d="M198.071 44.5235C198.002 44.5279 197.933 44.5181 197.868 44.4945C197.803 44.4709 197.743 44.4341 197.693 44.3865C197.643 44.3325 197.605 44.2688 197.582 44.1994C197.558 44.13 197.549 44.0565 197.556 43.9835V39.4743C197.549 39.4013 197.558 39.3278 197.582 39.2584C197.605 39.189 197.643 39.1253 197.693 39.0713C197.747 39.0216 197.81 38.9837 197.88 38.9601C197.949 38.9365 198.023 38.9277 198.096 38.9343H200.828C200.882 38.9297 200.937 38.9363 200.989 38.9536C201.041 38.9709 201.089 38.9986 201.13 39.0351C201.166 39.0742 201.193 39.1199 201.211 39.1697C201.229 39.2195 201.237 39.2723 201.235 39.3252C201.239 39.3801 201.232 39.4352 201.214 39.4872C201.196 39.5392 201.167 39.5869 201.13 39.6274C201.089 39.6646 201.042 39.6931 200.99 39.7111C200.938 39.7291 200.883 39.7363 200.828 39.7322H198.563V41.2917H200.663C200.717 41.2871 200.772 41.2936 200.824 41.3109C200.876 41.3282 200.924 41.356 200.965 41.3924C201 41.4315 201.028 41.4773 201.046 41.5271C201.064 41.5769 201.072 41.6297 201.07 41.6826C201.075 41.7369 201.069 41.7918 201.05 41.8433C201.032 41.8948 201.003 41.9415 200.964 41.9801C200.926 42.0187 200.879 42.0483 200.827 42.0665C200.776 42.0847 200.721 42.0912 200.667 42.0855H198.567V43.9795C198.559 44.3421 198.394 44.5235 198.071 44.5235Z" fill="#1462B0"/>
<path d="M203.314 44.5396C202.966 44.5472 202.62 44.4827 202.299 44.3502C202.033 44.2437 201.804 44.0633 201.638 43.8304C201.479 43.6026 201.397 43.3301 201.404 43.0526C201.402 42.883 201.428 42.7143 201.481 42.553C201.529 42.3997 201.603 42.2554 201.698 42.1258C201.801 41.9871 201.918 41.8601 202.049 41.747C202.198 41.6245 202.357 41.514 202.524 41.4166L202.79 41.2595L202.649 41.469C202.45 41.2797 202.282 41.0592 202.154 40.8162C202.052 40.6192 202 40.4009 202 40.1795C201.995 39.9368 202.059 39.6975 202.186 39.4904C202.319 39.2898 202.504 39.1295 202.722 39.027C202.975 38.9138 203.25 38.8587 203.528 38.8658C203.894 38.8446 204.256 38.9594 204.543 39.1882C204.667 39.298 204.766 39.4343 204.83 39.587C204.895 39.7397 204.925 39.905 204.918 40.0707C204.92 40.265 204.88 40.4574 204.801 40.6349C204.713 40.8283 204.585 41.0012 204.426 41.1426C204.218 41.3297 203.986 41.4895 203.737 41.6181V41.3844L205.067 42.8028H204.857C204.931 42.6751 204.99 42.54 205.035 42.3998C205.09 42.2549 205.137 42.1069 205.176 41.9566C205.214 41.7917 205.244 41.6249 205.264 41.4569C205.275 41.348 205.322 41.2458 205.397 41.1668C205.481 41.0976 205.585 41.0598 205.694 41.0598C205.802 41.0598 205.907 41.0976 205.99 41.1668C206.026 41.2122 206.052 41.2648 206.066 41.3212C206.08 41.3775 206.081 41.4362 206.07 41.4932C206.045 41.7298 206.002 41.9642 205.941 42.1943C205.884 42.4059 205.808 42.6122 205.716 42.8109C205.632 42.9946 205.534 43.1712 205.422 43.3387V43.097L206.163 43.8505C206.208 43.8867 206.244 43.932 206.27 43.9835C206.296 44.0349 206.31 44.0912 206.312 44.1487C206.313 44.1955 206.303 44.242 206.284 44.2846C206.264 44.3271 206.235 44.3647 206.199 44.3945C206.111 44.4632 206.001 44.4975 205.889 44.4912C205.791 44.4958 205.693 44.4735 205.607 44.4268C205.519 44.369 205.438 44.3014 205.365 44.2253L204.882 43.7175H205.107C204.881 43.9623 204.606 44.1584 204.301 44.2938C203.994 44.447 203.657 44.5309 203.314 44.5396ZM203.37 43.7659C203.602 43.7699 203.831 43.7203 204.039 43.6208C204.246 43.5144 204.429 43.3662 204.575 43.1856L204.551 43.4355L202.939 41.7672L203.342 41.8075L203.117 41.9405C202.962 42.0272 202.817 42.1313 202.685 42.2507C202.584 42.3421 202.501 42.4531 202.444 42.5772C202.393 42.7052 202.368 42.8423 202.371 42.9801C202.366 43.0903 202.386 43.2001 202.431 43.3009C202.476 43.4017 202.544 43.4906 202.629 43.5604C202.845 43.7127 203.107 43.7853 203.37 43.7659ZM203.528 39.5589C203.361 39.5521 203.198 39.6098 203.072 39.7201C203.014 39.776 202.968 39.8438 202.938 39.9189C202.908 39.994 202.895 40.0746 202.899 40.1553C202.898 40.2502 202.914 40.3444 202.947 40.4334C202.988 40.5354 203.043 40.6305 203.113 40.7155C203.189 40.8162 203.298 40.9411 203.431 41.0862H203.213C203.393 40.9851 203.567 40.8734 203.733 40.7517C203.844 40.6715 203.939 40.5702 204.011 40.4535C204.068 40.3527 204.097 40.2387 204.096 40.1231C204.1 40.049 204.088 39.9749 204.062 39.9055C204.035 39.8362 203.995 39.773 203.943 39.7201C203.83 39.6159 203.681 39.5583 203.528 39.5589Z" fill="#1462B0"/>
<path d="M207.384 44.459C207.312 44.4682 207.239 44.4608 207.17 44.4373C207.101 44.4138 207.039 44.3749 206.988 44.3236C206.936 44.2722 206.897 44.2098 206.874 44.141C206.85 44.0723 206.843 43.9991 206.852 43.9271V39.4743C206.847 39.4014 206.856 39.3281 206.88 39.2589C206.903 39.1896 206.94 39.1259 206.989 39.0714C207.043 39.0222 207.107 38.9847 207.176 38.9611C207.246 38.9376 207.319 38.9285 207.392 38.9343H209.274C209.61 38.9249 209.945 38.9839 210.257 39.1076C210.51 39.2053 210.727 39.3766 210.882 39.5992C211.028 39.8387 211.097 40.1172 211.079 40.3971C211.088 40.7037 210.985 41.003 210.789 41.2393C210.581 41.4804 210.296 41.6438 209.983 41.7027V41.5859C210.326 41.6197 210.645 41.7756 210.882 42.0251C211.104 42.2764 211.22 42.6046 211.204 42.9398C211.216 43.1548 211.178 43.3697 211.092 43.5671C211.006 43.7645 210.874 43.9389 210.708 44.0762C210.308 44.3667 209.82 44.5092 209.326 44.4792L207.384 44.459ZM207.815 41.2836H209.093C209.364 41.3031 209.635 41.2322 209.862 41.0822C209.943 41.0067 210.008 40.9154 210.052 40.8138C210.097 40.7122 210.12 40.6026 210.12 40.4918C210.12 40.381 210.097 40.2714 210.052 40.1698C210.008 40.0683 209.943 39.9769 209.862 39.9015C209.635 39.7514 209.364 39.6806 209.093 39.7H207.815V41.2836ZM207.815 43.7014H209.226C209.502 43.7247 209.778 43.6521 210.007 43.4959C210.093 43.4173 210.16 43.3203 210.204 43.2122C210.247 43.104 210.265 42.9875 210.257 42.8713C210.266 42.755 210.249 42.6381 210.205 42.5298C210.162 42.4214 210.094 42.3246 210.007 42.2467C209.778 42.0906 209.502 42.018 209.226 42.0412H207.815V43.7014Z" fill="#1462B0"/>
<path d="M64.5314 4.22714H75.8639C76.2247 4.22714 76.5707 4.37047 76.8258 4.62559C77.081 4.88071 77.2243 5.22673 77.2243 5.58753V7.0081C77.2243 7.3689 77.081 7.7149 76.8258 7.97003C76.5707 8.22515 76.2247 8.36848 75.8639 8.36848H72.477V31.82C72.477 32.1808 72.3337 32.5268 72.0786 32.7819C71.8234 33.037 71.4774 33.1804 71.1166 33.1804H69.2948C68.9336 33.1804 68.5872 33.0372 68.3314 32.7822C68.0757 32.5272 67.9314 32.1811 67.9304 31.82V8.36848H64.5274C64.1662 8.36848 63.8198 8.22528 63.5641 7.97027C63.3083 7.71526 63.1641 7.36927 63.163 7.0081V5.58753C63.1636 5.40835 63.1994 5.23103 63.2684 5.06569C63.3375 4.90036 63.4384 4.75025 63.5655 4.62393C63.6925 4.4976 63.8433 4.39754 64.009 4.32946C64.1747 4.26138 64.3523 4.22661 64.5314 4.22714Z" fill="#1462B0"/>
<path d="M90.9123 16.4505H95.8602C96.0328 16.45 96.2039 16.4835 96.3636 16.5492C96.5233 16.6149 96.6684 16.7115 96.7907 16.8334C96.9129 16.9553 97.01 17.1002 97.0762 17.2596C97.1424 17.4191 97.1764 17.5901 97.1764 17.7627V19.2555C97.1764 19.4282 97.1424 19.5992 97.0762 19.7586C97.01 19.9181 96.9129 20.0629 96.7907 20.1848C96.6684 20.3067 96.5233 20.4033 96.3636 20.469C96.2039 20.5347 96.0328 20.5683 95.8602 20.5677H90.9123V29.0551H97.4533C97.8024 29.0551 98.1372 29.1937 98.384 29.4406C98.6309 29.6874 98.7695 30.0222 98.7695 30.3713V31.8802C98.7695 32.2293 98.6309 32.564 98.384 32.8109C98.1372 33.0577 97.8024 33.1964 97.4533 33.1964H88.1754C87.938 33.1964 87.7028 33.1496 87.4835 33.0586C87.2641 32.9676 87.0649 32.8342 86.8971 32.6661C86.7294 32.498 86.5965 32.2984 86.5059 32.0789C86.4154 31.8593 86.3691 31.6241 86.3696 31.3866V6.03295C86.3696 5.55402 86.5599 5.0947 86.8985 4.75605C87.2372 4.41739 87.6965 4.22713 88.1754 4.22713H97.4533C97.8024 4.22713 98.1372 4.36581 98.384 4.61265C98.6309 4.8595 98.7695 5.19428 98.7695 5.54337V7.05223C98.7695 7.40132 98.6309 7.73611 98.384 7.98295C98.1372 8.22979 97.8024 8.36847 97.4533 8.36847H90.9123V16.4505Z" fill="#1462B0"/>
<path d="M120.407 22.3892C120.583 22.3887 120.757 22.4229 120.92 22.4898C121.082 22.5567 121.23 22.6551 121.355 22.7792C121.479 22.9033 121.578 23.0508 121.645 23.2132C121.713 23.3756 121.747 23.5497 121.747 23.7255V26.2456C121.747 31.0933 119.486 33.5171 114.962 33.5171C110.438 33.5171 108.174 31.0933 108.172 26.2456V11.1771C108.172 6.32953 110.435 3.90572 114.962 3.90572C119.488 3.90572 121.75 6.32953 121.747 11.1771V12.6659C121.747 12.8417 121.713 13.0159 121.645 13.1782C121.578 13.3406 121.479 13.4881 121.355 13.6123C121.23 13.7364 121.082 13.8347 120.92 13.9017C120.757 13.9686 120.583 14.0028 120.407 14.0022H118.762C118.407 14.0022 118.068 13.8614 117.817 13.6108C117.566 13.3602 117.426 13.0203 117.426 12.6659V10.8962C117.426 8.9941 116.638 8.04438 115.062 8.04706C113.486 8.04974 112.698 8.99945 112.698 10.8962V26.5466C112.698 28.4327 113.486 29.369 115.062 29.3557C116.638 29.3423 117.426 28.4059 117.426 26.5466V23.7376C117.426 23.3832 117.566 23.0433 117.817 22.7927C118.068 22.5421 118.407 22.4013 118.762 22.4013L120.407 22.3892Z" fill="#1462B0"/>
<path d="M133.185 33.1961H131.616C131.222 33.1951 130.844 33.0377 130.566 32.7587C130.287 32.4796 130.131 32.1015 130.131 31.7073V5.73572C130.131 5.34156 130.287 4.96348 130.566 4.68439C130.844 4.40531 131.222 4.24799 131.616 4.24693H133.185C133.58 4.24693 133.959 4.40378 134.238 4.68298C134.517 4.96219 134.674 5.34086 134.674 5.73572V16.6509H139.846V5.73572C139.846 5.34086 140.003 4.96219 140.282 4.68298C140.562 4.40378 140.94 4.24693 141.335 4.24693H143.001C143.395 4.24799 143.772 4.40531 144.051 4.68439C144.329 4.96348 144.485 5.34156 144.485 5.73572V31.7274C144.485 32.1222 144.329 32.5009 144.049 32.7801C143.77 33.0593 143.391 33.2162 142.997 33.2162H141.331C140.936 33.2162 140.558 33.0593 140.278 32.7801C139.999 32.5009 139.842 32.1222 139.842 31.7274V20.8123H134.674V31.7274C134.669 32.1188 134.509 32.4923 134.231 32.7672C133.952 33.0421 133.576 33.1962 133.185 33.1961Z" fill="#1462B0"/>
<path d="M163.19 33.1964C163.024 33.1964 162.859 33.1636 162.706 33.0997C162.553 33.0359 162.413 32.9424 162.296 32.8245C162.179 32.7067 162.087 32.5668 162.024 32.413C161.961 32.2592 161.929 32.0945 161.93 31.9283L161.962 25.1064C161.962 22.6424 160.966 21.4105 158.973 21.4105H157.396V31.8079C157.396 32.1794 157.248 32.5356 156.985 32.7983C156.723 33.0609 156.366 33.2084 155.995 33.2084H154.253C153.882 33.2084 153.526 33.0609 153.263 32.7983C153 32.5356 152.853 32.1794 152.853 31.8079V5.62765C152.853 5.25621 153 4.89999 153.263 4.63734C153.526 4.3747 153.882 4.22713 154.253 4.22713H159.735C164.235 4.22713 166.485 6.45029 166.485 10.8966V13.176C166.485 16.1535 165.488 18.1132 163.495 19.0549C165.515 19.8896 166.525 21.9428 166.525 25.2147V31.9364C166.524 32.2702 166.391 32.5901 166.155 32.8262C165.919 33.0623 165.599 33.1953 165.265 33.1964H163.19ZM157.396 8.36847V17.2772H159.177C161.007 17.2772 161.922 16.2539 161.922 14.2073V11.3541C161.922 9.361 161.148 8.36445 159.599 8.36445L157.396 8.36847Z" fill="#E96012"/>
<path d="M180.391 16.4505H185.082C185.499 16.4505 185.898 16.6157 186.193 16.9098C186.488 17.204 186.654 17.603 186.655 18.0195V18.9987C186.654 19.4152 186.488 19.8143 186.193 20.1084C185.898 20.4026 185.499 20.5677 185.082 20.5677H180.391V29.0551H186.68C186.886 29.0551 187.09 29.0958 187.281 29.1749C187.472 29.254 187.645 29.3699 187.79 29.5161C187.936 29.6622 188.052 29.8356 188.13 30.0265C188.209 30.2173 188.249 30.4217 188.249 30.6281V31.6233C188.249 32.0399 188.083 32.4394 187.789 32.7342C187.495 33.0291 187.096 33.1953 186.68 33.1964H177.418C177.001 33.1953 176.602 33.0291 176.308 32.7342C176.014 32.4394 175.849 32.0399 175.849 31.6233V5.8002C175.848 5.59382 175.888 5.38935 175.967 5.19852C176.046 5.00769 176.161 4.83424 176.307 4.68812C176.453 4.54199 176.626 4.42606 176.816 4.34695C177.007 4.26785 177.211 4.22713 177.418 4.22713H186.68C186.886 4.22713 187.09 4.26785 187.281 4.34695C187.472 4.42606 187.645 4.54199 187.79 4.68812C187.936 4.83424 188.052 5.00769 188.13 5.19852C188.209 5.38935 188.249 5.59382 188.249 5.8002V6.79541C188.249 7.0018 188.209 7.20626 188.13 7.39709C188.052 7.58792 187.936 7.76136 187.79 7.90749C187.645 8.05361 187.472 8.16955 187.281 8.24865C187.09 8.32775 186.886 8.36847 186.68 8.36847H180.391V16.4505Z" fill="#E96012"/>
<path d="M209.814 21.1975C209.399 20.5251 208.918 19.896 208.378 19.3195C207.87 18.7576 207.334 18.2219 206.772 17.7143C206.648 17.606 206.508 17.4776 206.347 17.313L205.143 16.1814C204.631 15.7029 204.151 15.1908 203.707 14.6484C202.831 13.5902 202.34 12.2659 202.314 10.8924C202.314 8.99023 203.075 8.04051 204.597 8.04318C206.12 8.04586 206.881 8.99558 206.881 10.8924V11.7832C206.882 12.0671 206.995 12.339 207.196 12.5397C207.397 12.7404 207.668 12.8536 207.952 12.8547H210.111C210.395 12.8536 210.667 12.7404 210.868 12.5397C211.068 12.339 211.182 12.0671 211.183 11.7832V11.0368C211.137 6.28552 208.905 3.9072 204.485 3.90185C200.015 3.90185 197.78 6.32565 197.78 11.1733C197.759 12.9599 198.241 14.7164 199.172 16.2416C199.588 16.9008 200.061 17.5225 200.585 18.0996C201.002 18.5624 201.548 19.0974 202.222 19.7047L203.859 21.2216C204.367 21.7103 204.846 22.2289 205.292 22.7746C206.16 23.8294 206.644 25.1483 206.664 26.5146C206.664 28.4007 205.884 29.3371 204.325 29.3237C202.765 29.3103 201.977 28.374 201.961 26.5146V24.6807C201.96 24.3469 201.827 24.027 201.591 23.7909C201.355 23.5548 201.035 23.4217 200.701 23.4207H198.915C198.581 23.4217 198.261 23.5548 198.025 23.7909C197.789 24.027 197.656 24.3469 197.655 24.6807V26.2297C197.655 31.0773 199.918 33.5011 204.445 33.5011C208.972 33.5011 211.234 31.0773 211.231 26.2297C211.241 24.4525 210.75 22.7084 209.814 21.1975Z" fill="#E96012"/>
<path d="M219.098 10.4612C218.476 10.4612 217.914 10.3184 217.411 10.033C216.915 9.74754 216.525 9.35581 216.242 8.85778C215.96 8.35976 215.818 7.801 215.818 7.18151C215.818 6.56202 215.96 6.00326 216.242 5.50524C216.525 5.00722 216.915 4.61548 217.411 4.33003C217.914 4.04457 218.476 3.90185 219.098 3.90185C219.72 3.90185 220.279 4.04457 220.776 4.33003C221.278 4.61548 221.671 5.00722 221.954 5.50524C222.236 6.00326 222.378 6.56202 222.378 7.18151C222.378 7.801 222.236 8.35976 221.954 8.85778C221.671 9.35581 221.278 9.74754 220.776 10.033C220.279 10.3184 219.72 10.4612 219.098 10.4612ZM219.098 9.82346C219.594 9.82346 220.04 9.7111 220.436 9.48639C220.832 9.26167 221.14 8.94888 221.36 8.54804C221.586 8.14112 221.699 7.68561 221.699 7.18151C221.699 6.67741 221.586 6.22494 221.36 5.82409C221.14 5.41717 220.832 5.10135 220.436 4.87664C220.04 4.65192 219.594 4.53956 219.098 4.53956C218.602 4.53956 218.156 4.65192 217.76 4.87664C217.364 5.10135 217.053 5.41717 216.827 5.82409C216.607 6.22494 216.497 6.67741 216.497 7.18151C216.497 7.68561 216.607 8.14112 216.827 8.54804C217.053 8.94888 217.364 9.26167 217.76 9.48639C218.156 9.7111 218.602 9.82346 219.098 9.82346ZM218.061 5.23193H219.155C219.519 5.23193 219.786 5.31696 219.956 5.48702C220.132 5.651 220.22 5.90609 220.22 6.25227V6.33426C220.22 6.75941 220.056 7.04182 219.729 7.18151V7.19973C219.905 7.27261 220.031 7.38497 220.106 7.53681C220.182 7.68864 220.22 7.88603 220.22 8.12897V8.59359C220.22 8.83045 220.248 9.00962 220.304 9.13109H219.569C219.544 9.06428 219.525 9.00051 219.513 8.93977C219.506 8.87297 219.503 8.75453 219.503 8.58448V8.11986C219.503 7.91336 219.466 7.7676 219.39 7.68257C219.315 7.59754 219.192 7.55503 219.023 7.55503H218.778V9.13109H218.061V5.23193ZM219.07 6.91732C219.208 6.91732 219.315 6.88391 219.39 6.8171C219.466 6.74422 219.503 6.62275 219.503 6.4527V6.33426C219.503 6.17635 219.472 6.06096 219.409 5.98808C219.352 5.90912 219.255 5.86965 219.117 5.86965H218.778V6.91732H219.07Z" fill="#E96012"/>
<defs>
<linearGradient id="paint0_linear_13763_35025" x1="26.9987" y1="26.5139" x2="45.0382" y2="26.5139" gradientUnits="userSpaceOnUse">
<stop stop-color="#E96012"/>
<stop offset="1" stop-color="#F38E25"/>
</linearGradient>
<linearGradient id="paint1_linear_13763_35025" x1="0.580389" y1="24.9935" x2="21.4189" y2="24.9935" gradientUnits="userSpaceOnUse">
<stop stop-color="#47A5E2"/>
<stop offset="1" stop-color="#1462B0"/>
</linearGradient>
</defs>
</svg>
